<ttFont>
<head>
    <!-- Most of this table will be recalculated by the compiler -->
    <tableVersion value="1.0"/>
    <fontRevision value="1.0"/>
    <checkSumAdjustment value="0xb960734d"/>
    <magicNumber value="0x5f0f3cf5"/>
    <flags value="00000000 00011011"/>
    <unitsPerEm value="1000"/>
    <created value="Sat Dec  6 13:43:38 2025"/>
    <modified value="Sat Dec  6 13:48:26 2025"/>
    <xMin value="-62"/>
    <yMin value="-222"/>
    <xMax value="949"/>
    <yMax value="769"/>
    <macStyle value="00000000 00000001"/>
    <lowestRecPPEM value="6"/>
    <fontDirectionHint value="2"/>
    <indexToLocFormat value="0"/>
    <glyphDataFormat value="0"/>
  </head>
    <TTGlyph name="A" xMin="35" yMin="0" xMax="600" yMax="694">
      <contour>
        <pt x="596" y="39" on="1"/>
        <pt x="599" y="31" on="0"/>
        <pt x="600" y="26" on="0"/>
        <pt x="600" y="25" on="1"/>
        <pt x="600" y="16" on="0"/>
        <pt x="592" y="5" on="0"/>
        <pt x="580" y="1" on="0"/>
        <pt x="567" y="0" on="0"/>
        <pt x="562" y="0" on="1"/>
        <pt x="528" y="0" on="1"/>
        <pt x="512" y="0" on="0"/>
        <pt x="492" y="6" on="0"/>
        <pt x="478" y="20" on="0"/>
        <pt x="469" y="45" on="0"/>
        <pt x="463" y="64" on="1"/>
        <pt x="430" y="171" on="1"/>
        <pt x="188" y="171" on="1"/>
        <pt x="146" y="40" on="1"/>
        <pt x="141" y="23" on="0"/>
        <pt x="122" y="0" on="0"/>
        <pt x="89" y="0" on="1"/>
        <pt x="73" y="0" on="1"/>
        <pt x="68" y="0" on="0"/>
        <pt x="55" y="1" on="0"/>
        <pt x="43" y="5" on="0"/>
        <pt x="35" y="16" on="0"/>
        <pt x="35" y="25" on="1"/>
        <pt x="35" y="28" on="0"/>
        <pt x="38" y="38" on="0"/>
        <pt x="39" y="41" on="1"/>
        <pt x="232" y="657" on="1"/>
        <pt x="237" y="671" on="0"/>
        <pt x="250" y="686" on="0"/>
        <pt x="266" y="693" on="0"/>
        <pt x="282" y="694" on="0"/>
        <pt x="289" y="694" on="1"/>
        <pt x="346" y="694" on="1"/>
        <pt x="354" y="694" on="0"/>
        <pt x="370" y="693" on="0"/>
        <pt x="385" y="686" on="0"/>
        <pt x="399" y="670" on="0"/>
        <pt x="403" y="656" on="1"/>
      </contour>
      <contour>
        <pt x="211" y="246" on="1"/>
        <pt x="407" y="246" on="1"/>
        <pt x="351" y="431" on="1"/>
        <pt x="347" y="445" on="0"/>
        <pt x="334" y="487" on="0"/>
        <pt x="322" y="532" on="0"/>
        <pt x="311" y="574" on="0"/>
        <pt x="309" y="588" on="1"/>
        <pt x="308" y="588" on="1"/>
        <pt x="305" y="565" on="0"/>
        <pt x="283" y="484" on="0"/>
        <pt x="269" y="439" on="1"/>
      </contour>
    </TTGlyph>
    <TTGlyph name="AE" xMin="37" yMin="0" xMax="778" yMax="694">
      <contour>
        <pt x="150" y="38" on="1"/>
        <pt x="140" y="10" on="0"/>
        <pt x="107" y="0" on="0"/>
        <pt x="91" y="0" on="1"/>
        <pt x="74" y="0" on="1"/>
        <pt x="63" y="0" on="0"/>
        <pt x="37" y="6" on="0"/>
        <pt x="37" y="24" on="1"/>
        <pt x="37" y="28" on="0"/>
        <pt x="39" y="34" on="0"/>
        <pt x="42" y="42" on="1"/>
        <pt x="270" y="655" on="1"/>
        <pt x="281" y="684" on="0"/>
        <pt x="313" y="694" on="0"/>
        <pt x="330" y="694" on="1"/>
        <pt x="721" y="694" on="1"/>
        <pt x="752" y="694" on="0"/>
        <pt x="765" y="670" on="0"/>
        <pt x="765" y="649" on="1"/>
        <pt x="765" y="617" on="0"/>
        <pt x="741" y="604" on="0"/>
        <pt x="717" y="604" on="1"/>
        <pt x="702" y="604" on="0"/>
        <pt x="655" y="605" on="0"/>
        <pt x="604" y="606" on="0"/>
        <pt x="557" y="607" on="0"/>
        <pt x="542" y="607" on="1"/>
        <pt x="520" y="607" on="1"/>
        <pt x="520" y="400" on="1"/>
        <pt x="695" y="400" on="1"/>
        <pt x="703" y="400" on="0"/>
        <pt x="719" y="399" on="0"/>
        <pt x="731" y="391" on="0"/>
        <pt x="739" y="374" on="0"/>
        <pt x="739" y="359" on="1"/>
        <pt x="739" y="344" on="0"/>
        <pt x="731" y="328" on="0"/>
        <pt x="718" y="320" on="0"/>
        <pt x="703" y="319" on="0"/>
        <pt x="695" y="319" on="1"/>
        <pt x="520" y="319" on="1"/>
        <pt x="520" y="93" on="1"/>
        <pt x="564" y="93" on="1"/>
        <pt x="578" y="93" on="0"/>
        <pt x="623" y="94" on="0"/>
        <pt x="672" y="95" on="0"/>
        <pt x="717" y="96" on="0"/>
        <pt x="731" y="96" on="1"/>
        <pt x="754" y="96" on="0"/>
        <pt x="778" y="83" on="0"/>
        <pt x="778" y="52" on="1"/>
        <pt x="778" y="44" on="1"/>
        <pt x="778" y="18" on="0"/>
        <pt x="760" y="0" on="0"/>
        <pt x="734" y="0" on="1"/>
        <pt x="444" y="0" on="1"/>
        <pt x="417" y="0" on="0"/>
        <pt x="399" y="19" on="0"/>
        <pt x="399" y="45" on="1"/>
        <pt x="399" y="203" on="1"/>
        <pt x="211" y="203" on="1"/>
      </contour>
      <contour>
        <pt x="239" y="278" on="1"/>
        <pt x="399" y="278" on="1"/>
        <pt x="399" y="608" on="1"/>
        <pt x="362" y="608" on="1"/>
      </contour>
    </TTGlyph>
    <TTGlyph name="B" xMin="81" yMin="0" xMax="581" yMax="694">
      <contour>
        <pt x="326" y="694" on="1"/>
        <pt x="389" y="694" on="0"/>
        <pt x="477" y="664" on="0"/>
        <pt x="531" y="614" on="0"/>
        <pt x="555" y="550" on="0"/>
        <pt x="555" y="516" on="1"/>
        <pt x="555" y="456" on="0"/>
        <pt x="481" y="377" on="0"/>
        <pt x="418" y="363" on="1"/>
        <pt x="465" y="355" on="0"/>
        <pt x="528" y="320" on="0"/>
        <pt x="565" y="274" on="0"/>
        <pt x="581" y="219" on="0"/>
        <pt x="581" y="192" on="1"/>
        <pt x="581" y="157" on="0"/>
        <pt x="558" y="88" on="0"/>
        <pt x="505" y="34" on="0"/>
        <pt x="417" y="0" on="0"/>
        <pt x="351" y="0" on="1"/>
        <pt x="126" y="0" on="1"/>
        <pt x="99" y="0" on="0"/>
        <pt x="81" y="19" on="0"/>
        <pt x="81" y="45" on="1"/>
        <pt x="81" y="649" on="1"/>
        <pt x="81" y="676" on="0"/>
        <pt x="100" y="694" on="0"/>
        <pt x="126" y="694" on="1"/>
      </contour>
      <contour>
        <pt x="296" y="393" on="1"/>
        <pt x="337" y="393" on="0"/>
        <pt x="394" y="413" on="0"/>
        <pt x="429" y="447" on="0"/>
        <pt x="444" y="490" on="0"/>
        <pt x="444" y="514" on="1"/>
        <pt x="444" y="553" on="0"/>
        <pt x="404" y="596" on="0"/>
        <pt x="353" y="616" on="0"/>
        <pt x="304" y="619" on="0"/>
        <pt x="296" y="619" on="1"/>
        <pt x="197" y="619" on="1"/>
        <pt x="197" y="393" on="1"/>
      </contour>
      <contour>
        <pt x="321" y="75" on="1"/>
        <pt x="391" y="75" on="0"/>
        <pt x="467" y="135" on="0"/>
        <pt x="467" y="194" on="1"/>
        <pt x="467" y="228" on="0"/>
        <pt x="447" y="274" on="0"/>
        <pt x="416" y="304" on="0"/>
        <pt x="377" y="320" on="0"/>
        <pt x="341" y="328" on="0"/>
        <pt x="312" y="329" on="0"/>
        <pt x="305" y="329" on="1"/>
        <pt x="197" y="329" on="1"/>
        <pt x="197" y="75" on="1"/>
      </contour>
    </TTGlyph>
    <TTGlyph name="C" xMin="52" yMin="-9" xMax="560" yMax="704">
      <contour>
        <pt x="559" y="63" on="1"/>
        <pt x="560" y="61" on="0"/>
        <pt x="558" y="56" on="1"/>
        <pt x="558" y="54" on="0"/>
        <pt x="557" y="52" on="1"/>
        <pt x="537" y="37" on="0"/>
        <pt x="500" y="15" on="0"/>
        <pt x="457" y="-1" on="0"/>
        <pt x="406" y="-9" on="0"/>
        <pt x="373" y="-9" on="1"/>
        <pt x="289" y="-9" on="0"/>
        <pt x="168" y="44" on="0"/>
        <pt x="89" y="138" on="0"/>
        <pt x="52" y="270" on="0"/>
        <pt x="52" y="349" on="1"/>
        <pt x="52" y="429" on="0"/>
        <pt x="90" y="560" on="0"/>
        <pt x="169" y="653" on="0"/>
        <pt x="290" y="704" on="0"/>
        <pt x="372" y="704" on="1"/>
        <pt x="403" y="704" on="0"/>
        <pt x="451" y="699" on="0"/>
        <pt x="490" y="690" on="0"/>
        <pt x="524" y="677" on="0"/>
        <pt x="540" y="670" on="1"/>
        <pt x="550" y="667" on="0"/>
        <pt x="548" y="656" on="1"/>
        <pt x="534" y="579" on="1"/>
        <pt x="533" y="575" on="0"/>
        <pt x="529" y="568" on="0"/>
        <pt x="525" y="568" on="1"/>
        <pt x="522" y="568" on="0"/>
        <pt x="517" y="568" on="0"/>
        <pt x="512" y="573" on="1"/>
        <pt x="483" y="596" on="0"/>
        <pt x="412" y="618" on="0"/>
        <pt x="372" y="618" on="1"/>
        <pt x="313" y="618" on="0"/>
        <pt x="237" y="570" on="0"/>
        <pt x="192" y="494" on="0"/>
        <pt x="175" y="397" on="0"/>
        <pt x="175" y="348" on="1"/>
        <pt x="175" y="298" on="0"/>
        <pt x="193" y="201" on="0"/>
        <pt x="238" y="125" on="0"/>
        <pt x="315" y="78" on="0"/>
        <pt x="374" y="78" on="1"/>
        <pt x="411" y="78" on="0"/>
        <pt x="459" y="87" on="0"/>
        <pt x="491" y="101" on="0"/>
        <pt x="515" y="118" on="0"/>
        <pt x="528" y="126" on="1"/>
        <pt x="531" y="128" on="0"/>
        <pt x="540" y="133" on="0"/>
        <pt x="542" y="133" on="1"/>
        <pt x="552" y="133" on="0"/>
        <pt x="552" y="127" on="1"/>
      </contour>
    </TTGlyph>
    <TTGlyph name="D" xMin="81" yMin="0" xMax="633" yMax="694">
      <contour>
        <pt x="344" y="694" on="1"/>
        <pt x="424" y="694" on="0"/>
        <pt x="534" y="637" on="0"/>
        <pt x="602" y="540" on="0"/>
        <pt x="633" y="412" on="0"/>
        <pt x="633" y="342" on="1"/>
        <pt x="633" y="272" on="0"/>
        <pt x="601" y="147" on="0"/>
        <pt x="532" y="54" on="0"/>
        <pt x="423" y="0" on="0"/>
        <pt x="345" y="0" on="1"/>
        <pt x="126" y="0" on="1"/>
        <pt x="99" y="0" on="0"/>
        <pt x="81" y="19" on="0"/>
        <pt x="81" y="45" on="1"/>
        <pt x="81" y="649" on="1"/>
        <pt x="81" y="676" on="0"/>
        <pt x="100" y="694" on="0"/>
        <pt x="126" y="694" on="1"/>
      </contour>
      <contour>
        <pt x="312" y="75" on="1"/>
        <pt x="363" y="75" on="0"/>
        <pt x="432" y="103" on="0"/>
        <pt x="477" y="149" on="0"/>
        <pt x="501" y="208" on="0"/>
        <pt x="512" y="267" on="0"/>
        <pt x="514" y="322" on="0"/>
        <pt x="514" y="342" on="1"/>
        <pt x="514" y="362" on="0"/>
        <pt x="512" y="419" on="0"/>
        <pt x="501" y="481" on="0"/>
        <pt x="476" y="541" on="0"/>
        <pt x="431" y="589" on="0"/>
        <pt x="362" y="619" on="0"/>
        <pt x="311" y="619" on="1"/>
        <pt x="200" y="619" on="1"/>
        <pt x="200" y="75" on="1"/>
      </contour>
    </TTGlyph>
    <TTGlyph name="E" xMin="81" yMin="0" xMax="526" yMax="691">
      <contour>
        <pt x="203" y="92" on="1"/>
        <pt x="210" y="93" on="0"/>
        <pt x="246" y="94" on="0"/>
        <pt x="288" y="94" on="0"/>
        <pt x="326" y="94" on="0"/>
        <pt x="335" y="94" on="1"/>
        <pt x="370" y="94" on="0"/>
        <pt x="441" y="96" on="0"/>
        <pt x="476" y="96" on="1"/>
        <pt x="488" y="96" on="0"/>
        <pt x="506" y="95" on="0"/>
        <pt x="519" y="86" on="0"/>
        <pt x="526" y="69" on="0"/>
        <pt x="526" y="52" on="1"/>
        <pt x="526" y="44" on="1"/>
        <pt x="526" y="18" on="0"/>
        <pt x="508" y="0" on="0"/>
        <pt x="482" y="0" on="1"/>
        <pt x="126" y="0" on="1"/>
        <pt x="99" y="0" on="0"/>
        <pt x="81" y="19" on="0"/>
        <pt x="81" y="45" on="1"/>
        <pt x="81" y="646" on="1"/>
        <pt x="81" y="673" on="0"/>
        <pt x="100" y="691" on="0"/>
        <pt x="126" y="691" on="1"/>
        <pt x="469" y="691" on="1"/>
        <pt x="500" y="691" on="0"/>
        <pt x="513" y="667" on="0"/>
        <pt x="513" y="646" on="1"/>
        <pt x="513" y="629" on="0"/>
        <pt x="506" y="611" on="0"/>
        <pt x="493" y="602" on="0"/>
        <pt x="474" y="601" on="0"/>
        <pt x="461" y="601" on="1"/>
        <pt x="443" y="601" on="0"/>
        <pt x="386" y="602" on="0"/>
        <pt x="324" y="603" on="0"/>
        <pt x="267" y="604" on="0"/>
        <pt x="249" y="604" on="1"/>
        <pt x="203" y="604" on="1"/>
        <pt x="203" y="399" on="1"/>
        <pt x="443" y="399" on="1"/>
        <pt x="451" y="399" on="0"/>
        <pt x="467" y="398" on="0"/>
        <pt x="479" y="390" on="0"/>
        <pt x="487" y="373" on="0"/>
        <pt x="487" y="358" on="1"/>
        <pt x="487" y="343" on="0"/>
        <pt x="479" y="327" on="0"/>
        <pt x="466" y="319" on="0"/>
        <pt x="451" y="318" on="0"/>
        <pt x="443" y="318" on="1"/>
        <pt x="203" y="318" on="1"/>
      </contour>
    </TTGlyph>
    <TTGlyph name="F" xMin="81" yMin="0" xMax="499" yMax="691">
      <contour>
        <pt x="203" y="44" on="1"/>
        <pt x="203" y="18" on="0"/>
        <pt x="185" y="0" on="0"/>
        <pt x="159" y="0" on="1"/>
        <pt x="126" y="0" on="1"/>
        <pt x="99" y="0" on="0"/>
        <pt x="81" y="19" on="0"/>
        <pt x="81" y="45" on="1"/>
        <pt x="81" y="646" on="1"/>
        <pt x="81" y="673" on="0"/>
        <pt x="100" y="691" on="0"/>
        <pt x="126" y="691" on="1"/>
        <pt x="455" y="691" on="1"/>
        <pt x="486" y="691" on="0"/>
        <pt x="499" y="667" on="0"/>
        <pt x="499" y="646" on="1"/>
        <pt x="499" y="629" on="0"/>
        <pt x="492" y="611" on="0"/>
        <pt x="479" y="602" on="0"/>
        <pt x="460" y="601" on="0"/>
        <pt x="448" y="601" on="1"/>
        <pt x="431" y="601" on="0"/>
        <pt x="375" y="602" on="0"/>
        <pt x="316" y="603" on="0"/>
        <pt x="260" y="604" on="0"/>
        <pt x="243" y="604" on="1"/>
        <pt x="203" y="604" on="1"/>
        <pt x="203" y="386" on="1"/>
        <pt x="416" y="386" on="1"/>
        <pt x="424" y="386" on="0"/>
        <pt x="440" y="385" on="0"/>
        <pt x="452" y="377" on="0"/>
        <pt x="460" y="360" on="0"/>
        <pt x="460" y="345" on="1"/>
        <pt x="460" y="330" on="0"/>
        <pt x="452" y="314" on="0"/>
        <pt x="439" y="306" on="0"/>
        <pt x="424" y="305" on="0"/>
        <pt x="416" y="305" on="1"/>
        <pt x="203" y="305" on="1"/>
      </contour>
    </TTGlyph>
    <TTGlyph name="G" xMin="53" yMin="-9" xMax="569" yMax="704">
      <contour>
        <pt x="569" y="53" on="1"/>
        <pt x="569" y="45" on="0"/>
        <pt x="562" y="40" on="1"/>
        <pt x="555" y="36" on="0"/>
        <pt x="518" y="19" on="0"/>
        <pt x="466" y="3" on="0"/>
        <pt x="402" y="-9" on="0"/>
        <pt x="367" y="-9" on="1"/>
        <pt x="301" y="-9" on="0"/>
        <pt x="186" y="32" on="0"/>
        <pt x="101" y="119" on="0"/>
        <pt x="53" y="254" on="0"/>
        <pt x="53" y="348" on="1"/>
        <pt x="53" y="377" on="0"/>
        <pt x="60" y="452" on="0"/>
        <pt x="83" y="531" on="0"/>
        <pt x="126" y="608" on="0"/>
        <pt x="197" y="667" on="0"/>
        <pt x="302" y="704" on="0"/>
        <pt x="375" y="704" on="1"/>
        <pt x="429" y="704" on="0"/>
        <pt x="512" y="681" on="0"/>
        <pt x="555" y="656" on="1"/>
        <pt x="559" y="654" on="0"/>
        <pt x="563" y="648" on="0"/>
        <pt x="561" y="638" on="1"/>
        <pt x="546" y="561" on="1"/>
        <pt x="545" y="557" on="0"/>
        <pt x="539" y="555" on="0"/>
        <pt x="537" y="554" on="1"/>
        <pt x="529" y="555" on="0"/>
        <pt x="507" y="575" on="0"/>
        <pt x="470" y="599" on="0"/>
        <pt x="414" y="618" on="0"/>
        <pt x="372" y="618" on="1"/>
        <pt x="313" y="618" on="0"/>
        <pt x="237" y="571" on="0"/>
        <pt x="192" y="494" on="0"/>
        <pt x="175" y="398" on="0"/>
        <pt x="175" y="349" on="1"/>
        <pt x="175" y="300" on="0"/>
        <pt x="192" y="202" on="0"/>
        <pt x="236" y="126" on="0"/>
        <pt x="313" y="78" on="0"/>
        <pt x="372" y="78" on="1"/>
        <pt x="417" y="78" on="0"/>
        <pt x="458" y="88" on="1"/>
        <pt x="458" y="257" on="1"/>
        <pt x="380" y="257" on="1"/>
        <pt x="369" y="257" on="0"/>
        <pt x="369" y="267" on="1"/>
        <pt x="369" y="328" on="1"/>
        <pt x="369" y="330" on="0"/>
        <pt x="376" y="338" on="0"/>
        <pt x="381" y="338" on="1"/>
        <pt x="558" y="338" on="1"/>
        <pt x="565" y="338" on="0"/>
        <pt x="569" y="329" on="0"/>
        <pt x="569" y="325" on="1"/>
      </contour>
    </TTGlyph>
    <TTGlyph name="Gamma" xMin="81" yMin="0" xMax="473" yMax="691">
      <contour>
        <pt x="203" y="44" on="1"/>
        <pt x="203" y="18" on="0"/>
        <pt x="185" y="0" on="0"/>
        <pt x="159" y="0" on="1"/>
        <pt x="126" y="0" on="1"/>
        <pt x="99" y="0" on="0"/>
        <pt x="81" y="19" on="0"/>
        <pt x="81" y="45" on="1"/>
        <pt x="81" y="646" on="1"/>
        <pt x="81" y="673" on="0"/>
        <pt x="100" y="691" on="0"/>
        <pt x="126" y="691" on="1"/>
        <pt x="429" y="691" on="1"/>
        <pt x="460" y="691" on="0"/>
        <pt x="473" y="667" on="0"/>
        <pt x="473" y="646" on="1"/>
        <pt x="473" y="613" on="0"/>
        <pt x="448" y="601" on="0"/>
        <pt x="424" y="601" on="1"/>
        <pt x="408" y="601" on="0"/>
        <pt x="357" y="602" on="0"/>
        <pt x="301" y="603" on="0"/>
        <pt x="250" y="604" on="0"/>
        <pt x="234" y="604" on="1"/>
        <pt x="203" y="604" on="1"/>
      </contour>
    </TTGlyph>
    <TTGlyph name="H" xMin="81" yMin="0" xMax="596" yMax="694">
      <contour>
        <pt x="596" y="44" on="1"/>
        <pt x="596" y="18" on="0"/>
        <pt x="578" y="0" on="0"/>
        <pt x="552" y="0" on="1"/>
        <pt x="518" y="0" on="1"/>
        <pt x="489" y="0" on="0"/>
        <pt x="474" y="21" on="0"/>
        <pt x="474" y="44" on="1"/>
        <pt x="474" y="320" on="1"/>
        <pt x="203" y="320" on="1"/>
        <pt x="203" y="44" on="1"/>
        <pt x="203" y="18" on="0"/>
        <pt x="185" y="0" on="0"/>
        <pt x="159" y="0" on="1"/>
        <pt x="126" y="0" on="1"/>
        <pt x="99" y="0" on="0"/>
        <pt x="81" y="19" on="0"/>
        <pt x="81" y="45" on="1"/>
        <pt x="81" y="649" on="1"/>
        <pt x="81" y="676" on="0"/>
        <pt x="100" y="694" on="0"/>
        <pt x="126" y="694" on="1"/>
        <pt x="159" y="694" on="1"/>
        <pt x="188" y="694" on="0"/>
        <pt x="203" y="673" on="0"/>
        <pt x="203" y="650" on="1"/>
        <pt x="203" y="401" on="1"/>
        <pt x="474" y="401" on="1"/>
        <pt x="474" y="650" on="1"/>
        <pt x="474" y="676" on="0"/>
        <pt x="492" y="694" on="0"/>
        <pt x="518" y="694" on="1"/>
        <pt x="552" y="694" on="1"/>
        <pt x="581" y="694" on="0"/>
        <pt x="596" y="673" on="0"/>
        <pt x="596" y="650" on="1"/>
      </contour>
    </TTGlyph>
    <TTGlyph name="I" xMin="80" yMin="0" xMax="202" yMax="694">
      <contour>
        <pt x="202" y="44" on="1"/>
        <pt x="202" y="18" on="0"/>
        <pt x="184" y="0" on="0"/>
        <pt x="158" y="0" on="1"/>
        <pt x="125" y="0" on="1"/>
        <pt x="98" y="0" on="0"/>
        <pt x="80" y="19" on="0"/>
        <pt x="80" y="45" on="1"/>
        <pt x="80" y="649" on="1"/>
        <pt x="80" y="676" on="0"/>
        <pt x="99" y="694" on="0"/>
        <pt x="125" y="694" on="1"/>
        <pt x="158" y="694" on="1"/>
        <pt x="187" y="694" on="0"/>
        <pt x="202" y="673" on="0"/>
        <pt x="202" y="650" on="1"/>
      </contour>
    </TTGlyph>
    <TTGlyph name="J" xMin="40" yMin="-19" xMax="368" yMax="694">
      <contour>
        <pt x="368" y="147" on="1"/>
        <pt x="368" y="68" on="0"/>
        <pt x="278" y="-19" on="0"/>
        <pt x="203" y="-19" on="1"/>
        <pt x="161" y="-19" on="0"/>
        <pt x="93" y="0" on="0"/>
        <pt x="62" y="15" on="1"/>
        <pt x="49" y="22" on="0"/>
        <pt x="40" y="28" on="0"/>
        <pt x="40" y="36" on="1"/>
        <pt x="40" y="38" on="0"/>
        <pt x="43" y="57" on="0"/>
        <pt x="47" y="80" on="0"/>
        <pt x="51" y="101" on="0"/>
        <pt x="52" y="104" on="1"/>
        <pt x="54" y="110" on="0"/>
        <pt x="58" y="116" on="0"/>
        <pt x="64" y="116" on="1"/>
        <pt x="68" y="116" on="0"/>
        <pt x="72" y="112" on="0"/>
        <pt x="77" y="106" on="1"/>
        <pt x="90" y="91" on="0"/>
        <pt x="118" y="73" on="0"/>
        <pt x="145" y="63" on="0"/>
        <pt x="168" y="60" on="0"/>
        <pt x="175" y="60" on="1"/>
        <pt x="203" y="60" on="0"/>
        <pt x="233" y="84" on="0"/>
        <pt x="247" y="116" on="0"/>
        <pt x="249" y="146" on="0"/>
        <pt x="249" y="153" on="1"/>
        <pt x="249" y="650" on="1"/>
        <pt x="249" y="676" on="0"/>
        <pt x="267" y="694" on="0"/>
        <pt x="293" y="694" on="1"/>
        <pt x="324" y="694" on="1"/>
        <pt x="353" y="694" on="0"/>
        <pt x="368" y="673" on="0"/>
        <pt x="368" y="650" on="1"/>
      </contour>
    </TTGlyph>
    <TTGlyph name="K" xMin="81" yMin="0" xMax="605" yMax="694">
      <contour>
        <pt x="605" y="27" on="1"/>
        <pt x="605" y="7" on="0"/>
        <pt x="587" y="0" on="0"/>
        <pt x="571" y="0" on="1"/>
        <pt x="532" y="0" on="1"/>
        <pt x="513" y="0" on="0"/>
        <pt x="497" y="7" on="0"/>
        <pt x="486" y="23" on="1"/>
        <pt x="289" y="329" on="1"/>
        <pt x="192" y="223" on="1"/>
        <pt x="192" y="44" on="1"/>
        <pt x="192" y="18" on="0"/>
        <pt x="174" y="0" on="0"/>
        <pt x="148" y="0" on="1"/>
        <pt x="126" y="0" on="1"/>
        <pt x="99" y="0" on="0"/>
        <pt x="81" y="19" on="0"/>
        <pt x="81" y="45" on="1"/>
        <pt x="81" y="649" on="1"/>
        <pt x="81" y="676" on="0"/>
        <pt x="100" y="694" on="0"/>
        <pt x="126" y="694" on="1"/>
        <pt x="148" y="694" on="1"/>
        <pt x="177" y="694" on="0"/>
        <pt x="192" y="673" on="0"/>
        <pt x="192" y="650" on="1"/>
        <pt x="192" y="361" on="1"/>
        <pt x="478" y="673" on="1"/>
        <pt x="492" y="689" on="0"/>
        <pt x="515" y="694" on="0"/>
        <pt x="530" y="694" on="1"/>
        <pt x="567" y="694" on="1"/>
        <pt x="578" y="694" on="0"/>
        <pt x="600" y="689" on="0"/>
        <pt x="600" y="675" on="1"/>
        <pt x="600" y="670" on="0"/>
        <pt x="595" y="663" on="0"/>
        <pt x="588" y="655" on="1"/>
        <pt x="361" y="407" on="1"/>
      </contour>
    </TTGlyph>
    <TTGlyph name="L" xMin="81" yMin="0" xMax="473" yMax="694">
      <contour>
        <pt x="203" y="87" on="1"/>
        <pt x="222" y="87" on="0"/>
        <pt x="284" y="88" on="0"/>
        <pt x="350" y="90" on="0"/>
        <pt x="412" y="91" on="0"/>
        <pt x="431" y="91" on="1"/>
        <pt x="447" y="91" on="0"/>
        <pt x="464" y="83" on="0"/>
        <pt x="472" y="70" on="0"/>
        <pt x="473" y="54" on="0"/>
        <pt x="473" y="45" on="1"/>
        <pt x="473" y="22" on="0"/>
        <pt x="459" y="0" on="0"/>
        <pt x="429" y="0" on="1"/>
        <pt x="126" y="0" on="1"/>
        <pt x="99" y="0" on="0"/>
        <pt x="81" y="19" on="0"/>
        <pt x="81" y="45" on="1"/>
        <pt x="81" y="649" on="1"/>
        <pt x="81" y="676" on="0"/>
        <pt x="100" y="694" on="0"/>
        <pt x="126" y="694" on="1"/>
        <pt x="159" y="694" on="1"/>
        <pt x="188" y="694" on="0"/>
        <pt x="203" y="673" on="0"/>
        <pt x="203" y="650" on="1"/>
      </contour>
    </TTGlyph>
    <TTGlyph name="Lambda" xMin="34" yMin="0" xMax="548" yMax="694">
      <contour>
        <pt x="544" y="42" on="1"/>
        <pt x="546" y="37" on="0"/>
        <pt x="548" y="28" on="0"/>
        <pt x="548" y="25" on="1"/>
        <pt x="548" y="16" on="0"/>
        <pt x="539" y="5" on="0"/>
        <pt x="527" y="1" on="0"/>
        <pt x="514" y="0" on="0"/>
        <pt x="509" y="0" on="1"/>
        <pt x="474" y="0" on="1"/>
        <pt x="466" y="0" on="0"/>
        <pt x="449" y="1" on="0"/>
        <pt x="434" y="9" on="0"/>
        <pt x="422" y="25" on="0"/>
        <pt x="418" y="40" on="1"/>
        <pt x="318" y="415" on="1"/>
        <pt x="311" y="440" on="0"/>
        <pt x="299" y="492" on="0"/>
        <pt x="288" y="538" on="0"/>
        <pt x="282" y="574" on="0"/>
        <pt x="281" y="584" on="1"/>
        <pt x="280" y="584" on="1"/>
        <pt x="279" y="573" on="0"/>
        <pt x="273" y="537" on="0"/>
        <pt x="264" y="497" on="0"/>
        <pt x="255" y="457" on="0"/>
        <pt x="251" y="442" on="1"/>
        <pt x="242" y="404" on="0"/>
        <pt x="224" y="329" on="0"/>
        <pt x="213" y="291" on="1"/>
        <pt x="144" y="40" on="1"/>
        <pt x="140" y="25" on="0"/>
        <pt x="128" y="9" on="0"/>
        <pt x="113" y="1" on="0"/>
        <pt x="96" y="0" on="0"/>
        <pt x="88" y="0" on="1"/>
        <pt x="73" y="0" on="1"/>
        <pt x="68" y="0" on="0"/>
        <pt x="55" y="1" on="0"/>
        <pt x="43" y="5" on="0"/>
        <pt x="34" y="16" on="0"/>
        <pt x="34" y="25" on="1"/>
        <pt x="34" y="26" on="0"/>
        <pt x="35" y="31" on="0"/>
        <pt x="38" y="40" on="1"/>
        <pt x="208" y="656" on="1"/>
        <pt x="212" y="670" on="0"/>
        <pt x="224" y="686" on="0"/>
        <pt x="239" y="693" on="0"/>
        <pt x="255" y="694" on="0"/>
        <pt x="263" y="694" on="1"/>
        <pt x="319" y="694" on="1"/>
        <pt x="327" y="694" on="0"/>
        <pt x="343" y="693" on="0"/>
        <pt x="358" y="686" on="0"/>
        <pt x="370" y="670" on="0"/>
        <pt x="374" y="656" on="1"/>
      </contour>
    </TTGlyph>
    <TTGlyph name="M" xMin="81" yMin="0" xMax="754" yMax="694">
      <contour>
        <pt x="587" y="652" on="1"/>
        <pt x="590" y="661" on="0"/>
        <pt x="597" y="676" on="0"/>
        <pt x="609" y="688" on="0"/>
        <pt x="629" y="694" on="0"/>
        <pt x="646" y="694" on="1"/>
        <pt x="710" y="694" on="1"/>
        <pt x="739" y="694" on="0"/>
        <pt x="754" y="673" on="0"/>
        <pt x="754" y="650" on="1"/>
        <pt x="754" y="44" on="1"/>
        <pt x="754" y="18" on="0"/>
        <pt x="736" y="0" on="0"/>
        <pt x="710" y="0" on="1"/>
        <pt x="694" y="0" on="1"/>
        <pt x="665" y="0" on="0"/>
        <pt x="650" y="21" on="0"/>
        <pt x="650" y="44" on="1"/>
        <pt x="650" y="584" on="1"/>
        <pt x="650" y="580" on="0"/>
        <pt x="639" y="541" on="0"/>
        <pt x="623" y="488" on="0"/>
        <pt x="605" y="429" on="0"/>
        <pt x="588" y="377" on="0"/>
        <pt x="576" y="341" on="0"/>
        <pt x="575" y="339" on="1"/>
        <pt x="479" y="61" on="1"/>
        <pt x="470" y="34" on="0"/>
        <pt x="445" y="19" on="0"/>
        <pt x="416" y="19" on="1"/>
        <pt x="397" y="19" on="0"/>
        <pt x="363" y="29" on="0"/>
        <pt x="353" y="58" on="1"/>
        <pt x="263" y="322" on="1"/>
        <pt x="241" y="388" on="0"/>
        <pt x="221" y="454" on="1"/>
        <pt x="217" y="468" on="0"/>
        <pt x="206" y="503" on="0"/>
        <pt x="196" y="539" on="0"/>
        <pt x="188" y="572" on="0"/>
        <pt x="186" y="584" on="1"/>
        <pt x="185" y="584" on="1"/>
        <pt x="185" y="44" on="1"/>
        <pt x="185" y="18" on="0"/>
        <pt x="167" y="0" on="0"/>
        <pt x="141" y="0" on="1"/>
        <pt x="126" y="0" on="1"/>
        <pt x="99" y="0" on="0"/>
        <pt x="81" y="19" on="0"/>
        <pt x="81" y="45" on="1"/>
        <pt x="81" y="649" on="1"/>
        <pt x="81" y="676" on="0"/>
        <pt x="100" y="694" on="0"/>
        <pt x="126" y="694" on="1"/>
        <pt x="188" y="694" on="1"/>
        <pt x="196" y="694" on="0"/>
        <pt x="212" y="693" on="0"/>
        <pt x="228" y="685" on="0"/>
        <pt x="242" y="670" on="0"/>
        <pt x="247" y="655" on="1"/>
        <pt x="337" y="392" on="1"/>
        <pt x="381" y="256" on="1"/>
        <pt x="397" y="205" on="0"/>
        <pt x="414" y="143" on="0"/>
        <pt x="416" y="126" on="1"/>
        <pt x="417" y="126" on="1"/>
        <pt x="419" y="142" on="0"/>
        <pt x="436" y="200" on="0"/>
        <pt x="450" y="248" on="1"/>
        <pt x="490" y="371" on="1"/>
      </contour>
    </TTGlyph>
    <TTGlyph name="N" xMin="81" yMin="0" xMax="596" yMax="694">
      <contour>
        <pt x="450" y="212" on="1"/>
        <pt x="458" y="193" on="0"/>
        <pt x="469" y="166" on="0"/>
        <pt x="478" y="143" on="0"/>
        <pt x="487" y="121" on="0"/>
        <pt x="491" y="106" on="1"/>
        <pt x="492" y="106" on="1"/>
        <pt x="492" y="650" on="1"/>
        <pt x="492" y="676" on="0"/>
        <pt x="510" y="694" on="0"/>
        <pt x="536" y="694" on="1"/>
        <pt x="552" y="694" on="1"/>
        <pt x="581" y="694" on="0"/>
        <pt x="596" y="673" on="0"/>
        <pt x="596" y="650" on="1"/>
        <pt x="596" y="44" on="1"/>
        <pt x="596" y="18" on="0"/>
        <pt x="578" y="0" on="0"/>
        <pt x="552" y="0" on="1"/>
        <pt x="479" y="0" on="1"/>
        <pt x="453" y="0" on="0"/>
        <pt x="427" y="15" on="0"/>
        <pt x="416" y="40" on="1"/>
        <pt x="227" y="482" on="1"/>
        <pt x="219" y="501" on="0"/>
        <pt x="208" y="528" on="0"/>
        <pt x="199" y="551" on="0"/>
        <pt x="191" y="573" on="0"/>
        <pt x="186" y="588" on="1"/>
        <pt x="185" y="588" on="1"/>
        <pt x="185" y="44" on="1"/>
        <pt x="185" y="18" on="0"/>
        <pt x="167" y="0" on="0"/>
        <pt x="141" y="0" on="1"/>
        <pt x="126" y="0" on="1"/>
        <pt x="99" y="0" on="0"/>
        <pt x="81" y="19" on="0"/>
        <pt x="81" y="45" on="1"/>
        <pt x="81" y="649" on="1"/>
        <pt x="81" y="676" on="0"/>
        <pt x="100" y="694" on="0"/>
        <pt x="126" y="694" on="1"/>
        <pt x="198" y="694" on="1"/>
        <pt x="224" y="694" on="0"/>
        <pt x="250" y="679" on="0"/>
        <pt x="261" y="654" on="1"/>
      </contour>
    </TTGlyph>
    <TTGlyph name="O" xMin="53" yMin="-19" xMax="643" yMax="713">
      <contour>
        <pt x="643" y="342" on="1"/>
        <pt x="643" y="269" on="0"/>
        <pt x="612" y="138" on="0"/>
        <pt x="542" y="39" on="0"/>
        <pt x="429" y="-19" on="0"/>
        <pt x="348" y="-19" on="1"/>
        <pt x="267" y="-19" on="0"/>
        <pt x="154" y="39" on="0"/>
        <pt x="84" y="138" on="0"/>
        <pt x="53" y="269" on="0"/>
        <pt x="53" y="342" on="1"/>
        <pt x="53" y="392" on="0"/>
        <pt x="63" y="470" on="0"/>
        <pt x="81" y="533" on="0"/>
        <pt x="105" y="582" on="0"/>
        <pt x="119" y="603" on="1"/>
        <pt x="156" y="657" on="0"/>
        <pt x="276" y="713" on="0"/>
        <pt x="348" y="713" on="1"/>
        <pt x="431" y="713" on="0"/>
        <pt x="543" y="651" on="0"/>
        <pt x="613" y="548" on="0"/>
        <pt x="643" y="414" on="0"/>
      </contour>
      <contour>
        <pt x="348" y="53" on="1"/>
        <pt x="362" y="53" on="0"/>
        <pt x="399" y="60" on="0"/>
        <pt x="439" y="83" on="0"/>
        <pt x="477" y="123" on="0"/>
        <pt x="491" y="156" on="1"/>
        <pt x="512" y="206" on="0"/>
        <pt x="521" y="310" on="0"/>
        <pt x="521" y="358" on="1"/>
        <pt x="521" y="379" on="0"/>
        <pt x="520" y="429" on="0"/>
        <pt x="513" y="480" on="0"/>
        <pt x="499" y="532" on="0"/>
        <pt x="487" y="556" on="1"/>
        <pt x="472" y="585" on="0"/>
        <pt x="434" y="619" on="0"/>
        <pt x="395" y="637" on="0"/>
        <pt x="360" y="643" on="0"/>
        <pt x="348" y="643" on="1"/>
        <pt x="332" y="643" on="0"/>
        <pt x="296" y="636" on="0"/>
        <pt x="260" y="617" on="0"/>
        <pt x="226" y="585" on="0"/>
        <pt x="212" y="561" on="1"/>
        <pt x="198" y="537" on="0"/>
        <pt x="183" y="481" on="0"/>
        <pt x="176" y="426" on="0"/>
        <pt x="175" y="376" on="0"/>
        <pt x="175" y="358" on="1"/>
        <pt x="175" y="298" on="0"/>
        <pt x="186" y="202" on="0"/>
        <pt x="205" y="157" on="1"/>
        <pt x="219" y="124" on="0"/>
        <pt x="256" y="83" on="0"/>
        <pt x="296" y="61" on="0"/>
        <pt x="334" y="53" on="0"/>
      </contour>
    </TTGlyph>
    <TTGlyph name="OE" xMin="28" yMin="-19" xMax="884" yMax="713">
      <contour>
        <pt x="570" y="92" on="1"/>
        <pt x="576" y="92" on="0"/>
        <pt x="611" y="93" on="0"/>
        <pt x="653" y="94" on="0"/>
        <pt x="692" y="94" on="0"/>
        <pt x="700" y="94" on="1"/>
        <pt x="734" y="94" on="0"/>
        <pt x="800" y="96" on="0"/>
        <pt x="834" y="96" on="1"/>
        <pt x="846" y="96" on="0"/>
        <pt x="864" y="95" on="0"/>
        <pt x="877" y="86" on="0"/>
        <pt x="884" y="69" on="0"/>
        <pt x="884" y="52" on="1"/>
        <pt x="884" y="44" on="1"/>
        <pt x="884" y="18" on="0"/>
        <pt x="866" y="0" on="0"/>
        <pt x="840" y="0" on="1"/>
        <pt x="512" y="0" on="1"/>
        <pt x="491" y="0" on="0"/>
        <pt x="456" y="-4" on="0"/>
        <pt x="430" y="-9" on="1"/>
        <pt x="398" y="-14" on="0"/>
        <pt x="363" y="-19" on="0"/>
        <pt x="342" y="-19" on="1"/>
        <pt x="259" y="-19" on="0"/>
        <pt x="140" y="36" on="0"/>
        <pt x="64" y="134" on="0"/>
        <pt x="28" y="266" on="0"/>
        <pt x="28" y="342" on="1"/>
        <pt x="28" y="423" on="0"/>
        <pt x="65" y="563" on="0"/>
        <pt x="113" y="619" on="1"/>
        <pt x="155" y="668" on="0"/>
        <pt x="279" y="713" on="0"/>
        <pt x="342" y="713" on="1"/>
        <pt x="363" y="713" on="0"/>
        <pt x="398" y="708" on="0"/>
        <pt x="430" y="703" on="1"/>
        <pt x="456" y="698" on="0"/>
        <pt x="491" y="694" on="0"/>
        <pt x="512" y="694" on="1"/>
        <pt x="827" y="694" on="1"/>
        <pt x="858" y="694" on="0"/>
        <pt x="871" y="670" on="0"/>
        <pt x="871" y="649" on="1"/>
        <pt x="871" y="632" on="0"/>
        <pt x="864" y="614" on="0"/>
        <pt x="851" y="605" on="0"/>
        <pt x="832" y="604" on="0"/>
        <pt x="820" y="604" on="1"/>
        <pt x="803" y="604" on="0"/>
        <pt x="747" y="605" on="0"/>
        <pt x="686" y="606" on="0"/>
        <pt x="630" y="607" on="0"/>
        <pt x="613" y="607" on="1"/>
        <pt x="570" y="607" on="1"/>
        <pt x="570" y="400" on="1"/>
        <pt x="801" y="400" on="1"/>
        <pt x="809" y="400" on="0"/>
        <pt x="825" y="399" on="0"/>
        <pt x="837" y="391" on="0"/>
        <pt x="845" y="374" on="0"/>
        <pt x="845" y="359" on="1"/>
        <pt x="845" y="344" on="0"/>
        <pt x="837" y="328" on="0"/>
        <pt x="824" y="320" on="0"/>
        <pt x="809" y="319" on="0"/>
        <pt x="801" y="319" on="1"/>
        <pt x="570" y="319" on="1"/>
      </contour>
      <contour>
        <pt x="346" y="45" on="1"/>
        <pt x="384" y="45" on="0"/>
        <pt x="426" y="67" on="0"/>
        <pt x="446" y="111" on="0"/>
        <pt x="449" y="180" on="0"/>
        <pt x="449" y="226" on="1"/>
        <pt x="449" y="256" on="0"/>
        <pt x="450" y="316" on="0"/>
        <pt x="450" y="347" on="1"/>
        <pt x="450" y="429" on="0"/>
        <pt x="449" y="535" on="0"/>
        <pt x="445" y="561" on="1"/>
        <pt x="442" y="581" on="0"/>
        <pt x="433" y="614" on="0"/>
        <pt x="412" y="637" on="0"/>
        <pt x="376" y="649" on="0"/>
        <pt x="346" y="649" on="1"/>
        <pt x="296" y="649" on="0"/>
        <pt x="228" y="613" on="0"/>
        <pt x="184" y="557" on="0"/>
        <pt x="160" y="489" on="0"/>
        <pt x="149" y="424" on="0"/>
        <pt x="147" y="372" on="0"/>
        <pt x="147" y="359" on="1"/>
        <pt x="147" y="303" on="0"/>
        <pt x="163" y="191" on="0"/>
        <pt x="190" y="141" on="1"/>
        <pt x="213" y="97" on="0"/>
        <pt x="293" y="45" on="0"/>
      </contour>
    </TTGlyph>
    <TTGlyph name="Oslash" xMin="53" yMin="-75" xMax="685" yMax="769">
      <contour>
        <pt x="563" y="653" on="1"/>
        <pt x="596" y="629" on="0"/>
        <pt x="643" y="561" on="0"/>
        <pt x="672" y="481" on="0"/>
        <pt x="685" y="390" on="0"/>
        <pt x="685" y="342" on="1"/>
        <pt x="685" y="265" on="0"/>
        <pt x="649" y="133" on="0"/>
        <pt x="572" y="36" on="0"/>
        <pt x="452" y="-19" on="0"/>
        <pt x="369" y="-19" on="1"/>
        <pt x="343" y="-19" on="0"/>
        <pt x="274" y="-10" on="0"/>
        <pt x="236" y="5" on="1"/>
        <pt x="212" y="-42" on="1"/>
        <pt x="202" y="-62" on="0"/>
        <pt x="189" y="-75" on="0"/>
        <pt x="175" y="-75" on="1"/>
        <pt x="165" y="-75" on="0"/>
        <pt x="138" y="-59" on="0"/>
        <pt x="138" y="-41" on="1"/>
        <pt x="138" y="-34" on="0"/>
        <pt x="150" y="-9" on="0"/>
        <pt x="155" y="2" on="1"/>
        <pt x="159" y="8" on="0"/>
        <pt x="171" y="33" on="0"/>
        <pt x="174" y="39" on="1"/>
        <pt x="139" y="64" on="0"/>
        <pt x="93" y="132" on="0"/>
        <pt x="65" y="212" on="0"/>
        <pt x="53" y="299" on="0"/>
        <pt x="53" y="342" on="1"/>
        <pt x="53" y="419" on="0"/>
        <pt x="88" y="555" on="0"/>
        <pt x="165" y="655" on="0"/>
        <pt x="285" y="713" on="0"/>
        <pt x="369" y="713" on="1"/>
        <pt x="391" y="713" on="0"/>
        <pt x="460" y="705" on="0"/>
        <pt x="502" y="688" on="1"/>
        <pt x="532" y="746" on="1"/>
        <pt x="537" y="755" on="0"/>
        <pt x="549" y="769" on="0"/>
        <pt x="563" y="769" on="1"/>
        <pt x="573" y="769" on="0"/>
        <pt x="600" y="753" on="0"/>
        <pt x="600" y="735" on="1"/>
        <pt x="600" y="730" on="0"/>
        <pt x="598" y="724" on="0"/>
        <pt x="593" y="714" on="1"/>
      </contour>
      <contour>
        <pt x="469" y="624" on="1"/>
        <pt x="455" y="632" on="0"/>
        <pt x="403" y="649" on="0"/>
        <pt x="369" y="649" on="1"/>
        <pt x="318" y="649" on="0"/>
        <pt x="248" y="615" on="0"/>
        <pt x="202" y="560" on="0"/>
        <pt x="177" y="492" on="0"/>
        <pt x="166" y="424" on="0"/>
        <pt x="164" y="363" on="0"/>
        <pt x="164" y="343" on="1"/>
        <pt x="164" y="275" on="0"/>
        <pt x="182" y="164" on="0"/>
        <pt x="214" y="118" on="1"/>
      </contour>
      <contour>
        <pt x="269" y="70" on="1"/>
        <pt x="301" y="52" on="0"/>
        <pt x="355" y="45" on="0"/>
        <pt x="369" y="45" on="1"/>
        <pt x="420" y="45" on="0"/>
        <pt x="490" y="78" on="0"/>
        <pt x="536" y="130" on="0"/>
        <pt x="561" y="196" on="0"/>
        <pt x="572" y="262" on="0"/>
        <pt x="574" y="323" on="0"/>
        <pt x="574" y="343" on="1"/>
        <pt x="574" y="372" on="0"/>
        <pt x="571" y="433" on="0"/>
        <pt x="561" y="493" on="0"/>
        <pt x="541" y="550" on="0"/>
        <pt x="523" y="574" on="1"/>
      </contour>
    </TTGlyph>
    <TTGlyph name="P" xMin="81" yMin="0" xMax="554" yMax="694">
      <contour>
        <pt x="203" y="44" on="1"/>
        <pt x="203" y="18" on="0"/>
        <pt x="185" y="0" on="0"/>
        <pt x="159" y="0" on="1"/>
        <pt x="126" y="0" on="1"/>
        <pt x="99" y="0" on="0"/>
        <pt x="81" y="19" on="0"/>
        <pt x="81" y="45" on="1"/>
        <pt x="81" y="649" on="1"/>
        <pt x="81" y="676" on="0"/>
        <pt x="100" y="694" on="0"/>
        <pt x="126" y="694" on="1"/>
        <pt x="332" y="694" on="1"/>
        <pt x="388" y="694" on="0"/>
        <pt x="471" y="664" on="0"/>
        <pt x="527" y="609" on="0"/>
        <pt x="554" y="531" on="0"/>
        <pt x="554" y="484" on="1"/>
        <pt x="554" y="424" on="0"/>
        <pt x="514" y="344" on="0"/>
        <pt x="453" y="297" on="0"/>
        <pt x="377" y="278" on="0"/>
        <pt x="341" y="278" on="1"/>
        <pt x="203" y="278" on="1"/>
      </contour>
      <contour>
        <pt x="200" y="347" on="1"/>
        <pt x="302" y="347" on="1"/>
        <pt x="350" y="347" on="0"/>
        <pt x="405" y="372" on="0"/>
        <pt x="433" y="411" on="0"/>
        <pt x="440" y="459" on="0"/>
        <pt x="440" y="483" on="1"/>
        <pt x="440" y="508" on="0"/>
        <pt x="432" y="557" on="0"/>
        <pt x="404" y="595" on="0"/>
        <pt x="349" y="619" on="0"/>
        <pt x="302" y="619" on="1"/>
        <pt x="200" y="619" on="1"/>
      </contour>
    </TTGlyph>
    <TTGlyph name="Phi" xMin="53" yMin="0" xMax="632" yMax="694">
      <contour>
        <pt x="398" y="587" on="1"/>
        <pt x="465" y="580" on="0"/>
        <pt x="555" y="535" on="0"/>
        <pt x="609" y="469" on="0"/>
        <pt x="632" y="388" on="0"/>
        <pt x="632" y="347" on="1"/>
        <pt x="632" y="305" on="0"/>
        <pt x="608" y="224" on="0"/>
        <pt x="554" y="158" on="0"/>
        <pt x="464" y="113" on="0"/>
        <pt x="398" y="107" on="1"/>
        <pt x="398" y="44" on="1"/>
        <pt x="398" y="18" on="0"/>
        <pt x="380" y="0" on="0"/>
        <pt x="354" y="0" on="1"/>
        <pt x="327" y="0" on="1"/>
        <pt x="300" y="0" on="0"/>
        <pt x="282" y="19" on="0"/>
        <pt x="282" y="45" on="1"/>
        <pt x="282" y="107" on="1"/>
        <pt x="216" y="115" on="0"/>
        <pt x="128" y="161" on="0"/>
        <pt x="75" y="227" on="0"/>
        <pt x="53" y="307" on="0"/>
        <pt x="53" y="347" on="1"/>
        <pt x="53" y="388" on="0"/>
        <pt x="76" y="468" on="0"/>
        <pt x="129" y="534" on="0"/>
        <pt x="217" y="580" on="0"/>
        <pt x="282" y="587" on="1"/>
        <pt x="282" y="649" on="1"/>
        <pt x="282" y="676" on="0"/>
        <pt x="301" y="694" on="0"/>
        <pt x="327" y="694" on="1"/>
        <pt x="354" y="694" on="1"/>
        <pt x="383" y="694" on="0"/>
        <pt x="398" y="673" on="0"/>
        <pt x="398" y="650" on="1"/>
      </contour>
      <contour>
        <pt x="282" y="520" on="1"/>
        <pt x="242" y="511" on="0"/>
        <pt x="197" y="469" on="0"/>
        <pt x="176" y="418" on="0"/>
        <pt x="172" y="366" on="0"/>
        <pt x="172" y="347" on="1"/>
        <pt x="172" y="328" on="0"/>
        <pt x="177" y="276" on="0"/>
        <pt x="198" y="225" on="0"/>
        <pt x="242" y="183" on="0"/>
        <pt x="282" y="174" on="1"/>
      </contour>
      <contour>
        <pt x="398" y="173" on="1"/>
        <pt x="439" y="181" on="0"/>
        <pt x="485" y="222" on="0"/>
        <pt x="508" y="272" on="0"/>
        <pt x="513" y="326" on="0"/>
        <pt x="513" y="347" on="1"/>
        <pt x="513" y="369" on="0"/>
        <pt x="508" y="423" on="0"/>
        <pt x="485" y="473" on="0"/>
        <pt x="439" y="513" on="0"/>
        <pt x="398" y="521" on="1"/>
      </contour>
    </TTGlyph>
    <TTGlyph name="Pi" xMin="81" yMin="0" xMax="596" yMax="691">
      <contour>
        <pt x="596" y="44" on="1"/>
        <pt x="596" y="18" on="0"/>
        <pt x="578" y="0" on="0"/>
        <pt x="552" y="0" on="1"/>
        <pt x="518" y="0" on="1"/>
        <pt x="489" y="0" on="0"/>
        <pt x="474" y="21" on="0"/>
        <pt x="474" y="44" on="1"/>
        <pt x="474" y="610" on="1"/>
        <pt x="203" y="610" on="1"/>
        <pt x="203" y="44" on="1"/>
        <pt x="203" y="18" on="0"/>
        <pt x="185" y="0" on="0"/>
        <pt x="159" y="0" on="1"/>
        <pt x="126" y="0" on="1"/>
        <pt x="99" y="0" on="0"/>
        <pt x="81" y="19" on="0"/>
        <pt x="81" y="45" on="1"/>
        <pt x="81" y="646" on="1"/>
        <pt x="81" y="673" on="0"/>
        <pt x="100" y="691" on="0"/>
        <pt x="126" y="691" on="1"/>
        <pt x="552" y="691" on="1"/>
        <pt x="581" y="691" on="0"/>
        <pt x="596" y="670" on="0"/>
        <pt x="596" y="647" on="1"/>
      </contour>
    </TTGlyph>
    <TTGlyph name="Psi" xMin="53" yMin="0" xMax="685" yMax="694">
      <contour>
        <pt x="424" y="179" on="1"/>
        <pt x="459" y="192" on="0"/>
        <pt x="499" y="248" on="0"/>
        <pt x="518" y="317" on="0"/>
        <pt x="522" y="389" on="0"/>
        <pt x="522" y="417" on="1"/>
        <pt x="522" y="465" on="0"/>
        <pt x="527" y="538" on="0"/>
        <pt x="545" y="589" on="0"/>
        <pt x="581" y="615" on="0"/>
        <pt x="611" y="615" on="1"/>
        <pt x="641" y="615" on="1"/>
        <pt x="646" y="615" on="0"/>
        <pt x="661" y="614" on="0"/>
        <pt x="675" y="608" on="0"/>
        <pt x="685" y="595" on="0"/>
        <pt x="685" y="583" on="1"/>
        <pt x="685" y="580" on="0"/>
        <pt x="683" y="570" on="0"/>
        <pt x="677" y="560" on="0"/>
        <pt x="664" y="552" on="0"/>
        <pt x="653" y="551" on="1"/>
        <pt x="642" y="531" on="0"/>
        <pt x="638" y="461" on="0"/>
        <pt x="638" y="416" on="1"/>
        <pt x="638" y="367" on="0"/>
        <pt x="623" y="267" on="0"/>
        <pt x="577" y="181" on="0"/>
        <pt x="493" y="119" on="0"/>
        <pt x="424" y="108" on="1"/>
        <pt x="424" y="44" on="1"/>
        <pt x="424" y="18" on="0"/>
        <pt x="406" y="0" on="0"/>
        <pt x="380" y="0" on="1"/>
        <pt x="353" y="0" on="1"/>
        <pt x="326" y="0" on="0"/>
        <pt x="308" y="19" on="0"/>
        <pt x="308" y="45" on="1"/>
        <pt x="308" y="109" on="1"/>
        <pt x="256" y="117" on="0"/>
        <pt x="185" y="159" on="0"/>
        <pt x="139" y="215" on="0"/>
        <pt x="114" y="282" on="0"/>
        <pt x="102" y="349" on="0"/>
        <pt x="100" y="411" on="0"/>
        <pt x="100" y="434" on="1"/>
        <pt x="100" y="485" on="0"/>
        <pt x="93" y="537" on="0"/>
        <pt x="85" y="551" on="1"/>
        <pt x="64" y="553" on="0"/>
        <pt x="53" y="576" on="0"/>
        <pt x="53" y="583" on="1"/>
        <pt x="53" y="595" on="0"/>
        <pt x="63" y="608" on="0"/>
        <pt x="78" y="614" on="0"/>
        <pt x="93" y="615" on="0"/>
        <pt x="98" y="615" on="1"/>
        <pt x="127" y="615" on="1"/>
        <pt x="153" y="615" on="0"/>
        <pt x="187" y="596" on="0"/>
        <pt x="208" y="553" on="0"/>
        <pt x="216" y="484" on="0"/>
        <pt x="216" y="434" on="1"/>
        <pt x="216" y="401" on="0"/>
        <pt x="219" y="324" on="0"/>
        <pt x="236" y="252" on="0"/>
        <pt x="274" y="194" on="0"/>
        <pt x="308" y="180" on="1"/>
        <pt x="308" y="649" on="1"/>
        <pt x="308" y="676" on="0"/>
        <pt x="327" y="694" on="0"/>
        <pt x="353" y="694" on="1"/>
        <pt x="380" y="694" on="1"/>
        <pt x="409" y="694" on="0"/>
        <pt x="424" y="673" on="0"/>
        <pt x="424" y="650" on="1"/>
      </contour>
    </TTGlyph>
    <TTGlyph name="Q" xMin="53" yMin="-111" xMax="643" yMax="713">
      <contour>
        <pt x="505" y="-111" on="1"/>
        <pt x="493" y="-111" on="0"/>
        <pt x="480" y="-110" on="0"/>
        <pt x="470" y="-102" on="0"/>
        <pt x="460" y="-88" on="0"/>
        <pt x="451" y="-74" on="1"/>
        <pt x="415" y="-13" on="1"/>
        <pt x="403" y="-15" on="0"/>
        <pt x="386" y="-18" on="0"/>
        <pt x="373" y="-19" on="0"/>
        <pt x="359" y="-19" on="0"/>
        <pt x="348" y="-19" on="1"/>
        <pt x="267" y="-19" on="0"/>
        <pt x="154" y="39" on="0"/>
        <pt x="84" y="138" on="0"/>
        <pt x="53" y="269" on="0"/>
        <pt x="53" y="342" on="1"/>
        <pt x="53" y="392" on="0"/>
        <pt x="63" y="470" on="0"/>
        <pt x="81" y="533" on="0"/>
        <pt x="105" y="582" on="0"/>
        <pt x="119" y="603" on="1"/>
        <pt x="156" y="657" on="0"/>
        <pt x="276" y="713" on="0"/>
        <pt x="348" y="713" on="1"/>
        <pt x="431" y="713" on="0"/>
        <pt x="543" y="651" on="0"/>
        <pt x="613" y="548" on="0"/>
        <pt x="643" y="414" on="0"/>
        <pt x="643" y="342" on="1"/>
        <pt x="643" y="302" on="0"/>
        <pt x="632" y="213" on="0"/>
        <pt x="604" y="129" on="0"/>
        <pt x="556" y="56" on="0"/>
        <pt x="520" y="32" on="1"/>
        <pt x="584" y="-62" on="1"/>
        <pt x="595" y="-79" on="0"/>
        <pt x="598" y="-87" on="0"/>
        <pt x="598" y="-90" on="1"/>
        <pt x="598" y="-106" on="0"/>
        <pt x="576" y="-111" on="0"/>
        <pt x="565" y="-111" on="1"/>
      </contour>
      <contour>
        <pt x="322" y="138" on="1"/>
        <pt x="317" y="146" on="0"/>
        <pt x="305" y="168" on="0"/>
        <pt x="305" y="173" on="1"/>
        <pt x="305" y="189" on="0"/>
        <pt x="328" y="194" on="0"/>
        <pt x="339" y="194" on="1"/>
        <pt x="385" y="194" on="1"/>
        <pt x="400" y="194" on="0"/>
        <pt x="410" y="191" on="0"/>
        <pt x="417" y="182" on="1"/>
        <pt x="467" y="107" on="1"/>
        <pt x="488" y="132" on="0"/>
        <pt x="512" y="197" on="0"/>
        <pt x="522" y="263" on="0"/>
        <pt x="524" y="323" on="0"/>
        <pt x="524" y="343" on="1"/>
        <pt x="524" y="400" on="0"/>
        <pt x="512" y="504" on="0"/>
        <pt x="489" y="552" on="1"/>
        <pt x="467" y="597" on="0"/>
        <pt x="391" y="643" on="0"/>
        <pt x="348" y="643" on="1"/>
        <pt x="306" y="643" on="0"/>
        <pt x="236" y="601" on="0"/>
        <pt x="215" y="566" on="1"/>
        <pt x="185" y="514" on="0"/>
        <pt x="172" y="397" on="0"/>
        <pt x="172" y="343" on="1"/>
        <pt x="172" y="295" on="0"/>
        <pt x="182" y="194" on="0"/>
        <pt x="203" y="149" on="1"/>
        <pt x="217" y="119" on="0"/>
        <pt x="254" y="80" on="0"/>
        <pt x="293" y="59" on="0"/>
        <pt x="332" y="51" on="0"/>
        <pt x="348" y="51" on="1"/>
        <pt x="349" y="51" on="0"/>
        <pt x="356" y="51" on="0"/>
        <pt x="365" y="52" on="0"/>
        <pt x="372" y="54" on="0"/>
        <pt x="372" y="55" on="1"/>
        <pt x="372" y="56" on="0"/>
        <pt x="365" y="68" on="0"/>
        <pt x="356" y="83" on="0"/>
        <pt x="348" y="97" on="0"/>
        <pt x="346" y="99" on="1"/>
      </contour>
    </TTGlyph>
    <TTGlyph name="R" xMin="81" yMin="0" xMax="573" yMax="694">
      <contour>
        <pt x="567" y="37" on="1"/>
        <pt x="571" y="29" on="0"/>
        <pt x="573" y="25" on="0"/>
        <pt x="573" y="22" on="1"/>
        <pt x="573" y="6" on="0"/>
        <pt x="548" y="0" on="0"/>
        <pt x="538" y="0" on="1"/>
        <pt x="496" y="0" on="1"/>
        <pt x="474" y="0" on="0"/>
        <pt x="461" y="8" on="0"/>
        <pt x="453" y="24" on="1"/>
        <pt x="305" y="315" on="1"/>
        <pt x="200" y="315" on="1"/>
        <pt x="200" y="44" on="1"/>
        <pt x="200" y="18" on="0"/>
        <pt x="182" y="0" on="0"/>
        <pt x="156" y="0" on="1"/>
        <pt x="126" y="0" on="1"/>
        <pt x="99" y="0" on="0"/>
        <pt x="81" y="19" on="0"/>
        <pt x="81" y="45" on="1"/>
        <pt x="81" y="649" on="1"/>
        <pt x="81" y="676" on="0"/>
        <pt x="100" y="694" on="0"/>
        <pt x="126" y="694" on="1"/>
        <pt x="325" y="694" on="1"/>
        <pt x="386" y="694" on="0"/>
        <pt x="474" y="664" on="0"/>
        <pt x="532" y="612" on="0"/>
        <pt x="560" y="541" on="0"/>
        <pt x="560" y="500" on="1"/>
        <pt x="560" y="458" on="0"/>
        <pt x="534" y="398" on="0"/>
        <pt x="493" y="356" on="0"/>
        <pt x="442" y="331" on="0"/>
        <pt x="417" y="324" on="1"/>
      </contour>
      <contour>
        <pt x="310" y="379" on="1"/>
        <pt x="355" y="379" on="0"/>
        <pt x="408" y="399" on="0"/>
        <pt x="437" y="432" on="0"/>
        <pt x="446" y="476" on="0"/>
        <pt x="446" y="499" on="1"/>
        <pt x="446" y="523" on="0"/>
        <pt x="437" y="567" on="0"/>
        <pt x="408" y="600" on="0"/>
        <pt x="355" y="619" on="0"/>
        <pt x="311" y="619" on="1"/>
        <pt x="200" y="619" on="1"/>
        <pt x="200" y="379" on="1"/>
      </contour>
    </TTGlyph>
    <TTGlyph name="S" xMin="42" yMin="-19" xMax="474" yMax="713">
      <contour>
        <pt x="474" y="195" on="1"/>
        <pt x="474" y="149" on="0"/>
        <pt x="449" y="71" on="0"/>
        <pt x="397" y="14" on="0"/>
        <pt x="318" y="-19" on="0"/>
        <pt x="263" y="-19" on="1"/>
        <pt x="218" y="-19" on="0"/>
        <pt x="122" y="5" on="0"/>
        <pt x="71" y="36" on="1"/>
        <pt x="50" y="49" on="0"/>
        <pt x="42" y="56" on="0"/>
        <pt x="42" y="63" on="1"/>
        <pt x="42" y="67" on="0"/>
        <pt x="45" y="87" on="0"/>
        <pt x="50" y="111" on="0"/>
        <pt x="54" y="132" on="0"/>
        <pt x="55" y="137" on="1"/>
        <pt x="56" y="141" on="0"/>
        <pt x="60" y="151" on="0"/>
        <pt x="67" y="151" on="1"/>
        <pt x="69" y="151" on="0"/>
        <pt x="75" y="149" on="0"/>
        <pt x="83" y="141" on="1"/>
        <pt x="110" y="119" on="0"/>
        <pt x="163" y="92" on="0"/>
        <pt x="211" y="78" on="0"/>
        <pt x="250" y="74" on="0"/>
        <pt x="262" y="74" on="1"/>
        <pt x="295" y="74" on="0"/>
        <pt x="337" y="95" on="0"/>
        <pt x="361" y="127" on="0"/>
        <pt x="369" y="166" on="0"/>
        <pt x="369" y="184" on="1"/>
        <pt x="369" y="206" on="0"/>
        <pt x="357" y="241" on="0"/>
        <pt x="337" y="268" on="0"/>
        <pt x="313" y="286" on="0"/>
        <pt x="302" y="290" on="1"/>
        <pt x="299" y="291" on="0"/>
        <pt x="284" y="295" on="0"/>
        <pt x="265" y="300" on="0"/>
        <pt x="245" y="306" on="0"/>
        <pt x="237" y="308" on="1"/>
        <pt x="216" y="313" on="0"/>
        <pt x="182" y="323" on="0"/>
        <pt x="151" y="338" on="0"/>
        <pt x="121" y="360" on="0"/>
        <pt x="104" y="378" on="1"/>
        <pt x="102" y="380" on="0"/>
        <pt x="86" y="400" on="0"/>
        <pt x="68" y="434" on="0"/>
        <pt x="53" y="482" on="0"/>
        <pt x="53" y="512" on="1"/>
        <pt x="53" y="552" on="0"/>
        <pt x="76" y="625" on="0"/>
        <pt x="126" y="680" on="0"/>
        <pt x="207" y="713" on="0"/>
        <pt x="265" y="713" on="1"/>
        <pt x="322" y="713" on="0"/>
        <pt x="392" y="688" on="0"/>
        <pt x="418" y="673" on="1"/>
        <pt x="435" y="663" on="0"/>
        <pt x="442" y="657" on="0"/>
        <pt x="442" y="651" on="1"/>
        <pt x="442" y="647" on="0"/>
        <pt x="439" y="627" on="0"/>
        <pt x="434" y="603" on="0"/>
        <pt x="430" y="582" on="0"/>
        <pt x="429" y="577" on="1"/>
        <pt x="428" y="573" on="0"/>
        <pt x="424" y="563" on="0"/>
        <pt x="417" y="563" on="1"/>
        <pt x="412" y="563" on="0"/>
        <pt x="405" y="570" on="1"/>
        <pt x="382" y="591" on="0"/>
        <pt x="319" y="626" on="0"/>
        <pt x="266" y="626" on="1"/>
        <pt x="243" y="626" on="0"/>
        <pt x="203" y="615" on="0"/>
        <pt x="174" y="591" on="0"/>
        <pt x="158" y="554" on="0"/>
        <pt x="158" y="527" on="1"/>
        <pt x="158" y="511" on="0"/>
        <pt x="166" y="487" on="0"/>
        <pt x="176" y="469" on="0"/>
        <pt x="187" y="456" on="0"/>
        <pt x="191" y="452" on="1"/>
        <pt x="197" y="446" on="0"/>
        <pt x="210" y="438" on="0"/>
        <pt x="230" y="430" on="0"/>
        <pt x="259" y="422" on="0"/>
        <pt x="282" y="416" on="1"/>
        <pt x="322" y="406" on="0"/>
        <pt x="389" y="379" on="0"/>
        <pt x="420" y="343" on="1"/>
        <pt x="439" y="321" on="0"/>
        <pt x="460" y="278" on="0"/>
        <pt x="471" y="240" on="0"/>
        <pt x="474" y="207" on="0"/>
      </contour>
    </TTGlyph>
    <TTGlyph name="Sigma" xMin="53" yMin="0" xMax="632" yMax="694">
      <contour>
        <pt x="226" y="93" on="1"/>
        <pt x="288" y="93" on="1"/>
        <pt x="359" y="93" on="0"/>
        <pt x="501" y="96" on="0"/>
        <pt x="572" y="96" on="1"/>
        <pt x="589" y="96" on="0"/>
        <pt x="611" y="95" on="0"/>
        <pt x="626" y="86" on="0"/>
        <pt x="632" y="69" on="0"/>
        <pt x="632" y="52" on="1"/>
        <pt x="632" y="44" on="1"/>
        <pt x="632" y="18" on="0"/>
        <pt x="614" y="0" on="0"/>
        <pt x="588" y="0" on="1"/>
        <pt x="98" y="0" on="1"/>
        <pt x="93" y="0" on="0"/>
        <pt x="78" y="1" on="0"/>
        <pt x="63" y="7" on="0"/>
        <pt x="53" y="20" on="0"/>
        <pt x="53" y="32" on="1"/>
        <pt x="53" y="39" on="0"/>
        <pt x="59" y="50" on="0"/>
        <pt x="64" y="58" on="1"/>
        <pt x="263" y="337" on="1"/>
        <pt x="62" y="617" on="1"/>
        <pt x="55" y="627" on="0"/>
        <pt x="53" y="637" on="0"/>
        <pt x="53" y="651" on="1"/>
        <pt x="53" y="681" on="0"/>
        <pt x="78" y="694" on="0"/>
        <pt x="98" y="694" on="1"/>
        <pt x="588" y="694" on="1"/>
        <pt x="619" y="694" on="0"/>
        <pt x="632" y="670" on="0"/>
        <pt x="632" y="649" on="1"/>
        <pt x="632" y="632" on="0"/>
        <pt x="626" y="614" on="0"/>
        <pt x="611" y="605" on="0"/>
        <pt x="589" y="604" on="0"/>
        <pt x="572" y="604" on="1"/>
        <pt x="548" y="604" on="0"/>
        <pt x="469" y="605" on="0"/>
        <pt x="383" y="606" on="0"/>
        <pt x="304" y="607" on="0"/>
        <pt x="280" y="607" on="1"/>
        <pt x="220" y="607" on="1"/>
        <pt x="389" y="372" on="1"/>
        <pt x="395" y="364" on="0"/>
        <pt x="399" y="353" on="0"/>
        <pt x="399" y="347" on="1"/>
        <pt x="399" y="339" on="0"/>
        <pt x="396" y="333" on="0"/>
        <pt x="388" y="322" on="1"/>
      </contour>
    </TTGlyph>
    <TTGlyph name="T" xMin="34" yMin="0" xMax="609" yMax="688">
      <contour>
        <pt x="383" y="44" on="1"/>
        <pt x="383" y="18" on="0"/>
        <pt x="365" y="0" on="0"/>
        <pt x="339" y="0" on="1"/>
        <pt x="306" y="0" on="1"/>
        <pt x="279" y="0" on="0"/>
        <pt x="261" y="19" on="0"/>
        <pt x="261" y="45" on="1"/>
        <pt x="261" y="601" on="1"/>
        <pt x="257" y="601" on="0"/>
        <pt x="228" y="601" on="0"/>
        <pt x="188" y="600" on="0"/>
        <pt x="145" y="599" on="0"/>
        <pt x="107" y="598" on="0"/>
        <pt x="82" y="598" on="0"/>
        <pt x="81" y="598" on="1"/>
        <pt x="55" y="598" on="0"/>
        <pt x="34" y="614" on="0"/>
        <pt x="34" y="643" on="1"/>
        <pt x="34" y="670" on="0"/>
        <pt x="53" y="688" on="0"/>
        <pt x="79" y="688" on="1"/>
        <pt x="565" y="688" on="1"/>
        <pt x="596" y="688" on="0"/>
        <pt x="609" y="664" on="0"/>
        <pt x="609" y="643" on="1"/>
        <pt x="609" y="614" on="0"/>
        <pt x="589" y="598" on="0"/>
        <pt x="563" y="598" on="1"/>
        <pt x="548" y="598" on="0"/>
        <pt x="499" y="599" on="0"/>
        <pt x="447" y="600" on="0"/>
        <pt x="398" y="601" on="0"/>
        <pt x="383" y="601" on="1"/>
      </contour>
    </TTGlyph>
    <TTGlyph name="Theta" xMin="53" yMin="-19" xMax="685" yMax="713">
      <contour>
        <pt x="685" y="342" on="1"/>
        <pt x="685" y="265" on="0"/>
        <pt x="649" y="133" on="0"/>
        <pt x="572" y="36" on="0"/>
        <pt x="452" y="-19" on="0"/>
        <pt x="369" y="-19" on="1"/>
        <pt x="285" y="-19" on="0"/>
        <pt x="166" y="36" on="0"/>
        <pt x="89" y="133" on="0"/>
        <pt x="53" y="265" on="0"/>
        <pt x="53" y="342" on="1"/>
        <pt x="53" y="419" on="0"/>
        <pt x="88" y="555" on="0"/>
        <pt x="165" y="655" on="0"/>
        <pt x="285" y="713" on="0"/>
        <pt x="369" y="713" on="1"/>
        <pt x="454" y="713" on="0"/>
        <pt x="574" y="655" on="0"/>
        <pt x="650" y="555" on="0"/>
        <pt x="685" y="420" on="0"/>
      </contour>
      <contour>
        <pt x="369" y="48" on="1"/>
        <pt x="419" y="48" on="0"/>
        <pt x="488" y="83" on="0"/>
        <pt x="532" y="137" on="0"/>
        <pt x="556" y="205" on="0"/>
        <pt x="567" y="270" on="0"/>
        <pt x="569" y="327" on="0"/>
        <pt x="569" y="343" on="1"/>
        <pt x="569" y="362" on="0"/>
        <pt x="567" y="413" on="0"/>
        <pt x="560" y="468" on="0"/>
        <pt x="545" y="525" on="0"/>
        <pt x="531" y="550" on="1"/>
        <pt x="501" y="606" on="0"/>
        <pt x="413" y="649" on="0"/>
        <pt x="369" y="649" on="1"/>
        <pt x="354" y="649" on="0"/>
        <pt x="312" y="642" on="0"/>
        <pt x="267" y="621" on="0"/>
        <pt x="222" y="580" on="0"/>
        <pt x="204" y="546" on="1"/>
        <pt x="191" y="520" on="0"/>
        <pt x="177" y="462" on="0"/>
        <pt x="170" y="407" on="0"/>
        <pt x="169" y="359" on="0"/>
        <pt x="169" y="343" on="1"/>
        <pt x="169" y="327" on="0"/>
        <pt x="171" y="270" on="0"/>
        <pt x="182" y="205" on="0"/>
        <pt x="206" y="137" on="0"/>
        <pt x="250" y="83" on="0"/>
        <pt x="319" y="48" on="0"/>
      </contour>
      <contour>
        <pt x="515" y="338" on="1"/>
        <pt x="515" y="311" on="0"/>
        <pt x="495" y="293" on="0"/>
        <pt x="468" y="293" on="1"/>
        <pt x="270" y="293" on="1"/>
        <pt x="242" y="293" on="0"/>
        <pt x="223" y="312" on="0"/>
        <pt x="223" y="338" on="1"/>
        <pt x="223" y="359" on="1"/>
        <pt x="223" y="386" on="0"/>
        <pt x="243" y="404" on="0"/>
        <pt x="270" y="404" on="1"/>
        <pt x="468" y="404" on="1"/>
        <pt x="496" y="404" on="0"/>
        <pt x="515" y="385" on="0"/>
        <pt x="515" y="359" on="1"/>
      </contour>
    </TTGlyph>
    <TTGlyph name="U" xMin="81" yMin="-19" xMax="575" yMax="694">
      <contour>
        <pt x="575" y="228" on="1"/>
        <pt x="575" y="177" on="0"/>
        <pt x="546" y="87" on="0"/>
        <pt x="486" y="20" on="0"/>
        <pt x="393" y="-19" on="0"/>
        <pt x="330" y="-19" on="1"/>
        <pt x="267" y="-19" on="0"/>
        <pt x="173" y="19" on="0"/>
        <pt x="112" y="85" on="0"/>
        <pt x="81" y="176" on="0"/>
        <pt x="81" y="228" on="1"/>
        <pt x="81" y="649" on="1"/>
        <pt x="81" y="676" on="0"/>
        <pt x="100" y="694" on="0"/>
        <pt x="126" y="694" on="1"/>
        <pt x="159" y="694" on="1"/>
        <pt x="188" y="694" on="0"/>
        <pt x="203" y="673" on="0"/>
        <pt x="203" y="650" on="1"/>
        <pt x="203" y="227" on="1"/>
        <pt x="203" y="206" on="0"/>
        <pt x="209" y="147" on="0"/>
        <pt x="234" y="93" on="0"/>
        <pt x="286" y="56" on="0"/>
        <pt x="331" y="56" on="1"/>
        <pt x="378" y="56" on="0"/>
        <pt x="432" y="94" on="0"/>
        <pt x="458" y="148" on="0"/>
        <pt x="464" y="207" on="0"/>
        <pt x="464" y="228" on="1"/>
        <pt x="464" y="650" on="1"/>
        <pt x="464" y="676" on="0"/>
        <pt x="482" y="694" on="0"/>
        <pt x="508" y="694" on="1"/>
        <pt x="531" y="694" on="1"/>
        <pt x="560" y="694" on="0"/>
        <pt x="575" y="673" on="0"/>
        <pt x="575" y="650" on="1"/>
      </contour>
    </TTGlyph>
    <TTGlyph name="Upsilon" xMin="53" yMin="0" xMax="685" yMax="713">
      <contour>
        <pt x="430" y="44" on="1"/>
        <pt x="430" y="18" on="0"/>
        <pt x="412" y="0" on="0"/>
        <pt x="386" y="0" on="1"/>
        <pt x="353" y="0" on="1"/>
        <pt x="326" y="0" on="0"/>
        <pt x="308" y="19" on="0"/>
        <pt x="308" y="45" on="1"/>
        <pt x="308" y="397" on="1"/>
        <pt x="308" y="420" on="0"/>
        <pt x="305" y="496" on="0"/>
        <pt x="289" y="568" on="0"/>
        <pt x="253" y="621" on="0"/>
        <pt x="220" y="621" on="1"/>
        <pt x="194" y="621" on="0"/>
        <pt x="166" y="583" on="0"/>
        <pt x="164" y="560" on="1"/>
        <pt x="163" y="546" on="0"/>
        <pt x="155" y="531" on="0"/>
        <pt x="142" y="524" on="0"/>
        <pt x="127" y="523" on="0"/>
        <pt x="118" y="523" on="1"/>
        <pt x="99" y="523" on="1"/>
        <pt x="93" y="523" on="0"/>
        <pt x="77" y="524" on="0"/>
        <pt x="63" y="531" on="0"/>
        <pt x="53" y="546" on="0"/>
        <pt x="53" y="559" on="1"/>
        <pt x="53" y="587" on="0"/>
        <pt x="77" y="642" on="0"/>
        <pt x="121" y="686" on="0"/>
        <pt x="182" y="713" on="0"/>
        <pt x="219" y="713" on="1"/>
        <pt x="285" y="713" on="0"/>
        <pt x="354" y="620" on="0"/>
        <pt x="368" y="544" on="1"/>
        <pt x="369" y="544" on="1"/>
        <pt x="376" y="579" on="0"/>
        <pt x="398" y="640" on="0"/>
        <pt x="434" y="686" on="0"/>
        <pt x="484" y="713" on="0"/>
        <pt x="519" y="713" on="1"/>
        <pt x="556" y="713" on="0"/>
        <pt x="617" y="686" on="0"/>
        <pt x="661" y="642" on="0"/>
        <pt x="685" y="587" on="0"/>
        <pt x="685" y="559" on="1"/>
        <pt x="685" y="546" on="0"/>
        <pt x="675" y="531" on="0"/>
        <pt x="661" y="524" on="0"/>
        <pt x="645" y="523" on="0"/>
        <pt x="639" y="523" on="1"/>
        <pt x="620" y="523" on="1"/>
        <pt x="596" y="523" on="0"/>
        <pt x="576" y="537" on="0"/>
        <pt x="574" y="561" on="1"/>
        <pt x="573" y="571" on="0"/>
        <pt x="566" y="592" on="0"/>
        <pt x="552" y="610" on="0"/>
        <pt x="532" y="621" on="0"/>
        <pt x="518" y="621" on="1"/>
        <pt x="485" y="621" on="0"/>
        <pt x="449" y="568" on="0"/>
        <pt x="433" y="496" on="0"/>
        <pt x="430" y="420" on="0"/>
        <pt x="430" y="397" on="1"/>
      </contour>
    </TTGlyph>
    <TTGlyph name="V" xMin="23" yMin="0" xMax="612" yMax="694">
      <contour>
        <pt x="406" y="39" on="1"/>
        <pt x="401" y="24" on="0"/>
        <pt x="387" y="9" on="0"/>
        <pt x="371" y="1" on="0"/>
        <pt x="355" y="0" on="0"/>
        <pt x="348" y="0" on="1"/>
        <pt x="287" y="0" on="1"/>
        <pt x="271" y="0" on="0"/>
        <pt x="239" y="10" on="0"/>
        <pt x="229" y="40" on="1"/>
        <pt x="28" y="650" on="1"/>
        <pt x="24" y="661" on="0"/>
        <pt x="23" y="667" on="0"/>
        <pt x="23" y="669" on="1"/>
        <pt x="23" y="688" on="0"/>
        <pt x="48" y="694" on="0"/>
        <pt x="60" y="694" on="1"/>
        <pt x="94" y="694" on="1"/>
        <pt x="109" y="694" on="0"/>
        <pt x="142" y="684" on="0"/>
        <pt x="152" y="655" on="1"/>
        <pt x="267" y="303" on="1"/>
        <pt x="273" y="286" on="0"/>
        <pt x="290" y="226" on="0"/>
        <pt x="298" y="200" on="1"/>
        <pt x="306" y="177" on="0"/>
        <pt x="322" y="121" on="0"/>
        <pt x="324" y="106" on="1"/>
        <pt x="325" y="106" on="1"/>
        <pt x="328" y="124" on="0"/>
        <pt x="345" y="184" on="0"/>
        <pt x="365" y="250" on="0"/>
        <pt x="387" y="316" on="0"/>
        <pt x="395" y="341" on="1"/>
        <pt x="498" y="654" on="1"/>
        <pt x="507" y="682" on="0"/>
        <pt x="534" y="694" on="0"/>
        <pt x="556" y="694" on="1"/>
        <pt x="575" y="694" on="1"/>
        <pt x="587" y="694" on="0"/>
        <pt x="612" y="688" on="0"/>
        <pt x="612" y="669" on="1"/>
        <pt x="612" y="667" on="0"/>
        <pt x="611" y="661" on="0"/>
        <pt x="607" y="650" on="1"/>
      </contour>
    </TTGlyph>
    <TTGlyph name="W" xMin="20" yMin="0" xMax="879" yMax="694">
      <contour>
        <pt x="728" y="39" on="1"/>
        <pt x="725" y="24" on="0"/>
        <pt x="713" y="9" on="0"/>
        <pt x="698" y="1" on="0"/>
        <pt x="682" y="0" on="0"/>
        <pt x="674" y="0" on="1"/>
        <pt x="626" y="0" on="1"/>
        <pt x="618" y="0" on="0"/>
        <pt x="601" y="1" on="0"/>
        <pt x="587" y="9" on="0"/>
        <pt x="575" y="26" on="0"/>
        <pt x="571" y="41" on="1"/>
        <pt x="494" y="365" on="1"/>
        <pt x="488" y="392" on="0"/>
        <pt x="474" y="451" on="0"/>
        <pt x="461" y="510" on="0"/>
        <pt x="450" y="565" on="0"/>
        <pt x="447" y="587" on="1"/>
        <pt x="446" y="587" on="1"/>
        <pt x="443" y="567" on="0"/>
        <pt x="429" y="496" on="0"/>
        <pt x="414" y="426" on="0"/>
        <pt x="401" y="372" on="0"/>
        <pt x="400" y="368" on="1"/>
        <pt x="323" y="43" on="1"/>
        <pt x="319" y="27" on="0"/>
        <pt x="307" y="9" on="0"/>
        <pt x="293" y="1" on="0"/>
        <pt x="276" y="0" on="0"/>
        <pt x="268" y="0" on="1"/>
        <pt x="225" y="0" on="1"/>
        <pt x="218" y="0" on="0"/>
        <pt x="201" y="1" on="0"/>
        <pt x="186" y="9" on="0"/>
        <pt x="174" y="24" on="0"/>
        <pt x="171" y="39" on="1"/>
        <pt x="23" y="654" on="1"/>
        <pt x="21" y="662" on="0"/>
        <pt x="20" y="666" on="0"/>
        <pt x="20" y="668" on="1"/>
        <pt x="20" y="678" on="0"/>
        <pt x="29" y="688" on="0"/>
        <pt x="41" y="693" on="0"/>
        <pt x="54" y="694" on="0"/>
        <pt x="59" y="694" on="1"/>
        <pt x="80" y="694" on="1"/>
        <pt x="87" y="694" on="0"/>
        <pt x="103" y="693" on="0"/>
        <pt x="118" y="686" on="0"/>
        <pt x="131" y="670" on="0"/>
        <pt x="134" y="656" on="1"/>
        <pt x="217" y="304" on="1"/>
        <pt x="222" y="282" on="0"/>
        <pt x="234" y="229" on="0"/>
        <pt x="245" y="176" on="0"/>
        <pt x="254" y="127" on="0"/>
        <pt x="255" y="109" on="1"/>
        <pt x="256" y="109" on="1"/>
        <pt x="257" y="121" on="0"/>
        <pt x="267" y="176" on="0"/>
        <pt x="282" y="247" on="0"/>
        <pt x="300" y="328" on="0"/>
        <pt x="309" y="366" on="1"/>
        <pt x="377" y="654" on="1"/>
        <pt x="384" y="684" on="0"/>
        <pt x="416" y="694" on="0"/>
        <pt x="432" y="694" on="1"/>
        <pt x="475" y="694" on="1"/>
        <pt x="482" y="694" on="0"/>
        <pt x="498" y="693" on="0"/>
        <pt x="513" y="685" on="0"/>
        <pt x="526" y="670" on="0"/>
        <pt x="529" y="655" on="1"/>
        <pt x="608" y="322" on="1"/>
        <pt x="614" y="296" on="0"/>
        <pt x="627" y="239" on="0"/>
        <pt x="640" y="182" on="0"/>
        <pt x="650" y="129" on="0"/>
        <pt x="653" y="107" on="1"/>
        <pt x="654" y="107" on="1"/>
        <pt x="656" y="127" on="0"/>
        <pt x="667" y="183" on="0"/>
        <pt x="680" y="244" on="0"/>
        <pt x="694" y="304" on="0"/>
        <pt x="700" y="327" on="1"/>
        <pt x="778" y="656" on="1"/>
        <pt x="781" y="670" on="0"/>
        <pt x="794" y="686" on="0"/>
        <pt x="810" y="693" on="0"/>
        <pt x="827" y="694" on="0"/>
        <pt x="836" y="694" on="1"/>
        <pt x="843" y="694" on="0"/>
        <pt x="858" y="693" on="0"/>
        <pt x="871" y="688" on="0"/>
        <pt x="879" y="678" on="0"/>
        <pt x="879" y="668" on="1"/>
        <pt x="879" y="666" on="0"/>
        <pt x="878" y="662" on="0"/>
        <pt x="876" y="654" on="1"/>
      </contour>
    </TTGlyph>
    <TTGlyph name="X" xMin="31" yMin="0" xMax="603" yMax="694">
      <contour>
        <pt x="603" y="27" on="1"/>
        <pt x="603" y="7" on="0"/>
        <pt x="586" y="0" on="0"/>
        <pt x="570" y="0" on="1"/>
        <pt x="514" y="0" on="1"/>
        <pt x="494" y="0" on="0"/>
        <pt x="479" y="7" on="0"/>
        <pt x="469" y="22" on="1"/>
        <pt x="311" y="274" on="1"/>
        <pt x="158" y="22" on="1"/>
        <pt x="148" y="5" on="0"/>
        <pt x="130" y="0" on="0"/>
        <pt x="113" y="0" on="1"/>
        <pt x="65" y="0" on="1"/>
        <pt x="53" y="0" on="0"/>
        <pt x="31" y="5" on="0"/>
        <pt x="31" y="21" on="1"/>
        <pt x="31" y="24" on="0"/>
        <pt x="33" y="31" on="0"/>
        <pt x="39" y="40" on="1"/>
        <pt x="252" y="367" on="1"/>
        <pt x="54" y="654" on="1"/>
        <pt x="49" y="662" on="0"/>
        <pt x="45" y="669" on="0"/>
        <pt x="45" y="674" on="1"/>
        <pt x="45" y="689" on="0"/>
        <pt x="68" y="694" on="0"/>
        <pt x="79" y="694" on="1"/>
        <pt x="135" y="694" on="1"/>
        <pt x="155" y="694" on="0"/>
        <pt x="170" y="687" on="0"/>
        <pt x="179" y="673" on="1"/>
        <pt x="311" y="471" on="1"/>
        <pt x="439" y="676" on="1"/>
        <pt x="447" y="690" on="0"/>
        <pt x="469" y="694" on="0"/>
        <pt x="482" y="694" on="1"/>
        <pt x="531" y="694" on="1"/>
        <pt x="542" y="694" on="0"/>
        <pt x="565" y="689" on="0"/>
        <pt x="565" y="673" on="1"/>
        <pt x="565" y="669" on="0"/>
        <pt x="562" y="664" on="0"/>
        <pt x="557" y="656" on="1"/>
        <pt x="370" y="367" on="1"/>
      </contour>
    </TTGlyph>
    <TTGlyph name="Xi" xMin="40" yMin="0" xMax="592" yMax="688">
      <contour>
        <pt x="587" y="630" on="1"/>
        <pt x="587" y="614" on="0"/>
        <pt x="581" y="596" on="0"/>
        <pt x="566" y="587" on="0"/>
        <pt x="544" y="586" on="0"/>
        <pt x="527" y="586" on="1"/>
        <pt x="525" y="586" on="0"/>
        <pt x="496" y="586" on="0"/>
        <pt x="455" y="587" on="0"/>
        <pt x="407" y="587" on="0"/>
        <pt x="361" y="588" on="0"/>
        <pt x="325" y="588" on="0"/>
        <pt x="316" y="588" on="1"/>
        <pt x="308" y="588" on="0"/>
        <pt x="272" y="588" on="0"/>
        <pt x="228" y="587" on="0"/>
        <pt x="180" y="587" on="0"/>
        <pt x="138" y="586" on="0"/>
        <pt x="108" y="586" on="0"/>
        <pt x="105" y="586" on="1"/>
        <pt x="89" y="586" on="0"/>
        <pt x="66" y="587" on="0"/>
        <pt x="51" y="596" on="0"/>
        <pt x="45" y="614" on="0"/>
        <pt x="45" y="630" on="1"/>
        <pt x="45" y="643" on="1"/>
        <pt x="45" y="670" on="0"/>
        <pt x="64" y="688" on="0"/>
        <pt x="90" y="688" on="1"/>
        <pt x="543" y="688" on="1"/>
        <pt x="572" y="688" on="0"/>
        <pt x="587" y="667" on="0"/>
        <pt x="587" y="644" on="1"/>
      </contour>
      <contour>
        <pt x="40" y="58" on="1"/>
        <pt x="40" y="75" on="0"/>
        <pt x="46" y="92" on="0"/>
        <pt x="61" y="101" on="0"/>
        <pt x="84" y="102" on="0"/>
        <pt x="101" y="102" on="1"/>
        <pt x="104" y="102" on="0"/>
        <pt x="133" y="102" on="0"/>
        <pt x="175" y="101" on="0"/>
        <pt x="224" y="101" on="0"/>
        <pt x="270" y="100" on="0"/>
        <pt x="307" y="100" on="0"/>
        <pt x="316" y="100" on="1"/>
        <pt x="324" y="100" on="0"/>
        <pt x="359" y="100" on="0"/>
        <pt x="405" y="101" on="0"/>
        <pt x="455" y="101" on="0"/>
        <pt x="498" y="102" on="0"/>
        <pt x="528" y="102" on="0"/>
        <pt x="531" y="102" on="1"/>
        <pt x="548" y="102" on="0"/>
        <pt x="571" y="101" on="0"/>
        <pt x="586" y="92" on="0"/>
        <pt x="592" y="75" on="0"/>
        <pt x="592" y="58" on="1"/>
        <pt x="592" y="44" on="1"/>
        <pt x="592" y="18" on="0"/>
        <pt x="574" y="0" on="0"/>
        <pt x="548" y="0" on="1"/>
        <pt x="85" y="0" on="1"/>
        <pt x="58" y="0" on="0"/>
        <pt x="40" y="19" on="0"/>
        <pt x="40" y="45" on="1"/>
      </contour>
      <contour>
        <pt x="482" y="408" on="1"/>
        <pt x="511" y="408" on="0"/>
        <pt x="526" y="387" on="0"/>
        <pt x="526" y="364" on="1"/>
        <pt x="526" y="352" on="1"/>
        <pt x="526" y="326" on="0"/>
        <pt x="508" y="308" on="0"/>
        <pt x="482" y="308" on="1"/>
        <pt x="150" y="308" on="1"/>
        <pt x="121" y="308" on="0"/>
        <pt x="106" y="329" on="0"/>
        <pt x="106" y="352" on="1"/>
        <pt x="106" y="363" on="1"/>
        <pt x="106" y="390" on="0"/>
        <pt x="125" y="408" on="0"/>
        <pt x="151" y="408" on="1"/>
      </contour>
    </TTGlyph>
    <TTGlyph name="Y" xMin="19" yMin="0" xMax="616" yMax="694">
      <contour>
        <pt x="377" y="277" on="1"/>
        <pt x="377" y="43" on="1"/>
        <pt x="377" y="14" on="0"/>
        <pt x="356" y="0" on="0"/>
        <pt x="333" y="0" on="1"/>
        <pt x="302" y="0" on="1"/>
        <pt x="276" y="0" on="0"/>
        <pt x="258" y="18" on="0"/>
        <pt x="258" y="44" on="1"/>
        <pt x="258" y="278" on="1"/>
        <pt x="25" y="657" on="1"/>
        <pt x="23" y="659" on="0"/>
        <pt x="19" y="668" on="0"/>
        <pt x="19" y="673" on="1"/>
        <pt x="19" y="689" on="0"/>
        <pt x="43" y="694" on="0"/>
        <pt x="54" y="694" on="1"/>
        <pt x="95" y="694" on="1"/>
        <pt x="109" y="694" on="0"/>
        <pt x="148" y="685" on="0"/>
        <pt x="165" y="658" on="1"/>
        <pt x="278" y="469" on="1"/>
        <pt x="288" y="453" on="0"/>
        <pt x="302" y="428" on="0"/>
        <pt x="313" y="409" on="0"/>
        <pt x="322" y="391" on="0"/>
        <pt x="326" y="380" on="1"/>
        <pt x="330" y="391" on="0"/>
        <pt x="357" y="442" on="0"/>
        <pt x="394" y="506" on="0"/>
        <pt x="435" y="575" on="0"/>
        <pt x="471" y="632" on="0"/>
        <pt x="494" y="670" on="0"/>
        <pt x="495" y="671" on="1"/>
        <pt x="510" y="688" on="0"/>
        <pt x="544" y="694" on="0"/>
        <pt x="556" y="694" on="1"/>
        <pt x="581" y="694" on="1"/>
        <pt x="592" y="694" on="0"/>
        <pt x="616" y="689" on="0"/>
        <pt x="616" y="673" on="1"/>
        <pt x="616" y="668" on="0"/>
        <pt x="612" y="662" on="0"/>
        <pt x="607" y="653" on="1"/>
      </contour>
    </TTGlyph>
    <TTGlyph name="Z" xMin="53" yMin="0" xMax="533" yMax="694">
      <contour>
        <pt x="195" y="87" on="1"/>
        <pt x="483" y="91" on="1"/>
        <pt x="509" y="91" on="0"/>
        <pt x="533" y="78" on="0"/>
        <pt x="533" y="45" on="1"/>
        <pt x="533" y="22" on="0"/>
        <pt x="519" y="0" on="0"/>
        <pt x="489" y="0" on="1"/>
        <pt x="97" y="0" on="1"/>
        <pt x="68" y="0" on="0"/>
        <pt x="53" y="22" on="0"/>
        <pt x="53" y="45" on="1"/>
        <pt x="53" y="59" on="0"/>
        <pt x="55" y="70" on="0"/>
        <pt x="62" y="80" on="1"/>
        <pt x="386" y="613" on="1"/>
        <pt x="350" y="613" on="1"/>
        <pt x="293" y="613" on="0"/>
        <pt x="177" y="610" on="0"/>
        <pt x="120" y="610" on="1"/>
        <pt x="107" y="610" on="0"/>
        <pt x="87" y="611" on="0"/>
        <pt x="73" y="619" on="0"/>
        <pt x="66" y="636" on="0"/>
        <pt x="66" y="652" on="1"/>
        <pt x="66" y="667" on="0"/>
        <pt x="74" y="684" on="0"/>
        <pt x="86" y="692" on="0"/>
        <pt x="102" y="694" on="0"/>
        <pt x="111" y="694" on="1"/>
        <pt x="483" y="694" on="1"/>
        <pt x="506" y="694" on="0"/>
        <pt x="527" y="679" on="0"/>
        <pt x="527" y="651" on="1"/>
        <pt x="527" y="638" on="0"/>
        <pt x="525" y="629" on="0"/>
        <pt x="518" y="618" on="1"/>
      </contour>
    </TTGlyph>
    <TTGlyph name="a" xMin="26" yMin="-10" xMax="398" yMax="487">
      <contour>
        <pt x="398" y="44" on="1"/>
        <pt x="398" y="18" on="0"/>
        <pt x="380" y="0" on="0"/>
        <pt x="354" y="0" on="1"/>
        <pt x="334" y="0" on="1"/>
        <pt x="305" y="0" on="0"/>
        <pt x="290" y="21" on="0"/>
        <pt x="290" y="44" on="1"/>
        <pt x="290" y="69" on="1"/>
        <pt x="284" y="58" on="0"/>
        <pt x="261" y="31" on="0"/>
        <pt x="228" y="7" on="0"/>
        <pt x="184" y="-10" on="0"/>
        <pt x="157" y="-10" on="1"/>
        <pt x="128" y="-10" on="0"/>
        <pt x="80" y="14" on="0"/>
        <pt x="45" y="54" on="0"/>
        <pt x="26" y="105" on="0"/>
        <pt x="26" y="132" on="1"/>
        <pt x="26" y="169" on="0"/>
        <pt x="57" y="221" on="0"/>
        <pt x="105" y="256" on="0"/>
        <pt x="164" y="276" on="0"/>
        <pt x="220" y="287" on="0"/>
        <pt x="265" y="290" on="0"/>
        <pt x="276" y="291" on="1"/>
        <pt x="284" y="292" on="0"/>
        <pt x="287" y="297" on="0"/>
        <pt x="287" y="310" on="1"/>
        <pt x="287" y="330" on="1"/>
        <pt x="287" y="367" on="0"/>
        <pt x="272" y="407" on="0"/>
        <pt x="251" y="425" on="0"/>
        <pt x="228" y="428" on="0"/>
        <pt x="220" y="428" on="1"/>
        <pt x="191" y="428" on="0"/>
        <pt x="126" y="408" on="0"/>
        <pt x="95" y="378" on="1"/>
        <pt x="87" y="371" on="0"/>
        <pt x="83" y="368" on="0"/>
        <pt x="79" y="368" on="1"/>
        <pt x="71" y="368" on="0"/>
        <pt x="68" y="380" on="0"/>
        <pt x="66" y="397" on="1"/>
        <pt x="65" y="403" on="0"/>
        <pt x="63" y="428" on="0"/>
        <pt x="63" y="433" on="1"/>
        <pt x="63" y="441" on="0"/>
        <pt x="73" y="448" on="0"/>
        <pt x="87" y="456" on="1"/>
        <pt x="118" y="471" on="0"/>
        <pt x="182" y="487" on="0"/>
        <pt x="224" y="487" on="1"/>
        <pt x="315" y="487" on="0"/>
        <pt x="398" y="401" on="0"/>
        <pt x="398" y="331" on="1"/>
      </contour>
      <contour>
        <pt x="287" y="256" on="1"/>
        <pt x="269" y="255" on="0"/>
        <pt x="216" y="245" on="0"/>
        <pt x="166" y="219" on="0"/>
        <pt x="131" y="172" on="0"/>
        <pt x="131" y="134" on="1"/>
        <pt x="131" y="102" on="0"/>
        <pt x="168" y="54" on="0"/>
        <pt x="198" y="54" on="1"/>
        <pt x="204" y="54" on="0"/>
        <pt x="234" y="60" on="0"/>
        <pt x="264" y="81" on="0"/>
        <pt x="287" y="121" on="0"/>
        <pt x="287" y="155" on="1"/>
      </contour>
    </TTGlyph>
    <TTGlyph name="acute" xMin="193" yMin="546" xMax="394" yMax="694">
      <contour>
        <pt x="249" y="546" on="1"/>
        <pt x="218" y="546" on="1"/>
        <pt x="207" y="546" on="0"/>
        <pt x="193" y="549" on="0"/>
        <pt x="193" y="557" on="1"/>
        <pt x="193" y="559" on="0"/>
        <pt x="195" y="564" on="0"/>
        <pt x="201" y="572" on="1"/>
        <pt x="281" y="683" on="1"/>
        <pt x="287" y="691" on="0"/>
        <pt x="295" y="694" on="0"/>
        <pt x="309" y="694" on="1"/>
        <pt x="370" y="694" on="1"/>
        <pt x="382" y="694" on="0"/>
        <pt x="394" y="691" on="0"/>
        <pt x="394" y="683" on="1"/>
        <pt x="394" y="678" on="0"/>
        <pt x="390" y="673" on="0"/>
        <pt x="384" y="668" on="1"/>
      </contour>
    </TTGlyph>
    <TTGlyph name="ae" xMin="27" yMin="-10" xMax="659" yMax="487">
      <contour>
        <pt x="398" y="232" on="1"/>
        <pt x="398" y="216" on="0"/>
        <pt x="403" y="156" on="0"/>
        <pt x="424" y="98" on="0"/>
        <pt x="468" y="54" on="0"/>
        <pt x="507" y="54" on="1"/>
        <pt x="533" y="54" on="0"/>
        <pt x="596" y="79" on="0"/>
        <pt x="625" y="117" on="1"/>
        <pt x="631" y="125" on="0"/>
        <pt x="637" y="125" on="1"/>
        <pt x="645" y="125" on="0"/>
        <pt x="648" y="115" on="0"/>
        <pt x="650" y="101" on="1"/>
        <pt x="651" y="94" on="0"/>
        <pt x="653" y="71" on="0"/>
        <pt x="653" y="65" on="1"/>
        <pt x="653" y="59" on="0"/>
        <pt x="631" y="34" on="0"/>
        <pt x="592" y="9" on="0"/>
        <pt x="536" y="-10" on="0"/>
        <pt x="503" y="-10" on="1"/>
        <pt x="409" y="-10" on="0"/>
        <pt x="345" y="54" on="1"/>
        <pt x="330" y="38" on="0"/>
        <pt x="287" y="14" on="0"/>
        <pt x="237" y="-2" on="0"/>
        <pt x="182" y="-10" on="0"/>
        <pt x="156" y="-10" on="1"/>
        <pt x="122" y="-10" on="0"/>
        <pt x="73" y="16" on="0"/>
        <pt x="42" y="56" on="0"/>
        <pt x="27" y="103" on="0"/>
        <pt x="27" y="123" on="1"/>
        <pt x="27" y="157" on="0"/>
        <pt x="58" y="204" on="0"/>
        <pt x="107" y="235" on="0"/>
        <pt x="167" y="253" on="0"/>
        <pt x="225" y="263" on="0"/>
        <pt x="274" y="265" on="0"/>
        <pt x="287" y="266" on="1"/>
        <pt x="287" y="331" on="1"/>
        <pt x="287" y="367" on="0"/>
        <pt x="273" y="407" on="0"/>
        <pt x="252" y="425" on="0"/>
        <pt x="230" y="428" on="0"/>
        <pt x="221" y="428" on="1"/>
        <pt x="212" y="428" on="0"/>
        <pt x="183" y="425" on="0"/>
        <pt x="150" y="415" on="0"/>
        <pt x="113" y="395" on="0"/>
        <pt x="95" y="378" on="1"/>
        <pt x="87" y="371" on="0"/>
        <pt x="83" y="368" on="0"/>
        <pt x="79" y="368" on="1"/>
        <pt x="71" y="368" on="0"/>
        <pt x="68" y="380" on="0"/>
        <pt x="66" y="397" on="1"/>
        <pt x="65" y="403" on="0"/>
        <pt x="63" y="428" on="0"/>
        <pt x="63" y="433" on="1"/>
        <pt x="63" y="439" on="0"/>
        <pt x="69" y="447" on="0"/>
        <pt x="89" y="457" on="1"/>
        <pt x="114" y="468" on="0"/>
        <pt x="176" y="487" on="0"/>
        <pt x="225" y="487" on="1"/>
        <pt x="233" y="487" on="0"/>
        <pt x="264" y="486" on="0"/>
        <pt x="302" y="477" on="0"/>
        <pt x="343" y="458" on="0"/>
        <pt x="360" y="441" on="1"/>
        <pt x="378" y="457" on="0"/>
        <pt x="445" y="487" on="0"/>
        <pt x="491" y="487" on="1"/>
        <pt x="539" y="487" on="0"/>
        <pt x="603" y="452" on="0"/>
        <pt x="642" y="394" on="0"/>
        <pt x="659" y="317" on="0"/>
        <pt x="659" y="276" on="1"/>
        <pt x="659" y="251" on="0"/>
        <pt x="642" y="232" on="0"/>
        <pt x="615" y="232" on="1"/>
      </contour>
      <contour>
        <pt x="570" y="279" on="1"/>
        <pt x="569" y="297" on="0"/>
        <pt x="565" y="347" on="0"/>
        <pt x="550" y="392" on="0"/>
        <pt x="519" y="423" on="0"/>
        <pt x="492" y="423" on="1"/>
        <pt x="470" y="423" on="0"/>
        <pt x="436" y="399" on="0"/>
        <pt x="413" y="359" on="0"/>
        <pt x="401" y="307" on="0"/>
        <pt x="399" y="279" on="1"/>
      </contour>
      <contour>
        <pt x="287" y="218" on="1"/>
        <pt x="278" y="218" on="0"/>
        <pt x="227" y="212" on="0"/>
        <pt x="174" y="194" on="0"/>
        <pt x="132" y="157" on="0"/>
        <pt x="132" y="125" on="1"/>
        <pt x="132" y="98" on="0"/>
        <pt x="168" y="54" on="0"/>
        <pt x="199" y="54" on="1"/>
        <pt x="214" y="54" on="0"/>
        <pt x="247" y="64" on="0"/>
        <pt x="277" y="84" on="0"/>
        <pt x="298" y="115" on="0"/>
        <pt x="301" y="137" on="1"/>
        <pt x="297" y="151" on="0"/>
        <pt x="291" y="179" on="0"/>
        <pt x="288" y="202" on="0"/>
        <pt x="287" y="218" on="0"/>
      </contour>
    </TTGlyph>
    <TTGlyph name="ampersand" xMin="40" yMin="-19" xMax="663" yMax="713">
      <contour>
        <pt x="178" y="337" on="1"/>
        <pt x="154" y="394" on="0"/>
        <pt x="137" y="495" on="0"/>
        <pt x="137" y="532" on="1"/>
        <pt x="137" y="574" on="0"/>
        <pt x="164" y="641" on="0"/>
        <pt x="208" y="688" on="0"/>
        <pt x="266" y="713" on="0"/>
        <pt x="296" y="713" on="1"/>
        <pt x="329" y="713" on="0"/>
        <pt x="382" y="685" on="0"/>
        <pt x="418" y="641" on="0"/>
        <pt x="438" y="585" on="0"/>
        <pt x="438" y="557" on="1"/>
        <pt x="438" y="508" on="0"/>
        <pt x="357" y="407" on="0"/>
        <pt x="285" y="344" on="1"/>
        <pt x="308" y="299" on="0"/>
        <pt x="373" y="207" on="0"/>
        <pt x="411" y="159" on="1"/>
        <pt x="462" y="211" on="0"/>
        <pt x="526" y="350" on="0"/>
        <pt x="544" y="422" on="1"/>
        <pt x="548" y="438" on="0"/>
        <pt x="552" y="448" on="0"/>
        <pt x="560" y="448" on="1"/>
        <pt x="562" y="448" on="0"/>
        <pt x="578" y="444" on="0"/>
        <pt x="599" y="438" on="0"/>
        <pt x="618" y="433" on="0"/>
        <pt x="621" y="432" on="1"/>
        <pt x="624" y="430" on="0"/>
        <pt x="632" y="426" on="0"/>
        <pt x="632" y="419" on="1"/>
        <pt x="632" y="418" on="0"/>
        <pt x="625" y="387" on="0"/>
        <pt x="610" y="339" on="0"/>
        <pt x="586" y="277" on="0"/>
        <pt x="569" y="243" on="1"/>
        <pt x="552" y="209" on="0"/>
        <pt x="508" y="141" on="0"/>
        <pt x="472" y="100" on="1"/>
        <pt x="504" y="75" on="0"/>
        <pt x="546" y="67" on="0"/>
        <pt x="557" y="67" on="1"/>
        <pt x="568" y="67" on="0"/>
        <pt x="611" y="72" on="0"/>
        <pt x="640" y="81" on="1"/>
        <pt x="648" y="85" on="0"/>
        <pt x="652" y="85" on="1"/>
        <pt x="660" y="85" on="0"/>
        <pt x="663" y="71" on="0"/>
        <pt x="663" y="59" on="1"/>
        <pt x="663" y="25" on="1"/>
        <pt x="663" y="16" on="0"/>
        <pt x="661" y="6" on="0"/>
        <pt x="654" y="-1" on="0"/>
        <pt x="638" y="-6" on="0"/>
        <pt x="623" y="-10" on="1"/>
        <pt x="590" y="-19" on="0"/>
        <pt x="554" y="-19" on="1"/>
        <pt x="515" y="-19" on="0"/>
        <pt x="437" y="7" on="0"/>
        <pt x="398" y="37" on="1"/>
        <pt x="356" y="11" on="0"/>
        <pt x="266" y="-19" on="0"/>
        <pt x="213" y="-19" on="1"/>
        <pt x="176" y="-19" on="0"/>
        <pt x="112" y="7" on="0"/>
        <pt x="66" y="52" on="0"/>
        <pt x="40" y="111" on="0"/>
        <pt x="40" y="144" on="1"/>
        <pt x="40" y="167" on="0"/>
        <pt x="51" y="205" on="0"/>
        <pt x="68" y="235" on="0"/>
        <pt x="86" y="256" on="0"/>
        <pt x="92" y="262" on="1"/>
      </contour>
      <contour>
        <pt x="258" y="407" on="1"/>
        <pt x="296" y="443" on="0"/>
        <pt x="343" y="513" on="0"/>
        <pt x="343" y="557" on="1"/>
        <pt x="343" y="568" on="0"/>
        <pt x="339" y="599" on="0"/>
        <pt x="329" y="628" on="0"/>
        <pt x="310" y="649" on="0"/>
        <pt x="296" y="649" on="1"/>
        <pt x="270" y="649" on="0"/>
        <pt x="233" y="596" on="0"/>
        <pt x="233" y="551" on="1"/>
        <pt x="233" y="509" on="0"/>
        <pt x="250" y="435" on="0"/>
      </contour>
      <contour>
        <pt x="206" y="276" on="1"/>
        <pt x="195" y="267" on="0"/>
        <pt x="175" y="248" on="0"/>
        <pt x="160" y="224" on="0"/>
        <pt x="151" y="191" on="0"/>
        <pt x="151" y="168" on="1"/>
        <pt x="151" y="165" on="0"/>
        <pt x="153" y="132" on="0"/>
        <pt x="166" y="96" on="0"/>
        <pt x="192" y="67" on="0"/>
        <pt x="216" y="67" on="1"/>
        <pt x="226" y="67" on="0"/>
        <pt x="293" y="76" on="0"/>
        <pt x="333" y="98" on="1"/>
        <pt x="323" y="109" on="0"/>
        <pt x="292" y="148" on="0"/>
        <pt x="257" y="196" on="0"/>
        <pt x="221" y="249" on="0"/>
      </contour>
    </TTGlyph>
    <TTGlyph name="asterisk" xMin="57" yMin="278" xMax="417" yMax="750">
      <contour>
        <pt x="392" y="457" on="1"/>
        <pt x="398" y="454" on="0"/>
        <pt x="417" y="440" on="0"/>
        <pt x="417" y="422" on="1"/>
        <pt x="417" y="405" on="0"/>
        <pt x="390" y="376" on="0"/>
        <pt x="373" y="376" on="1"/>
        <pt x="359" y="376" on="0"/>
        <pt x="345" y="390" on="1"/>
        <pt x="253" y="482" on="1"/>
        <pt x="256" y="467" on="0"/>
        <pt x="264" y="413" on="0"/>
        <pt x="273" y="360" on="0"/>
        <pt x="279" y="318" on="0"/>
        <pt x="279" y="315" on="1"/>
        <pt x="279" y="295" on="0"/>
        <pt x="250" y="278" on="0"/>
        <pt x="237" y="278" on="1"/>
        <pt x="224" y="278" on="0"/>
        <pt x="195" y="295" on="0"/>
        <pt x="195" y="315" on="1"/>
        <pt x="195" y="318" on="0"/>
        <pt x="196" y="325" on="0"/>
        <pt x="198" y="338" on="1"/>
        <pt x="221" y="482" on="1"/>
        <pt x="128" y="390" on="1"/>
        <pt x="121" y="383" on="0"/>
        <pt x="111" y="376" on="0"/>
        <pt x="101" y="376" on="1"/>
        <pt x="83" y="376" on="0"/>
        <pt x="57" y="405" on="0"/>
        <pt x="57" y="422" on="1"/>
        <pt x="57" y="440" on="0"/>
        <pt x="76" y="454" on="0"/>
        <pt x="82" y="457" on="1"/>
        <pt x="210" y="514" on="1"/>
        <pt x="82" y="571" on="1"/>
        <pt x="76" y="574" on="0"/>
        <pt x="57" y="588" on="0"/>
        <pt x="57" y="606" on="1"/>
        <pt x="57" y="623" on="0"/>
        <pt x="84" y="652" on="0"/>
        <pt x="101" y="652" on="1"/>
        <pt x="115" y="652" on="0"/>
        <pt x="129" y="638" on="1"/>
        <pt x="221" y="546" on="1"/>
        <pt x="198" y="690" on="1"/>
        <pt x="196" y="703" on="0"/>
        <pt x="195" y="710" on="0"/>
        <pt x="195" y="713" on="1"/>
        <pt x="195" y="733" on="0"/>
        <pt x="224" y="750" on="0"/>
        <pt x="237" y="750" on="1"/>
        <pt x="250" y="750" on="0"/>
        <pt x="279" y="733" on="0"/>
        <pt x="279" y="713" on="1"/>
        <pt x="279" y="710" on="0"/>
        <pt x="278" y="703" on="0"/>
        <pt x="276" y="690" on="1"/>
        <pt x="253" y="546" on="1"/>
        <pt x="346" y="638" on="1"/>
        <pt x="353" y="645" on="0"/>
        <pt x="363" y="652" on="0"/>
        <pt x="373" y="652" on="1"/>
        <pt x="391" y="652" on="0"/>
        <pt x="417" y="623" on="0"/>
        <pt x="417" y="606" on="1"/>
        <pt x="417" y="588" on="0"/>
        <pt x="398" y="574" on="0"/>
        <pt x="392" y="571" on="1"/>
        <pt x="264" y="514" on="1"/>
      </contour>
    </TTGlyph>
    <TTGlyph name="at" xMin="53" yMin="-10" xMax="580" yMax="704">
      <contour>
        <pt x="555" y="98" on="1"/>
        <pt x="567" y="98" on="0"/>
        <pt x="579" y="95" on="0"/>
        <pt x="579" y="87" on="1"/>
        <pt x="579" y="83" on="0"/>
        <pt x="550" y="52" on="0"/>
        <pt x="495" y="17" on="0"/>
        <pt x="417" y="-10" on="0"/>
        <pt x="367" y="-10" on="1"/>
        <pt x="285" y="-10" on="0"/>
        <pt x="166" y="45" on="0"/>
        <pt x="90" y="141" on="0"/>
        <pt x="53" y="272" on="0"/>
        <pt x="53" y="347" on="1"/>
        <pt x="53" y="422" on="0"/>
        <pt x="90" y="553" on="0"/>
        <pt x="166" y="649" on="0"/>
        <pt x="284" y="704" on="0"/>
        <pt x="366" y="704" on="1"/>
        <pt x="442" y="704" on="0"/>
        <pt x="528" y="640" on="0"/>
        <pt x="570" y="541" on="0"/>
        <pt x="580" y="422" on="0"/>
        <pt x="580" y="367" on="1"/>
        <pt x="580" y="346" on="0"/>
        <pt x="579" y="303" on="0"/>
        <pt x="572" y="259" on="0"/>
        <pt x="556" y="215" on="0"/>
        <pt x="542" y="193" on="1"/>
        <pt x="523" y="164" on="0"/>
        <pt x="450" y="120" on="0"/>
        <pt x="396" y="120" on="1"/>
        <pt x="346" y="120" on="0"/>
        <pt x="276" y="158" on="0"/>
        <pt x="233" y="221" on="0"/>
        <pt x="213" y="303" on="0"/>
        <pt x="213" y="347" on="1"/>
        <pt x="213" y="355" on="0"/>
        <pt x="215" y="395" on="0"/>
        <pt x="225" y="446" on="0"/>
        <pt x="247" y="500" on="0"/>
        <pt x="288" y="545" on="0"/>
        <pt x="351" y="574" on="0"/>
        <pt x="397" y="574" on="1"/>
        <pt x="419" y="574" on="0"/>
        <pt x="452" y="567" on="0"/>
        <pt x="457" y="565" on="1"/>
        <pt x="448" y="597" on="0"/>
        <pt x="401" y="640" on="0"/>
        <pt x="366" y="640" on="1"/>
        <pt x="312" y="640" on="0"/>
        <pt x="224" y="591" on="0"/>
        <pt x="195" y="542" on="1"/>
        <pt x="171" y="502" on="0"/>
        <pt x="154" y="397" on="0"/>
        <pt x="154" y="347" on="1"/>
        <pt x="154" y="335" on="0"/>
        <pt x="156" y="282" on="0"/>
        <pt x="168" y="217" on="0"/>
        <pt x="194" y="148" on="0"/>
        <pt x="242" y="91" on="0"/>
        <pt x="316" y="54" on="0"/>
        <pt x="370" y="54" on="1"/>
        <pt x="379" y="54" on="0"/>
        <pt x="409" y="57" on="0"/>
        <pt x="447" y="66" on="0"/>
        <pt x="490" y="83" on="0"/>
        <pt x="512" y="98" on="1"/>
      </contour>
      <contour>
        <pt x="397" y="184" on="1"/>
        <pt x="403" y="184" on="0"/>
        <pt x="430" y="190" on="0"/>
        <pt x="458" y="221" on="0"/>
        <pt x="479" y="287" on="0"/>
        <pt x="479" y="347" on="1"/>
        <pt x="479" y="374" on="0"/>
        <pt x="472" y="432" on="0"/>
        <pt x="454" y="479" on="0"/>
        <pt x="422" y="510" on="0"/>
        <pt x="396" y="510" on="1"/>
        <pt x="390" y="510" on="0"/>
        <pt x="363" y="504" on="0"/>
        <pt x="335" y="473" on="0"/>
        <pt x="314" y="407" on="0"/>
        <pt x="314" y="347" on="1"/>
        <pt x="314" y="320" on="0"/>
        <pt x="321" y="262" on="0"/>
        <pt x="339" y="215" on="0"/>
        <pt x="372" y="184" on="0"/>
      </contour>
    </TTGlyph>
    <TTGlyph name="b" xMin="56" yMin="-10" xMax="450" yMax="694">
      <contour>
        <pt x="164" y="427" on="1"/>
        <pt x="170" y="434" on="0"/>
        <pt x="191" y="453" on="0"/>
        <pt x="220" y="470" on="0"/>
        <pt x="258" y="482" on="0"/>
        <pt x="281" y="482" on="1"/>
        <pt x="335" y="482" on="0"/>
        <pt x="401" y="432" on="0"/>
        <pt x="437" y="358" on="0"/>
        <pt x="450" y="273" on="0"/>
        <pt x="450" y="237" on="1"/>
        <pt x="450" y="226" on="0"/>
        <pt x="449" y="187" on="0"/>
        <pt x="441" y="141" on="0"/>
        <pt x="425" y="91" on="0"/>
        <pt x="410" y="68" on="1"/>
        <pt x="381" y="24" on="0"/>
        <pt x="300" y="-10" on="0"/>
        <pt x="262" y="-10" on="1"/>
        <pt x="225" y="-10" on="0"/>
        <pt x="178" y="21" on="0"/>
        <pt x="167" y="35" on="1"/>
        <pt x="166" y="9" on="0"/>
        <pt x="137" y="0" on="0"/>
        <pt x="123" y="0" on="1"/>
        <pt x="101" y="0" on="1"/>
        <pt x="74" y="0" on="0"/>
        <pt x="56" y="19" on="0"/>
        <pt x="56" y="45" on="1"/>
        <pt x="56" y="649" on="1"/>
        <pt x="56" y="676" on="0"/>
        <pt x="75" y="694" on="0"/>
        <pt x="101" y="694" on="1"/>
        <pt x="120" y="694" on="1"/>
        <pt x="149" y="694" on="0"/>
        <pt x="164" y="673" on="0"/>
        <pt x="164" y="650" on="1"/>
      </contour>
      <contour>
        <pt x="167" y="94" on="1"/>
        <pt x="173" y="84" on="0"/>
        <pt x="206" y="54" on="0"/>
        <pt x="235" y="54" on="1"/>
        <pt x="274" y="54" on="0"/>
        <pt x="316" y="94" on="0"/>
        <pt x="336" y="151" on="0"/>
        <pt x="339" y="214" on="0"/>
        <pt x="339" y="238" on="1"/>
        <pt x="339" y="261" on="0"/>
        <pt x="336" y="323" on="0"/>
        <pt x="318" y="379" on="0"/>
        <pt x="280" y="418" on="0"/>
        <pt x="245" y="418" on="1"/>
        <pt x="234" y="418" on="0"/>
        <pt x="207" y="411" on="0"/>
        <pt x="193" y="403" on="1"/>
        <pt x="183" y="396" on="0"/>
        <pt x="173" y="387" on="0"/>
        <pt x="168" y="378" on="0"/>
        <pt x="167" y="368" on="0"/>
        <pt x="167" y="361" on="1"/>
      </contour>
    </TTGlyph>
    <TTGlyph name="bracketleft" xMin="78" yMin="-222" xMax="271" yMax="750">
      <contour>
        <pt x="183" y="-158" on="1"/>
        <pt x="227" y="-158" on="1"/>
        <pt x="232" y="-158" on="0"/>
        <pt x="247" y="-159" on="0"/>
        <pt x="261" y="-165" on="0"/>
        <pt x="271" y="-178" on="0"/>
        <pt x="271" y="-190" on="1"/>
        <pt x="271" y="-202" on="0"/>
        <pt x="261" y="-215" on="0"/>
        <pt x="247" y="-221" on="0"/>
        <pt x="232" y="-222" on="0"/>
        <pt x="227" y="-222" on="1"/>
        <pt x="122" y="-222" on="1"/>
        <pt x="93" y="-222" on="0"/>
        <pt x="78" y="-201" on="0"/>
        <pt x="78" y="-178" on="1"/>
        <pt x="78" y="706" on="1"/>
        <pt x="78" y="732" on="0"/>
        <pt x="96" y="750" on="0"/>
        <pt x="122" y="750" on="1"/>
        <pt x="227" y="750" on="1"/>
        <pt x="232" y="750" on="0"/>
        <pt x="247" y="749" on="0"/>
        <pt x="261" y="743" on="0"/>
        <pt x="271" y="730" on="0"/>
        <pt x="271" y="718" on="1"/>
        <pt x="271" y="706" on="0"/>
        <pt x="261" y="693" on="0"/>
        <pt x="247" y="687" on="0"/>
        <pt x="232" y="686" on="0"/>
        <pt x="227" y="686" on="1"/>
        <pt x="183" y="686" on="1"/>
      </contour>
    </TTGlyph>
    <TTGlyph name="bracketright" xMin="21" yMin="-222" xMax="214" yMax="750">
      <contour>
        <pt x="214" y="-178" on="1"/>
        <pt x="214" y="-204" on="0"/>
        <pt x="196" y="-222" on="0"/>
        <pt x="170" y="-222" on="1"/>
        <pt x="65" y="-222" on="1"/>
        <pt x="60" y="-222" on="0"/>
        <pt x="45" y="-221" on="0"/>
        <pt x="31" y="-215" on="0"/>
        <pt x="21" y="-202" on="0"/>
        <pt x="21" y="-190" on="1"/>
        <pt x="21" y="-178" on="0"/>
        <pt x="31" y="-165" on="0"/>
        <pt x="45" y="-159" on="0"/>
        <pt x="60" y="-158" on="0"/>
        <pt x="65" y="-158" on="1"/>
        <pt x="109" y="-158" on="1"/>
        <pt x="109" y="686" on="1"/>
        <pt x="65" y="686" on="1"/>
        <pt x="60" y="686" on="0"/>
        <pt x="45" y="687" on="0"/>
        <pt x="31" y="693" on="0"/>
        <pt x="21" y="706" on="0"/>
        <pt x="21" y="718" on="1"/>
        <pt x="21" y="730" on="0"/>
        <pt x="31" y="743" on="0"/>
        <pt x="45" y="749" on="0"/>
        <pt x="60" y="750" on="0"/>
        <pt x="65" y="750" on="1"/>
        <pt x="170" y="750" on="1"/>
        <pt x="199" y="750" on="0"/>
        <pt x="214" y="729" on="0"/>
        <pt x="214" y="706" on="1"/>
      </contour>
    </TTGlyph>
    <TTGlyph name="breve" xMin="74" yMin="555" xMax="400" yMax="694">
      <contour>
        <pt x="400" y="659" on="1"/>
        <pt x="400" y="641" on="0"/>
        <pt x="382" y="604" on="0"/>
        <pt x="343" y="574" on="0"/>
        <pt x="281" y="555" on="0"/>
        <pt x="237" y="555" on="1"/>
        <pt x="194" y="555" on="0"/>
        <pt x="132" y="573" on="0"/>
        <pt x="92" y="603" on="0"/>
        <pt x="74" y="640" on="0"/>
        <pt x="74" y="659" on="1"/>
        <pt x="74" y="670" on="0"/>
        <pt x="81" y="684" on="0"/>
        <pt x="92" y="691" on="0"/>
        <pt x="103" y="694" on="0"/>
        <pt x="106" y="694" on="1"/>
        <pt x="115" y="694" on="0"/>
        <pt x="136" y="682" on="0"/>
        <pt x="138" y="662" on="1"/>
        <pt x="139" y="652" on="0"/>
        <pt x="162" y="641" on="0"/>
        <pt x="193" y="636" on="0"/>
        <pt x="226" y="635" on="0"/>
        <pt x="237" y="635" on="1"/>
        <pt x="245" y="635" on="0"/>
        <pt x="276" y="636" on="0"/>
        <pt x="309" y="640" on="0"/>
        <pt x="335" y="650" on="0"/>
        <pt x="336" y="659" on="1"/>
        <pt x="336" y="663" on="0"/>
        <pt x="339" y="675" on="0"/>
        <pt x="345" y="686" on="0"/>
        <pt x="358" y="694" on="0"/>
        <pt x="368" y="694" on="1"/>
        <pt x="376" y="694" on="0"/>
        <pt x="400" y="680" on="0"/>
      </contour>
    </TTGlyph>
    <TTGlyph name="c" xMin="32" yMin="-10" xMax="395" yMax="487">
      <contour>
        <pt x="395" y="62" on="1"/>
        <pt x="395" y="54" on="0"/>
        <pt x="377" y="37" on="0"/>
        <pt x="354" y="22" on="0"/>
        <pt x="335" y="11" on="0"/>
        <pt x="335" y="11" on="1"/>
        <pt x="305" y="-3" on="0"/>
        <pt x="252" y="-10" on="0"/>
        <pt x="238" y="-10" on="1"/>
        <pt x="182" y="-10" on="0"/>
        <pt x="103" y="29" on="0"/>
        <pt x="54" y="96" on="0"/>
        <pt x="32" y="186" on="0"/>
        <pt x="32" y="237" on="1"/>
        <pt x="32" y="356" on="0"/>
        <pt x="138" y="487" on="0"/>
        <pt x="242" y="487" on="1"/>
        <pt x="266" y="487" on="0"/>
        <pt x="302" y="483" on="0"/>
        <pt x="331" y="474" on="0"/>
        <pt x="357" y="461" on="0"/>
        <pt x="372" y="452" on="1"/>
        <pt x="383" y="446" on="0"/>
        <pt x="389" y="441" on="0"/>
        <pt x="389" y="434" on="1"/>
        <pt x="389" y="433" on="0"/>
        <pt x="387" y="422" on="0"/>
        <pt x="385" y="410" on="0"/>
        <pt x="382" y="399" on="0"/>
        <pt x="382" y="397" on="1"/>
        <pt x="379" y="380" on="0"/>
        <pt x="375" y="369" on="0"/>
        <pt x="368" y="369" on="1"/>
        <pt x="366" y="369" on="0"/>
        <pt x="361" y="371" on="0"/>
        <pt x="354" y="378" on="1"/>
        <pt x="330" y="397" on="0"/>
        <pt x="284" y="417" on="0"/>
        <pt x="243" y="417" on="1"/>
        <pt x="207" y="417" on="0"/>
        <pt x="167" y="382" on="0"/>
        <pt x="148" y="328" on="0"/>
        <pt x="143" y="265" on="0"/>
        <pt x="143" y="238" on="1"/>
        <pt x="143" y="219" on="0"/>
        <pt x="146" y="158" on="0"/>
        <pt x="164" y="101" on="0"/>
        <pt x="204" y="60" on="0"/>
        <pt x="240" y="60" on="1"/>
        <pt x="268" y="60" on="0"/>
        <pt x="310" y="74" on="0"/>
        <pt x="341" y="93" on="0"/>
        <pt x="361" y="112" on="0"/>
        <pt x="366" y="117" on="1"/>
        <pt x="371" y="123" on="0"/>
        <pt x="375" y="126" on="0"/>
        <pt x="379" y="126" on="1"/>
        <pt x="387" y="126" on="0"/>
        <pt x="390" y="115" on="0"/>
        <pt x="392" y="98" on="1"/>
        <pt x="393" y="92" on="0"/>
        <pt x="395" y="67" on="0"/>
      </contour>
    </TTGlyph>
    <TTGlyph name="caron" xMin="90" yMin="509" xMax="384" yMax="658">
      <contour>
        <pt x="287" y="520" on="1"/>
        <pt x="280" y="512" on="0"/>
        <pt x="273" y="509" on="0"/>
        <pt x="259" y="509" on="1"/>
        <pt x="216" y="509" on="1"/>
        <pt x="201" y="509" on="0"/>
        <pt x="193" y="513" on="0"/>
        <pt x="186" y="521" on="1"/>
        <pt x="97" y="634" on="1"/>
        <pt x="92" y="640" on="0"/>
        <pt x="90" y="645" on="0"/>
        <pt x="90" y="647" on="1"/>
        <pt x="90" y="655" on="0"/>
        <pt x="102" y="658" on="0"/>
        <pt x="114" y="658" on="1"/>
        <pt x="146" y="658" on="1"/>
        <pt x="237" y="575" on="1"/>
        <pt x="328" y="658" on="1"/>
        <pt x="360" y="658" on="1"/>
        <pt x="372" y="658" on="0"/>
        <pt x="384" y="655" on="0"/>
        <pt x="384" y="647" on="1"/>
        <pt x="384" y="644" on="0"/>
        <pt x="381" y="639" on="0"/>
        <pt x="376" y="632" on="1"/>
      </contour>
    </TTGlyph>
    <TTGlyph name="cedilla" xMin="128" yMin="-165" xMax="268" yMax="-21">
      <contour>
        <pt x="218" y="-150" on="1"/>
        <pt x="213" y="-161" on="0"/>
        <pt x="205" y="-165" on="0"/>
        <pt x="189" y="-165" on="1"/>
        <pt x="153" y="-165" on="1"/>
        <pt x="142" y="-165" on="0"/>
        <pt x="128" y="-162" on="0"/>
        <pt x="128" y="-154" on="1"/>
        <pt x="128" y="-152" on="0"/>
        <pt x="129" y="-148" on="0"/>
        <pt x="134" y="-140" on="1"/>
        <pt x="202" y="-34" on="1"/>
        <pt x="208" y="-25" on="0"/>
        <pt x="216" y="-21" on="0"/>
        <pt x="230" y="-21" on="1"/>
        <pt x="243" y="-21" on="1"/>
        <pt x="254" y="-21" on="0"/>
        <pt x="268" y="-24" on="0"/>
        <pt x="268" y="-32" on="1"/>
        <pt x="268" y="-38" on="0"/>
        <pt x="264" y="-46" on="1"/>
      </contour>
    </TTGlyph>
    <TTGlyph name="circumflex" xMin="90" yMin="546" xMax="384" yMax="694">
      <contour>
        <pt x="377" y="570" on="1"/>
        <pt x="382" y="564" on="0"/>
        <pt x="384" y="559" on="0"/>
        <pt x="384" y="557" on="1"/>
        <pt x="384" y="549" on="0"/>
        <pt x="372" y="546" on="0"/>
        <pt x="360" y="546" on="1"/>
        <pt x="328" y="546" on="1"/>
        <pt x="237" y="628" on="1"/>
        <pt x="146" y="546" on="1"/>
        <pt x="114" y="546" on="1"/>
        <pt x="102" y="546" on="0"/>
        <pt x="90" y="549" on="0"/>
        <pt x="90" y="557" on="1"/>
        <pt x="90" y="561" on="0"/>
        <pt x="98" y="572" on="1"/>
        <pt x="186" y="683" on="1"/>
        <pt x="193" y="691" on="0"/>
        <pt x="202" y="694" on="0"/>
        <pt x="216" y="694" on="1"/>
        <pt x="259" y="694" on="1"/>
        <pt x="273" y="694" on="0"/>
        <pt x="280" y="691" on="0"/>
        <pt x="287" y="683" on="1"/>
      </contour>
    </TTGlyph>
    <TTGlyph name="colon" xMin="79" yMin="0" xMax="185" yMax="472">
      <contour>
        <pt x="185" y="392" on="1"/>
        <pt x="185" y="372" on="0"/>
        <pt x="178" y="366" on="0"/>
        <pt x="160" y="366" on="1"/>
        <pt x="104" y="366" on="1"/>
        <pt x="86" y="366" on="0"/>
        <pt x="79" y="372" on="0"/>
        <pt x="79" y="392" on="1"/>
        <pt x="79" y="446" on="1"/>
        <pt x="79" y="465" on="0"/>
        <pt x="86" y="472" on="0"/>
        <pt x="105" y="472" on="1"/>
        <pt x="160" y="472" on="1"/>
        <pt x="178" y="472" on="0"/>
        <pt x="185" y="466" on="0"/>
        <pt x="185" y="446" on="1"/>
      </contour>
      <contour>
        <pt x="160" y="106" on="1"/>
        <pt x="178" y="106" on="0"/>
        <pt x="185" y="100" on="0"/>
        <pt x="185" y="80" on="1"/>
        <pt x="185" y="26" on="1"/>
        <pt x="185" y="6" on="0"/>
        <pt x="178" y="0" on="0"/>
        <pt x="160" y="0" on="1"/>
        <pt x="105" y="0" on="1"/>
        <pt x="86" y="0" on="0"/>
        <pt x="79" y="7" on="0"/>
        <pt x="79" y="26" on="1"/>
        <pt x="79" y="80" on="1"/>
        <pt x="79" y="100" on="0"/>
        <pt x="86" y="106" on="0"/>
        <pt x="104" y="106" on="1"/>
      </contour>
    </TTGlyph>
    <TTGlyph name="comma" xMin="79" yMin="-111" xMax="185" yMax="106">
      <contour>
        <pt x="185" y="26" on="1"/>
        <pt x="185" y="14" on="0"/>
        <pt x="183" y="4" on="0"/>
        <pt x="177" y="-9" on="1"/>
        <pt x="169" y="-26" on="0"/>
        <pt x="159" y="-47" on="0"/>
        <pt x="151" y="-63" on="0"/>
        <pt x="143" y="-81" on="0"/>
        <pt x="135" y="-95" on="1"/>
        <pt x="130" y="-106" on="0"/>
        <pt x="122" y="-111" on="0"/>
        <pt x="106" y="-111" on="1"/>
        <pt x="92" y="-111" on="0"/>
        <pt x="79" y="-108" on="0"/>
        <pt x="79" y="-99" on="1"/>
        <pt x="79" y="-97" on="0"/>
        <pt x="87" y="-69" on="0"/>
        <pt x="96" y="-35" on="0"/>
        <pt x="106" y="-5" on="0"/>
        <pt x="107" y="0" on="1"/>
        <pt x="87" y="0" on="0"/>
        <pt x="79" y="7" on="0"/>
        <pt x="79" y="26" on="1"/>
        <pt x="79" y="80" on="1"/>
        <pt x="79" y="100" on="0"/>
        <pt x="86" y="106" on="0"/>
        <pt x="104" y="106" on="1"/>
        <pt x="160" y="106" on="1"/>
        <pt x="178" y="106" on="0"/>
        <pt x="185" y="100" on="0"/>
        <pt x="185" y="80" on="1"/>
      </contour>
    </TTGlyph>
    <TTGlyph name="d" xMin="32" yMin="-10" xMax="426" yMax="694">
      <contour>
        <pt x="426" y="44" on="1"/>
        <pt x="426" y="18" on="0"/>
        <pt x="408" y="0" on="0"/>
        <pt x="382" y="0" on="1"/>
        <pt x="359" y="0" on="1"/>
        <pt x="330" y="0" on="0"/>
        <pt x="315" y="21" on="0"/>
        <pt x="315" y="44" on="1"/>
        <pt x="314" y="42" on="0"/>
        <pt x="299" y="25" on="0"/>
        <pt x="272" y="5" on="0"/>
        <pt x="233" y="-10" on="0"/>
        <pt x="208" y="-10" on="1"/>
        <pt x="156" y="-10" on="0"/>
        <pt x="88" y="35" on="0"/>
        <pt x="48" y="105" on="0"/>
        <pt x="32" y="193" on="0"/>
        <pt x="32" y="236" on="1"/>
        <pt x="32" y="280" on="0"/>
        <pt x="49" y="368" on="0"/>
        <pt x="91" y="438" on="0"/>
        <pt x="161" y="482" on="0"/>
        <pt x="213" y="482" on="1"/>
        <pt x="234" y="482" on="0"/>
        <pt x="267" y="472" on="0"/>
        <pt x="294" y="457" on="0"/>
        <pt x="312" y="440" on="0"/>
        <pt x="318" y="433" on="1"/>
        <pt x="318" y="650" on="1"/>
        <pt x="318" y="676" on="0"/>
        <pt x="336" y="694" on="0"/>
        <pt x="362" y="694" on="1"/>
        <pt x="382" y="694" on="1"/>
        <pt x="411" y="694" on="0"/>
        <pt x="426" y="673" on="0"/>
        <pt x="426" y="650" on="1"/>
      </contour>
      <contour>
        <pt x="315" y="384" on="1"/>
        <pt x="314" y="385" on="0"/>
        <pt x="305" y="396" on="0"/>
        <pt x="287" y="408" on="0"/>
        <pt x="263" y="418" on="0"/>
        <pt x="247" y="418" on="1"/>
        <pt x="208" y="418" on="0"/>
        <pt x="166" y="378" on="0"/>
        <pt x="146" y="321" on="0"/>
        <pt x="143" y="258" on="0"/>
        <pt x="143" y="235" on="1"/>
        <pt x="143" y="212" on="0"/>
        <pt x="146" y="149" on="0"/>
        <pt x="164" y="93" on="0"/>
        <pt x="202" y="54" on="0"/>
        <pt x="237" y="54" on="1"/>
        <pt x="264" y="54" on="0"/>
        <pt x="303" y="82" on="0"/>
        <pt x="315" y="101" on="1"/>
      </contour>
    </TTGlyph>
    <TTGlyph name="dieresis" xMin="87" yMin="579" xMax="387" yMax="695">
      <contour>
        <pt x="203" y="623" on="1"/>
        <pt x="203" y="599" on="0"/>
        <pt x="187" y="579" on="0"/>
        <pt x="159" y="579" on="1"/>
        <pt x="132" y="579" on="1"/>
        <pt x="104" y="579" on="0"/>
        <pt x="87" y="598" on="0"/>
        <pt x="87" y="624" on="1"/>
        <pt x="87" y="650" on="1"/>
        <pt x="87" y="676" on="0"/>
        <pt x="105" y="695" on="0"/>
        <pt x="132" y="695" on="1"/>
        <pt x="159" y="695" on="1"/>
        <pt x="188" y="695" on="0"/>
        <pt x="203" y="673" on="0"/>
        <pt x="203" y="651" on="1"/>
      </contour>
      <contour>
        <pt x="387" y="624" on="1"/>
        <pt x="387" y="598" on="0"/>
        <pt x="369" y="579" on="0"/>
        <pt x="342" y="579" on="1"/>
        <pt x="315" y="579" on="1"/>
        <pt x="286" y="579" on="0"/>
        <pt x="271" y="601" on="0"/>
        <pt x="271" y="623" on="1"/>
        <pt x="271" y="651" on="1"/>
        <pt x="271" y="675" on="0"/>
        <pt x="287" y="695" on="0"/>
        <pt x="315" y="695" on="1"/>
        <pt x="342" y="695" on="1"/>
        <pt x="370" y="695" on="0"/>
        <pt x="387" y="676" on="0"/>
        <pt x="387" y="650" on="1"/>
      </contour>
    </TTGlyph>
    <TTGlyph name="dollar" xMin="42" yMin="-56" xMax="421" yMax="750">
      <contour>
        <pt x="269" y="415" on="1"/>
        <pt x="305" y="407" on="0"/>
        <pt x="362" y="368" on="0"/>
        <pt x="401" y="311" on="0"/>
        <pt x="421" y="241" on="0"/>
        <pt x="421" y="202" on="1"/>
        <pt x="421" y="167" on="0"/>
        <pt x="407" y="98" on="0"/>
        <pt x="373" y="41" on="0"/>
        <pt x="314" y="-1" on="0"/>
        <pt x="269" y="-8" on="1"/>
        <pt x="269" y="-15" on="0"/>
        <pt x="268" y="-31" on="0"/>
        <pt x="262" y="-46" on="0"/>
        <pt x="249" y="-56" on="0"/>
        <pt x="237" y="-56" on="1"/>
        <pt x="225" y="-56" on="0"/>
        <pt x="212" y="-46" on="0"/>
        <pt x="206" y="-31" on="0"/>
        <pt x="205" y="-14" on="0"/>
        <pt x="205" y="-8" on="1"/>
        <pt x="178" y="-5" on="0"/>
        <pt x="128" y="9" on="0"/>
        <pt x="104" y="22" on="1"/>
        <pt x="102" y="23" on="0"/>
        <pt x="82" y="34" on="0"/>
        <pt x="60" y="49" on="0"/>
        <pt x="42" y="66" on="0"/>
        <pt x="42" y="72" on="1"/>
        <pt x="42" y="74" on="0"/>
        <pt x="45" y="91" on="0"/>
        <pt x="49" y="111" on="0"/>
        <pt x="52" y="129" on="0"/>
        <pt x="53" y="131" on="1"/>
        <pt x="53" y="133" on="0"/>
        <pt x="57" y="143" on="0"/>
        <pt x="64" y="143" on="1"/>
        <pt x="66" y="143" on="0"/>
        <pt x="71" y="141" on="0"/>
        <pt x="78" y="135" on="1"/>
        <pt x="90" y="125" on="0"/>
        <pt x="152" y="86" on="0"/>
        <pt x="205" y="78" on="1"/>
        <pt x="205" y="306" on="1"/>
        <pt x="173" y="313" on="0"/>
        <pt x="118" y="347" on="0"/>
        <pt x="77" y="399" on="0"/>
        <pt x="53" y="467" on="0"/>
        <pt x="53" y="506" on="1"/>
        <pt x="53" y="540" on="0"/>
        <pt x="68" y="605" on="0"/>
        <pt x="103" y="658" on="0"/>
        <pt x="162" y="696" on="0"/>
        <pt x="205" y="702" on="1"/>
        <pt x="205" y="708" on="0"/>
        <pt x="206" y="725" on="0"/>
        <pt x="212" y="740" on="0"/>
        <pt x="225" y="750" on="0"/>
        <pt x="237" y="750" on="1"/>
        <pt x="249" y="750" on="0"/>
        <pt x="262" y="740" on="0"/>
        <pt x="268" y="726" on="0"/>
        <pt x="269" y="709" on="0"/>
        <pt x="269" y="703" on="1"/>
        <pt x="314" y="698" on="0"/>
        <pt x="353" y="678" on="1"/>
        <pt x="355" y="677" on="0"/>
        <pt x="372" y="667" on="0"/>
        <pt x="390" y="655" on="0"/>
        <pt x="405" y="641" on="0"/>
        <pt x="405" y="635" on="1"/>
        <pt x="405" y="634" on="0"/>
        <pt x="402" y="616" on="0"/>
        <pt x="398" y="596" on="0"/>
        <pt x="395" y="578" on="0"/>
        <pt x="394" y="576" on="1"/>
        <pt x="394" y="574" on="0"/>
        <pt x="390" y="564" on="0"/>
        <pt x="383" y="564" on="1"/>
        <pt x="381" y="564" on="0"/>
        <pt x="376" y="566" on="0"/>
        <pt x="369" y="572" on="1"/>
        <pt x="346" y="590" on="0"/>
        <pt x="299" y="612" on="0"/>
        <pt x="269" y="616" on="1"/>
      </contour>
      <contour>
        <pt x="205" y="613" on="1"/>
        <pt x="187" y="608" on="0"/>
        <pt x="166" y="585" on="0"/>
        <pt x="155" y="559" on="0"/>
        <pt x="152" y="533" on="0"/>
        <pt x="152" y="524" on="1"/>
        <pt x="152" y="517" on="0"/>
        <pt x="155" y="494" on="0"/>
        <pt x="166" y="467" on="0"/>
        <pt x="187" y="442" on="0"/>
        <pt x="205" y="434" on="1"/>
      </contour>
      <contour>
        <pt x="269" y="82" on="1"/>
        <pt x="286" y="88" on="0"/>
        <pt x="306" y="111" on="0"/>
        <pt x="318" y="139" on="0"/>
        <pt x="322" y="170" on="0"/>
        <pt x="322" y="183" on="1"/>
        <pt x="322" y="189" on="0"/>
        <pt x="320" y="216" on="0"/>
        <pt x="309" y="247" on="0"/>
        <pt x="288" y="277" on="0"/>
        <pt x="269" y="287" on="1"/>
      </contour>
    </TTGlyph>
    <TTGlyph name="dotaccent" xMin="70" yMin="577" xMax="193" yMax="695">
      <contour>
        <pt x="193" y="624" on="1"/>
        <pt x="193" y="596" on="0"/>
        <pt x="174" y="577" on="0"/>
        <pt x="148" y="577" on="1"/>
        <pt x="115" y="577" on="1"/>
        <pt x="88" y="577" on="0"/>
        <pt x="70" y="597" on="0"/>
        <pt x="70" y="624" on="1"/>
        <pt x="70" y="648" on="1"/>
        <pt x="70" y="677" on="0"/>
        <pt x="89" y="695" on="0"/>
        <pt x="115" y="695" on="1"/>
        <pt x="148" y="695" on="1"/>
        <pt x="174" y="695" on="0"/>
        <pt x="193" y="677" on="0"/>
        <pt x="193" y="648" on="1"/>
      </contour>
    </TTGlyph>
    <TTGlyph name="dotlessi" xMin="55" yMin="0" xMax="163" yMax="472">
      <contour>
        <pt x="163" y="44" on="1"/>
        <pt x="163" y="18" on="0"/>
        <pt x="145" y="0" on="0"/>
        <pt x="119" y="0" on="1"/>
        <pt x="100" y="0" on="1"/>
        <pt x="73" y="0" on="0"/>
        <pt x="55" y="19" on="0"/>
        <pt x="55" y="45" on="1"/>
        <pt x="55" y="427" on="1"/>
        <pt x="55" y="454" on="0"/>
        <pt x="74" y="472" on="0"/>
        <pt x="100" y="472" on="1"/>
        <pt x="119" y="472" on="1"/>
        <pt x="148" y="472" on="0"/>
        <pt x="163" y="451" on="0"/>
        <pt x="163" y="428" on="1"/>
      </contour>
    </TTGlyph>
    <TTGlyph name="e" xMin="26" yMin="-10" xMax="411" yMax="487">
      <contour>
        <pt x="129" y="232" on="1"/>
        <pt x="129" y="221" on="0"/>
        <pt x="133" y="162" on="0"/>
        <pt x="155" y="101" on="0"/>
        <pt x="203" y="54" on="0"/>
        <pt x="247" y="54" on="1"/>
        <pt x="255" y="54" on="0"/>
        <pt x="284" y="58" on="0"/>
        <pt x="320" y="70" on="0"/>
        <pt x="358" y="95" on="0"/>
        <pt x="376" y="116" on="1"/>
        <pt x="384" y="125" on="0"/>
        <pt x="389" y="125" on="1"/>
        <pt x="397" y="125" on="0"/>
        <pt x="400" y="115" on="0"/>
        <pt x="402" y="101" on="1"/>
        <pt x="403" y="94" on="0"/>
        <pt x="405" y="71" on="0"/>
        <pt x="405" y="65" on="1"/>
        <pt x="405" y="58" on="0"/>
        <pt x="391" y="42" on="0"/>
        <pt x="371" y="27" on="0"/>
        <pt x="349" y="15" on="0"/>
        <pt x="342" y="12" on="1"/>
        <pt x="319" y="1" on="0"/>
        <pt x="271" y="-10" on="0"/>
        <pt x="243" y="-10" on="1"/>
        <pt x="206" y="-10" on="0"/>
        <pt x="129" y="13" on="0"/>
        <pt x="66" y="70" on="0"/>
        <pt x="26" y="166" on="0"/>
        <pt x="26" y="239" on="1"/>
        <pt x="26" y="313" on="0"/>
        <pt x="65" y="409" on="0"/>
        <pt x="126" y="465" on="0"/>
        <pt x="198" y="487" on="0"/>
        <pt x="231" y="487" on="1"/>
        <pt x="319" y="487" on="0"/>
        <pt x="411" y="378" on="0"/>
        <pt x="411" y="275" on="1"/>
        <pt x="411" y="248" on="0"/>
        <pt x="391" y="232" on="0"/>
        <pt x="367" y="232" on="1"/>
      </contour>
      <contour>
        <pt x="325" y="279" on="1"/>
        <pt x="324" y="298" on="0"/>
        <pt x="319" y="348" on="0"/>
        <pt x="301" y="392" on="0"/>
        <pt x="265" y="423" on="0"/>
        <pt x="232" y="423" on="1"/>
        <pt x="206" y="423" on="0"/>
        <pt x="169" y="398" on="0"/>
        <pt x="144" y="358" on="0"/>
        <pt x="132" y="306" on="0"/>
        <pt x="130" y="279" on="1"/>
      </contour>
    </TTGlyph>
    <TTGlyph name="eight" xMin="40" yMin="-19" xMax="434" yMax="713">
      <contour>
        <pt x="318" y="375" on="1"/>
        <pt x="376" y="356" on="0"/>
        <pt x="434" y="267" on="0"/>
        <pt x="434" y="199" on="1"/>
        <pt x="434" y="93" on="0"/>
        <pt x="330" y="-19" on="0"/>
        <pt x="237" y="-19" on="1"/>
        <pt x="147" y="-19" on="0"/>
        <pt x="40" y="90" on="0"/>
        <pt x="40" y="199" on="1"/>
        <pt x="40" y="227" on="0"/>
        <pt x="51" y="281" on="0"/>
        <pt x="78" y="327" on="0"/>
        <pt x="123" y="364" on="0"/>
        <pt x="156" y="375" on="1"/>
        <pt x="125" y="385" on="0"/>
        <pt x="85" y="418" on="0"/>
        <pt x="62" y="458" on="0"/>
        <pt x="53" y="503" on="0"/>
        <pt x="53" y="524" on="1"/>
        <pt x="53" y="610" on="0"/>
        <pt x="144" y="713" on="0"/>
        <pt x="237" y="713" on="1"/>
        <pt x="328" y="713" on="0"/>
        <pt x="421" y="612" on="0"/>
        <pt x="421" y="524" on="1"/>
        <pt x="421" y="504" on="0"/>
        <pt x="413" y="460" on="0"/>
        <pt x="390" y="419" on="0"/>
        <pt x="350" y="385" on="0"/>
      </contour>
      <contour>
        <pt x="237" y="407" on="1"/>
        <pt x="267" y="407" on="0"/>
        <pt x="300" y="430" on="0"/>
        <pt x="315" y="465" on="0"/>
        <pt x="318" y="505" on="0"/>
        <pt x="318" y="523" on="1"/>
        <pt x="318" y="541" on="0"/>
        <pt x="315" y="582" on="0"/>
        <pt x="300" y="616" on="0"/>
        <pt x="267" y="638" on="0"/>
        <pt x="237" y="638" on="1"/>
        <pt x="207" y="638" on="0"/>
        <pt x="174" y="616" on="0"/>
        <pt x="159" y="582" on="0"/>
        <pt x="156" y="542" on="0"/>
        <pt x="156" y="523" on="1"/>
        <pt x="156" y="505" on="0"/>
        <pt x="159" y="465" on="0"/>
        <pt x="174" y="430" on="0"/>
        <pt x="207" y="407" on="0"/>
      </contour>
      <contour>
        <pt x="237" y="61" on="1"/>
        <pt x="268" y="61" on="0"/>
        <pt x="302" y="88" on="0"/>
        <pt x="317" y="130" on="0"/>
        <pt x="320" y="179" on="0"/>
        <pt x="320" y="201" on="1"/>
        <pt x="320" y="222" on="0"/>
        <pt x="317" y="272" on="0"/>
        <pt x="302" y="314" on="0"/>
        <pt x="268" y="343" on="0"/>
        <pt x="237" y="343" on="1"/>
        <pt x="206" y="343" on="0"/>
        <pt x="172" y="314" on="0"/>
        <pt x="157" y="272" on="0"/>
        <pt x="154" y="222" on="0"/>
        <pt x="154" y="201" on="1"/>
        <pt x="154" y="179" on="0"/>
        <pt x="157" y="130" on="0"/>
        <pt x="172" y="88" on="0"/>
        <pt x="206" y="61" on="0"/>
      </contour>
    </TTGlyph>
    <TTGlyph name="emdash" xMin="0" yMin="260" xMax="949" yMax="324">
      <contour>
        <pt x="44" y="260" on="1"/>
        <pt x="39" y="260" on="0"/>
        <pt x="24" y="261" on="0"/>
        <pt x="10" y="267" on="0"/>
        <pt x="0" y="280" on="0"/>
        <pt x="0" y="292" on="1"/>
        <pt x="0" y="304" on="0"/>
        <pt x="10" y="317" on="0"/>
        <pt x="24" y="323" on="0"/>
        <pt x="39" y="324" on="0"/>
        <pt x="44" y="324" on="1"/>
        <pt x="905" y="324" on="1"/>
        <pt x="910" y="324" on="0"/>
        <pt x="925" y="323" on="0"/>
        <pt x="939" y="317" on="0"/>
        <pt x="949" y="304" on="0"/>
        <pt x="949" y="292" on="1"/>
        <pt x="949" y="280" on="0"/>
        <pt x="939" y="267" on="0"/>
        <pt x="925" y="261" on="0"/>
        <pt x="910" y="260" on="0"/>
        <pt x="905" y="260" on="1"/>
      </contour>
    </TTGlyph>
    <TTGlyph name="endash" xMin="0" yMin="260" xMax="474" yMax="324">
      <contour>
        <pt x="44" y="260" on="1"/>
        <pt x="39" y="260" on="0"/>
        <pt x="24" y="261" on="0"/>
        <pt x="10" y="267" on="0"/>
        <pt x="0" y="280" on="0"/>
        <pt x="0" y="292" on="1"/>
        <pt x="0" y="304" on="0"/>
        <pt x="10" y="317" on="0"/>
        <pt x="24" y="323" on="0"/>
        <pt x="39" y="324" on="0"/>
        <pt x="44" y="324" on="1"/>
        <pt x="430" y="324" on="1"/>
        <pt x="435" y="324" on="0"/>
        <pt x="450" y="323" on="0"/>
        <pt x="464" y="317" on="0"/>
        <pt x="474" y="304" on="0"/>
        <pt x="474" y="292" on="1"/>
        <pt x="474" y="280" on="0"/>
        <pt x="464" y="267" on="0"/>
        <pt x="450" y="261" on="0"/>
        <pt x="435" y="260" on="0"/>
        <pt x="430" y="260" on="1"/>
      </contour>
    </TTGlyph>
    <TTGlyph name="equal" xMin="53" yMin="115" xMax="685" yMax="413">
      <contour>
        <pt x="98" y="343" on="1"/>
        <pt x="94" y="343" on="0"/>
        <pt x="78" y="344" on="0"/>
        <pt x="64" y="351" on="0"/>
        <pt x="53" y="365" on="0"/>
        <pt x="53" y="378" on="1"/>
        <pt x="53" y="391" on="0"/>
        <pt x="65" y="405" on="0"/>
        <pt x="82" y="412" on="0"/>
        <pt x="99" y="413" on="0"/>
        <pt x="104" y="413" on="1"/>
        <pt x="634" y="413" on="1"/>
        <pt x="639" y="413" on="0"/>
        <pt x="657" y="412" on="0"/>
        <pt x="673" y="405" on="0"/>
        <pt x="685" y="391" on="0"/>
        <pt x="685" y="378" on="1"/>
        <pt x="685" y="365" on="0"/>
        <pt x="674" y="351" on="0"/>
        <pt x="660" y="344" on="0"/>
        <pt x="645" y="343" on="0"/>
        <pt x="640" y="343" on="1"/>
      </contour>
      <contour>
        <pt x="104" y="115" on="1"/>
        <pt x="99" y="115" on="0"/>
        <pt x="82" y="116" on="0"/>
        <pt x="65" y="123" on="0"/>
        <pt x="53" y="137" on="0"/>
        <pt x="53" y="150" on="1"/>
        <pt x="53" y="163" on="0"/>
        <pt x="64" y="177" on="0"/>
        <pt x="78" y="184" on="0"/>
        <pt x="94" y="185" on="0"/>
        <pt x="98" y="185" on="1"/>
        <pt x="640" y="185" on="1"/>
        <pt x="645" y="185" on="0"/>
        <pt x="660" y="184" on="0"/>
        <pt x="674" y="177" on="0"/>
        <pt x="685" y="163" on="0"/>
        <pt x="685" y="150" on="1"/>
        <pt x="685" y="137" on="0"/>
        <pt x="673" y="123" on="0"/>
        <pt x="657" y="116" on="0"/>
        <pt x="639" y="115" on="0"/>
        <pt x="634" y="115" on="1"/>
      </contour>
    </TTGlyph>
    <TTGlyph name="exclam" xMin="100" yMin="0" xMax="206" yMax="694">
      <contour>
        <pt x="181" y="694" on="1"/>
        <pt x="198" y="694" on="0"/>
        <pt x="206" y="688" on="0"/>
        <pt x="206" y="671" on="1"/>
        <pt x="206" y="611" on="0"/>
        <pt x="202" y="489" on="0"/>
        <pt x="201" y="429" on="1"/>
        <pt x="201" y="417" on="0"/>
        <pt x="199" y="345" on="0"/>
        <pt x="198" y="265" on="0"/>
        <pt x="196" y="199" on="0"/>
        <pt x="196" y="193" on="1"/>
        <pt x="194" y="185" on="0"/>
        <pt x="183" y="183" on="0"/>
        <pt x="170" y="183" on="1"/>
        <pt x="136" y="183" on="1"/>
        <pt x="121" y="183" on="0"/>
        <pt x="114" y="185" on="0"/>
        <pt x="112" y="190" on="1"/>
        <pt x="111" y="192" on="0"/>
        <pt x="108" y="260" on="0"/>
        <pt x="106" y="362" on="0"/>
        <pt x="103" y="482" on="0"/>
        <pt x="101" y="588" on="0"/>
        <pt x="100" y="664" on="0"/>
        <pt x="100" y="671" on="1"/>
        <pt x="100" y="688" on="0"/>
        <pt x="108" y="694" on="0"/>
        <pt x="126" y="694" on="1"/>
      </contour>
      <contour>
        <pt x="206" y="44" on="1"/>
        <pt x="206" y="18" on="0"/>
        <pt x="188" y="0" on="0"/>
        <pt x="162" y="0" on="1"/>
        <pt x="145" y="0" on="1"/>
        <pt x="118" y="0" on="0"/>
        <pt x="100" y="19" on="0"/>
        <pt x="100" y="45" on="1"/>
        <pt x="100" y="62" on="1"/>
        <pt x="100" y="88" on="0"/>
        <pt x="118" y="106" on="0"/>
        <pt x="144" y="106" on="1"/>
        <pt x="162" y="106" on="1"/>
        <pt x="191" y="106" on="0"/>
        <pt x="206" y="85" on="0"/>
        <pt x="206" y="62" on="1"/>
      </contour>
    </TTGlyph>
    <TTGlyph name="exclamdown" xMin="100" yMin="-167" xMax="206" yMax="528">
      <contour>
        <pt x="206" y="466" on="1"/>
        <pt x="206" y="440" on="0"/>
        <pt x="188" y="422" on="0"/>
        <pt x="162" y="422" on="1"/>
        <pt x="144" y="422" on="1"/>
        <pt x="115" y="422" on="0"/>
        <pt x="100" y="443" on="0"/>
        <pt x="100" y="466" on="1"/>
        <pt x="100" y="483" on="1"/>
        <pt x="100" y="510" on="0"/>
        <pt x="119" y="528" on="0"/>
        <pt x="145" y="528" on="1"/>
        <pt x="162" y="528" on="1"/>
        <pt x="191" y="528" on="0"/>
        <pt x="206" y="507" on="0"/>
        <pt x="206" y="484" on="1"/>
      </contour>
      <contour>
        <pt x="170" y="345" on="1"/>
        <pt x="185" y="345" on="0"/>
        <pt x="192" y="343" on="0"/>
        <pt x="194" y="339" on="1"/>
        <pt x="195" y="338" on="0"/>
        <pt x="196" y="298" on="0"/>
        <pt x="198" y="233" on="0"/>
        <pt x="200" y="150" on="0"/>
        <pt x="202" y="62" on="0"/>
        <pt x="204" y="-23" on="0"/>
        <pt x="205" y="-92" on="0"/>
        <pt x="206" y="-139" on="0"/>
        <pt x="206" y="-144" on="1"/>
        <pt x="206" y="-161" on="0"/>
        <pt x="198" y="-167" on="0"/>
        <pt x="181" y="-167" on="1"/>
        <pt x="126" y="-167" on="1"/>
        <pt x="108" y="-167" on="0"/>
        <pt x="100" y="-161" on="0"/>
        <pt x="100" y="-144" on="1"/>
        <pt x="100" y="-84" on="0"/>
        <pt x="104" y="39" on="0"/>
        <pt x="105" y="99" on="1"/>
        <pt x="105" y="113" on="0"/>
        <pt x="106" y="183" on="0"/>
        <pt x="108" y="260" on="0"/>
        <pt x="109" y="325" on="0"/>
        <pt x="110" y="334" on="1"/>
        <pt x="111" y="342" on="0"/>
        <pt x="124" y="345" on="0"/>
        <pt x="136" y="345" on="1"/>
      </contour>
    </TTGlyph>
    <TTGlyph name="f" xMin="25" yMin="0" xMax="329" yMax="704">
      <contour>
        <pt x="186" y="44" on="1"/>
        <pt x="186" y="18" on="0"/>
        <pt x="168" y="0" on="0"/>
        <pt x="142" y="0" on="1"/>
        <pt x="123" y="0" on="1"/>
        <pt x="96" y="0" on="0"/>
        <pt x="78" y="19" on="0"/>
        <pt x="78" y="45" on="1"/>
        <pt x="78" y="408" on="1"/>
        <pt x="69" y="408" on="0"/>
        <pt x="50" y="409" on="0"/>
        <pt x="35" y="415" on="0"/>
        <pt x="25" y="428" on="0"/>
        <pt x="25" y="440" on="1"/>
        <pt x="25" y="452" on="0"/>
        <pt x="35" y="465" on="0"/>
        <pt x="51" y="471" on="0"/>
        <pt x="69" y="472" on="0"/>
        <pt x="78" y="472" on="1"/>
        <pt x="78" y="549" on="1"/>
        <pt x="78" y="621" on="0"/>
        <pt x="161" y="704" on="0"/>
        <pt x="244" y="704" on="1"/>
        <pt x="251" y="704" on="0"/>
        <pt x="280" y="703" on="0"/>
        <pt x="300" y="699" on="1"/>
        <pt x="321" y="695" on="0"/>
        <pt x="329" y="686" on="0"/>
        <pt x="329" y="668" on="1"/>
        <pt x="329" y="640" on="1"/>
        <pt x="329" y="628" on="0"/>
        <pt x="326" y="615" on="0"/>
        <pt x="318" y="615" on="1"/>
        <pt x="315" y="615" on="0"/>
        <pt x="310" y="617" on="0"/>
        <pt x="305" y="621" on="1"/>
        <pt x="288" y="633" on="0"/>
        <pt x="258" y="640" on="0"/>
        <pt x="244" y="640" on="1"/>
        <pt x="221" y="640" on="0"/>
        <pt x="196" y="626" on="0"/>
        <pt x="185" y="606" on="0"/>
        <pt x="183" y="583" on="0"/>
        <pt x="183" y="574" on="1"/>
        <pt x="183" y="472" on="1"/>
        <pt x="227" y="472" on="1"/>
        <pt x="232" y="472" on="0"/>
        <pt x="247" y="471" on="0"/>
        <pt x="261" y="465" on="0"/>
        <pt x="271" y="452" on="0"/>
        <pt x="271" y="440" on="1"/>
        <pt x="271" y="428" on="0"/>
        <pt x="261" y="415" on="0"/>
        <pt x="247" y="409" on="0"/>
        <pt x="232" y="408" on="0"/>
        <pt x="227" y="408" on="1"/>
        <pt x="186" y="408" on="1"/>
      </contour>
    </TTGlyph>
    <TTGlyph name="f_f" xMin="25" yMin="0" xMax="593" yMax="704">
      <contour>
        <pt x="186" y="44" on="1"/>
        <pt x="186" y="18" on="0"/>
        <pt x="168" y="0" on="0"/>
        <pt x="142" y="0" on="1"/>
        <pt x="123" y="0" on="1"/>
        <pt x="96" y="0" on="0"/>
        <pt x="78" y="19" on="0"/>
        <pt x="78" y="45" on="1"/>
        <pt x="78" y="408" on="1"/>
        <pt x="69" y="408" on="0"/>
        <pt x="50" y="409" on="0"/>
        <pt x="35" y="415" on="0"/>
        <pt x="25" y="428" on="0"/>
        <pt x="25" y="440" on="1"/>
        <pt x="25" y="452" on="0"/>
        <pt x="35" y="465" on="0"/>
        <pt x="51" y="471" on="0"/>
        <pt x="69" y="472" on="0"/>
        <pt x="78" y="472" on="1"/>
        <pt x="78" y="549" on="1"/>
        <pt x="78" y="619" on="0"/>
        <pt x="158" y="704" on="0"/>
        <pt x="245" y="704" on="1"/>
        <pt x="252" y="704" on="0"/>
        <pt x="281" y="703" on="0"/>
        <pt x="301" y="699" on="1"/>
        <pt x="322" y="695" on="0"/>
        <pt x="330" y="686" on="0"/>
        <pt x="330" y="668" on="1"/>
        <pt x="330" y="640" on="1"/>
        <pt x="330" y="628" on="0"/>
        <pt x="327" y="615" on="0"/>
        <pt x="319" y="615" on="1"/>
        <pt x="316" y="615" on="0"/>
        <pt x="311" y="617" on="0"/>
        <pt x="306" y="621" on="1"/>
        <pt x="291" y="632" on="0"/>
        <pt x="260" y="640" on="0"/>
        <pt x="245" y="640" on="1"/>
        <pt x="222" y="640" on="0"/>
        <pt x="197" y="626" on="0"/>
        <pt x="185" y="606" on="0"/>
        <pt x="183" y="583" on="0"/>
        <pt x="183" y="574" on="1"/>
        <pt x="183" y="472" on="1"/>
        <pt x="228" y="472" on="1"/>
        <pt x="233" y="472" on="0"/>
        <pt x="248" y="471" on="0"/>
        <pt x="262" y="465" on="0"/>
        <pt x="272" y="452" on="0"/>
        <pt x="272" y="440" on="1"/>
        <pt x="272" y="428" on="0"/>
        <pt x="262" y="415" on="0"/>
        <pt x="248" y="409" on="0"/>
        <pt x="233" y="408" on="0"/>
        <pt x="228" y="408" on="1"/>
        <pt x="186" y="408" on="1"/>
      </contour>
      <contour>
        <pt x="449" y="44" on="1"/>
        <pt x="449" y="18" on="0"/>
        <pt x="431" y="0" on="0"/>
        <pt x="405" y="0" on="1"/>
        <pt x="385" y="0" on="1"/>
        <pt x="356" y="0" on="0"/>
        <pt x="341" y="21" on="0"/>
        <pt x="341" y="44" on="1"/>
        <pt x="341" y="549" on="1"/>
        <pt x="341" y="619" on="0"/>
        <pt x="421" y="704" on="0"/>
        <pt x="508" y="704" on="1"/>
        <pt x="515" y="704" on="0"/>
        <pt x="544" y="703" on="0"/>
        <pt x="564" y="699" on="1"/>
        <pt x="585" y="695" on="0"/>
        <pt x="593" y="686" on="0"/>
        <pt x="593" y="668" on="1"/>
        <pt x="593" y="640" on="1"/>
        <pt x="593" y="628" on="0"/>
        <pt x="590" y="615" on="0"/>
        <pt x="582" y="615" on="1"/>
        <pt x="579" y="615" on="0"/>
        <pt x="574" y="617" on="0"/>
        <pt x="569" y="621" on="1"/>
        <pt x="554" y="632" on="0"/>
        <pt x="523" y="640" on="0"/>
        <pt x="508" y="640" on="1"/>
        <pt x="485" y="640" on="0"/>
        <pt x="460" y="626" on="0"/>
        <pt x="448" y="606" on="0"/>
        <pt x="446" y="583" on="0"/>
        <pt x="446" y="574" on="1"/>
        <pt x="446" y="472" on="1"/>
        <pt x="491" y="472" on="1"/>
        <pt x="496" y="472" on="0"/>
        <pt x="511" y="471" on="0"/>
        <pt x="525" y="465" on="0"/>
        <pt x="535" y="452" on="0"/>
        <pt x="535" y="440" on="1"/>
        <pt x="535" y="428" on="0"/>
        <pt x="525" y="415" on="0"/>
        <pt x="511" y="409" on="0"/>
        <pt x="496" y="408" on="0"/>
        <pt x="491" y="408" on="1"/>
        <pt x="449" y="408" on="1"/>
      </contour>
    </TTGlyph>
    <TTGlyph name="f_f_i" xMin="25" yMin="0" xMax="713" yMax="704">
      <contour>
        <pt x="713" y="628" on="1"/>
        <pt x="713" y="602" on="0"/>
        <pt x="695" y="584" on="0"/>
        <pt x="669" y="584" on="1"/>
        <pt x="646" y="584" on="1"/>
        <pt x="617" y="584" on="0"/>
        <pt x="602" y="605" on="0"/>
        <pt x="602" y="628" on="1"/>
        <pt x="602" y="651" on="1"/>
        <pt x="602" y="677" on="0"/>
        <pt x="620" y="695" on="0"/>
        <pt x="646" y="695" on="1"/>
        <pt x="669" y="695" on="1"/>
        <pt x="698" y="695" on="0"/>
        <pt x="713" y="674" on="0"/>
        <pt x="713" y="651" on="1"/>
      </contour>
      <contour>
        <pt x="604" y="428" on="1"/>
        <pt x="604" y="454" on="0"/>
        <pt x="622" y="472" on="0"/>
        <pt x="648" y="472" on="1"/>
        <pt x="668" y="472" on="1"/>
        <pt x="697" y="472" on="0"/>
        <pt x="712" y="451" on="0"/>
        <pt x="712" y="428" on="1"/>
        <pt x="712" y="44" on="1"/>
        <pt x="712" y="18" on="0"/>
        <pt x="694" y="0" on="0"/>
        <pt x="668" y="0" on="1"/>
        <pt x="648" y="0" on="1"/>
        <pt x="619" y="0" on="0"/>
        <pt x="604" y="21" on="0"/>
        <pt x="604" y="44" on="1"/>
      </contour>
      <contour>
        <pt x="341" y="552" on="1"/>
        <pt x="341" y="630" on="0"/>
        <pt x="418" y="704" on="0"/>
        <pt x="478" y="704" on="1"/>
        <pt x="486" y="704" on="0"/>
        <pt x="506" y="703" on="0"/>
        <pt x="523" y="698" on="1"/>
        <pt x="537" y="694" on="0"/>
        <pt x="543" y="687" on="0"/>
        <pt x="543" y="670" on="1"/>
        <pt x="543" y="638" on="1"/>
        <pt x="543" y="626" on="0"/>
        <pt x="540" y="613" on="0"/>
        <pt x="532" y="613" on="1"/>
        <pt x="527" y="613" on="0"/>
        <pt x="520" y="621" on="1"/>
        <pt x="504" y="640" on="0"/>
        <pt x="479" y="640" on="1"/>
        <pt x="468" y="640" on="0"/>
        <pt x="455" y="629" on="0"/>
        <pt x="448" y="611" on="0"/>
        <pt x="446" y="589" on="0"/>
        <pt x="446" y="578" on="1"/>
        <pt x="446" y="472" on="1"/>
        <pt x="499" y="472" on="1"/>
        <pt x="504" y="472" on="0"/>
        <pt x="519" y="471" on="0"/>
        <pt x="533" y="465" on="0"/>
        <pt x="543" y="452" on="0"/>
        <pt x="543" y="440" on="1"/>
        <pt x="543" y="428" on="0"/>
        <pt x="533" y="415" on="0"/>
        <pt x="519" y="409" on="0"/>
        <pt x="504" y="408" on="0"/>
        <pt x="499" y="408" on="1"/>
        <pt x="449" y="408" on="1"/>
        <pt x="449" y="44" on="1"/>
        <pt x="449" y="18" on="0"/>
        <pt x="431" y="0" on="0"/>
        <pt x="405" y="0" on="1"/>
        <pt x="386" y="0" on="1"/>
        <pt x="359" y="0" on="0"/>
        <pt x="341" y="19" on="0"/>
        <pt x="341" y="45" on="1"/>
      </contour>
      <contour>
        <pt x="186" y="44" on="1"/>
        <pt x="186" y="18" on="0"/>
        <pt x="168" y="0" on="0"/>
        <pt x="142" y="0" on="1"/>
        <pt x="123" y="0" on="1"/>
        <pt x="96" y="0" on="0"/>
        <pt x="78" y="19" on="0"/>
        <pt x="78" y="45" on="1"/>
        <pt x="78" y="408" on="1"/>
        <pt x="69" y="408" on="0"/>
        <pt x="50" y="409" on="0"/>
        <pt x="35" y="415" on="0"/>
        <pt x="25" y="428" on="0"/>
        <pt x="25" y="440" on="1"/>
        <pt x="25" y="452" on="0"/>
        <pt x="35" y="465" on="0"/>
        <pt x="51" y="471" on="0"/>
        <pt x="69" y="472" on="0"/>
        <pt x="78" y="472" on="1"/>
        <pt x="78" y="550" on="1"/>
        <pt x="78" y="625" on="0"/>
        <pt x="157" y="704" on="0"/>
        <pt x="229" y="704" on="1"/>
        <pt x="237" y="704" on="0"/>
        <pt x="259" y="703" on="0"/>
        <pt x="278" y="699" on="1"/>
        <pt x="297" y="695" on="0"/>
        <pt x="303" y="685" on="0"/>
        <pt x="303" y="668" on="1"/>
        <pt x="303" y="640" on="1"/>
        <pt x="303" y="628" on="0"/>
        <pt x="300" y="615" on="0"/>
        <pt x="292" y="615" on="1"/>
        <pt x="288" y="615" on="0"/>
        <pt x="283" y="618" on="0"/>
        <pt x="281" y="620" on="1"/>
        <pt x="259" y="640" on="0"/>
        <pt x="229" y="640" on="1"/>
        <pt x="212" y="640" on="0"/>
        <pt x="193" y="626" on="0"/>
        <pt x="184" y="606" on="0"/>
        <pt x="183" y="584" on="0"/>
        <pt x="183" y="576" on="1"/>
        <pt x="183" y="472" on="1"/>
        <pt x="236" y="472" on="1"/>
        <pt x="241" y="472" on="0"/>
        <pt x="256" y="471" on="0"/>
        <pt x="270" y="465" on="0"/>
        <pt x="280" y="452" on="0"/>
        <pt x="280" y="440" on="1"/>
        <pt x="280" y="428" on="0"/>
        <pt x="270" y="415" on="0"/>
        <pt x="256" y="409" on="0"/>
        <pt x="241" y="408" on="0"/>
        <pt x="236" y="408" on="1"/>
        <pt x="186" y="408" on="1"/>
      </contour>
    </TTGlyph>
    <TTGlyph name="f_f_l" xMin="25" yMin="0" xMax="712" yMax="704">
      <contour>
        <pt x="186" y="44" on="1"/>
        <pt x="186" y="18" on="0"/>
        <pt x="168" y="0" on="0"/>
        <pt x="142" y="0" on="1"/>
        <pt x="123" y="0" on="1"/>
        <pt x="96" y="0" on="0"/>
        <pt x="78" y="19" on="0"/>
        <pt x="78" y="45" on="1"/>
        <pt x="78" y="408" on="1"/>
        <pt x="69" y="408" on="0"/>
        <pt x="50" y="409" on="0"/>
        <pt x="35" y="415" on="0"/>
        <pt x="25" y="428" on="0"/>
        <pt x="25" y="440" on="1"/>
        <pt x="25" y="452" on="0"/>
        <pt x="35" y="465" on="0"/>
        <pt x="51" y="471" on="0"/>
        <pt x="69" y="472" on="0"/>
        <pt x="78" y="472" on="1"/>
        <pt x="78" y="550" on="1"/>
        <pt x="78" y="625" on="0"/>
        <pt x="157" y="704" on="0"/>
        <pt x="229" y="704" on="1"/>
        <pt x="237" y="704" on="0"/>
        <pt x="259" y="703" on="0"/>
        <pt x="278" y="699" on="1"/>
        <pt x="297" y="695" on="0"/>
        <pt x="303" y="685" on="0"/>
        <pt x="303" y="668" on="1"/>
        <pt x="303" y="640" on="1"/>
        <pt x="303" y="628" on="0"/>
        <pt x="300" y="615" on="0"/>
        <pt x="292" y="615" on="1"/>
        <pt x="288" y="615" on="0"/>
        <pt x="283" y="618" on="0"/>
        <pt x="281" y="620" on="1"/>
        <pt x="259" y="640" on="0"/>
        <pt x="229" y="640" on="1"/>
        <pt x="212" y="640" on="0"/>
        <pt x="193" y="626" on="0"/>
        <pt x="184" y="606" on="0"/>
        <pt x="183" y="584" on="0"/>
        <pt x="183" y="576" on="1"/>
        <pt x="183" y="472" on="1"/>
        <pt x="236" y="472" on="1"/>
        <pt x="241" y="472" on="0"/>
        <pt x="256" y="471" on="0"/>
        <pt x="270" y="465" on="0"/>
        <pt x="280" y="452" on="0"/>
        <pt x="280" y="440" on="1"/>
        <pt x="280" y="428" on="0"/>
        <pt x="270" y="415" on="0"/>
        <pt x="256" y="409" on="0"/>
        <pt x="241" y="408" on="0"/>
        <pt x="236" y="408" on="1"/>
        <pt x="186" y="408" on="1"/>
      </contour>
      <contour>
        <pt x="712" y="44" on="1"/>
        <pt x="712" y="18" on="0"/>
        <pt x="694" y="0" on="0"/>
        <pt x="668" y="0" on="1"/>
        <pt x="648" y="0" on="1"/>
        <pt x="619" y="0" on="0"/>
        <pt x="604" y="21" on="0"/>
        <pt x="604" y="44" on="1"/>
        <pt x="604" y="650" on="1"/>
        <pt x="604" y="676" on="0"/>
        <pt x="622" y="694" on="0"/>
        <pt x="648" y="694" on="1"/>
        <pt x="668" y="694" on="1"/>
        <pt x="697" y="694" on="0"/>
        <pt x="712" y="673" on="0"/>
        <pt x="712" y="650" on="1"/>
      </contour>
      <contour>
        <pt x="449" y="44" on="1"/>
        <pt x="449" y="18" on="0"/>
        <pt x="431" y="0" on="0"/>
        <pt x="405" y="0" on="1"/>
        <pt x="386" y="0" on="1"/>
        <pt x="359" y="0" on="0"/>
        <pt x="341" y="19" on="0"/>
        <pt x="341" y="45" on="1"/>
        <pt x="341" y="552" on="1"/>
        <pt x="341" y="593" on="0"/>
        <pt x="363" y="651" on="0"/>
        <pt x="400" y="687" on="0"/>
        <pt x="450" y="704" on="0"/>
        <pt x="477" y="704" on="1"/>
        <pt x="485" y="704" on="0"/>
        <pt x="505" y="703" on="0"/>
        <pt x="521" y="698" on="1"/>
        <pt x="538" y="694" on="0"/>
        <pt x="543" y="685" on="0"/>
        <pt x="543" y="668" on="1"/>
        <pt x="543" y="640" on="1"/>
        <pt x="543" y="628" on="0"/>
        <pt x="540" y="615" on="0"/>
        <pt x="532" y="615" on="1"/>
        <pt x="527" y="615" on="0"/>
        <pt x="522" y="620" on="1"/>
        <pt x="505" y="640" on="0"/>
        <pt x="479" y="640" on="1"/>
        <pt x="468" y="640" on="0"/>
        <pt x="455" y="629" on="0"/>
        <pt x="448" y="611" on="0"/>
        <pt x="446" y="589" on="0"/>
        <pt x="446" y="578" on="1"/>
        <pt x="446" y="472" on="1"/>
        <pt x="499" y="472" on="1"/>
        <pt x="504" y="472" on="0"/>
        <pt x="519" y="471" on="0"/>
        <pt x="533" y="465" on="0"/>
        <pt x="543" y="452" on="0"/>
        <pt x="543" y="440" on="1"/>
        <pt x="543" y="428" on="0"/>
        <pt x="533" y="415" on="0"/>
        <pt x="519" y="409" on="0"/>
        <pt x="504" y="408" on="0"/>
        <pt x="499" y="408" on="1"/>
        <pt x="449" y="408" on="1"/>
      </contour>
    </TTGlyph>
    <TTGlyph name="fi" xMin="25" yMin="0" xMax="450" yMax="704">
      <contour>
        <pt x="450" y="628" on="1"/>
        <pt x="450" y="602" on="0"/>
        <pt x="432" y="584" on="0"/>
        <pt x="406" y="584" on="1"/>
        <pt x="383" y="584" on="1"/>
        <pt x="354" y="584" on="0"/>
        <pt x="339" y="605" on="0"/>
        <pt x="339" y="628" on="1"/>
        <pt x="339" y="651" on="1"/>
        <pt x="339" y="677" on="0"/>
        <pt x="357" y="695" on="0"/>
        <pt x="383" y="695" on="1"/>
        <pt x="406" y="695" on="1"/>
        <pt x="435" y="695" on="0"/>
        <pt x="450" y="674" on="0"/>
        <pt x="450" y="651" on="1"/>
      </contour>
      <contour>
        <pt x="341" y="428" on="1"/>
        <pt x="341" y="454" on="0"/>
        <pt x="359" y="472" on="0"/>
        <pt x="385" y="472" on="1"/>
        <pt x="405" y="472" on="1"/>
        <pt x="434" y="472" on="0"/>
        <pt x="449" y="451" on="0"/>
        <pt x="449" y="428" on="1"/>
        <pt x="449" y="44" on="1"/>
        <pt x="449" y="18" on="0"/>
        <pt x="431" y="0" on="0"/>
        <pt x="405" y="0" on="1"/>
        <pt x="385" y="0" on="1"/>
        <pt x="356" y="0" on="0"/>
        <pt x="341" y="21" on="0"/>
        <pt x="341" y="44" on="1"/>
      </contour>
      <contour>
        <pt x="78" y="408" on="1"/>
        <pt x="69" y="408" on="0"/>
        <pt x="50" y="409" on="0"/>
        <pt x="35" y="415" on="0"/>
        <pt x="25" y="428" on="0"/>
        <pt x="25" y="440" on="1"/>
        <pt x="25" y="452" on="0"/>
        <pt x="35" y="465" on="0"/>
        <pt x="51" y="471" on="0"/>
        <pt x="69" y="472" on="0"/>
        <pt x="78" y="472" on="1"/>
        <pt x="78" y="552" on="1"/>
        <pt x="78" y="593" on="0"/>
        <pt x="100" y="651" on="0"/>
        <pt x="137" y="687" on="0"/>
        <pt x="187" y="704" on="0"/>
        <pt x="214" y="704" on="1"/>
        <pt x="222" y="704" on="0"/>
        <pt x="242" y="703" on="0"/>
        <pt x="258" y="698" on="1"/>
        <pt x="275" y="694" on="0"/>
        <pt x="280" y="685" on="0"/>
        <pt x="280" y="668" on="1"/>
        <pt x="280" y="637" on="1"/>
        <pt x="280" y="626" on="0"/>
        <pt x="277" y="612" on="0"/>
        <pt x="269" y="612" on="1"/>
        <pt x="264" y="612" on="0"/>
        <pt x="256" y="620" on="1"/>
        <pt x="253" y="624" on="0"/>
        <pt x="235" y="640" on="0"/>
        <pt x="216" y="640" on="1"/>
        <pt x="205" y="640" on="0"/>
        <pt x="192" y="629" on="0"/>
        <pt x="185" y="611" on="0"/>
        <pt x="183" y="589" on="0"/>
        <pt x="183" y="578" on="1"/>
        <pt x="183" y="472" on="1"/>
        <pt x="236" y="472" on="1"/>
        <pt x="241" y="472" on="0"/>
        <pt x="256" y="471" on="0"/>
        <pt x="270" y="465" on="0"/>
        <pt x="280" y="452" on="0"/>
        <pt x="280" y="440" on="1"/>
        <pt x="280" y="428" on="0"/>
        <pt x="270" y="415" on="0"/>
        <pt x="256" y="409" on="0"/>
        <pt x="241" y="408" on="0"/>
        <pt x="236" y="408" on="1"/>
        <pt x="186" y="408" on="1"/>
        <pt x="186" y="44" on="1"/>
        <pt x="186" y="18" on="0"/>
        <pt x="168" y="0" on="0"/>
        <pt x="142" y="0" on="1"/>
        <pt x="123" y="0" on="1"/>
        <pt x="96" y="0" on="0"/>
        <pt x="78" y="19" on="0"/>
        <pt x="78" y="45" on="1"/>
      </contour>
    </TTGlyph>
    <TTGlyph name="five" xMin="33" yMin="-19" xMax="427" yMax="694">
      <contour>
        <pt x="176" y="433" on="1"/>
        <pt x="208" y="448" on="0"/>
        <pt x="245" y="448" on="1"/>
        <pt x="296" y="448" on="0"/>
        <pt x="365" y="410" on="0"/>
        <pt x="408" y="347" on="0"/>
        <pt x="427" y="264" on="0"/>
        <pt x="427" y="220" on="1"/>
        <pt x="427" y="168" on="0"/>
        <pt x="401" y="80" on="0"/>
        <pt x="348" y="16" on="0"/>
        <pt x="267" y="-19" on="0"/>
        <pt x="211" y="-19" on="1"/>
        <pt x="165" y="-19" on="0"/>
        <pt x="97" y="14" on="0"/>
        <pt x="54" y="55" on="0"/>
        <pt x="33" y="92" on="0"/>
        <pt x="33" y="96" on="1"/>
        <pt x="33" y="96" on="0"/>
        <pt x="41" y="116" on="0"/>
        <pt x="53" y="140" on="0"/>
        <pt x="66" y="159" on="0"/>
        <pt x="71" y="159" on="1"/>
        <pt x="76" y="159" on="0"/>
        <pt x="81" y="153" on="0"/>
        <pt x="82" y="150" on="1"/>
        <pt x="96" y="117" on="0"/>
        <pt x="136" y="80" on="0"/>
        <pt x="175" y="64" on="0"/>
        <pt x="205" y="61" on="0"/>
        <pt x="208" y="61" on="1"/>
        <pt x="244" y="61" on="0"/>
        <pt x="284" y="93" on="0"/>
        <pt x="302" y="141" on="0"/>
        <pt x="305" y="198" on="0"/>
        <pt x="305" y="223" on="1"/>
        <pt x="305" y="247" on="0"/>
        <pt x="303" y="303" on="0"/>
        <pt x="291" y="351" on="0"/>
        <pt x="266" y="384" on="0"/>
        <pt x="243" y="384" on="1"/>
        <pt x="222" y="384" on="0"/>
        <pt x="192" y="370" on="0"/>
        <pt x="170" y="350" on="0"/>
        <pt x="157" y="330" on="0"/>
        <pt x="153" y="324" on="1"/>
        <pt x="145" y="310" on="0"/>
        <pt x="129" y="304" on="0"/>
        <pt x="114" y="304" on="1"/>
        <pt x="98" y="304" on="0"/>
        <pt x="81" y="312" on="0"/>
        <pt x="73" y="324" on="0"/>
        <pt x="71" y="341" on="0"/>
        <pt x="71" y="350" on="1"/>
        <pt x="71" y="648" on="1"/>
        <pt x="71" y="674" on="0"/>
        <pt x="88" y="694" on="0"/>
        <pt x="116" y="694" on="1"/>
        <pt x="351" y="694" on="1"/>
        <pt x="376" y="694" on="0"/>
        <pt x="395" y="677" on="0"/>
        <pt x="395" y="651" on="1"/>
        <pt x="395" y="624" on="0"/>
        <pt x="375" y="608" on="0"/>
        <pt x="351" y="608" on="1"/>
        <pt x="176" y="608" on="1"/>
      </contour>
    </TTGlyph>
    <TTGlyph name="fl" xMin="25" yMin="0" xMax="449" yMax="704">
      <contour>
        <pt x="186" y="44" on="1"/>
        <pt x="186" y="18" on="0"/>
        <pt x="168" y="0" on="0"/>
        <pt x="142" y="0" on="1"/>
        <pt x="123" y="0" on="1"/>
        <pt x="96" y="0" on="0"/>
        <pt x="78" y="19" on="0"/>
        <pt x="78" y="45" on="1"/>
        <pt x="78" y="408" on="1"/>
        <pt x="69" y="408" on="0"/>
        <pt x="50" y="409" on="0"/>
        <pt x="35" y="415" on="0"/>
        <pt x="25" y="428" on="0"/>
        <pt x="25" y="440" on="1"/>
        <pt x="25" y="452" on="0"/>
        <pt x="35" y="465" on="0"/>
        <pt x="51" y="471" on="0"/>
        <pt x="69" y="472" on="0"/>
        <pt x="78" y="472" on="1"/>
        <pt x="78" y="552" on="1"/>
        <pt x="78" y="593" on="0"/>
        <pt x="100" y="651" on="0"/>
        <pt x="137" y="687" on="0"/>
        <pt x="187" y="704" on="0"/>
        <pt x="214" y="704" on="1"/>
        <pt x="222" y="704" on="0"/>
        <pt x="242" y="703" on="0"/>
        <pt x="258" y="698" on="1"/>
        <pt x="275" y="694" on="0"/>
        <pt x="280" y="685" on="0"/>
        <pt x="280" y="668" on="1"/>
        <pt x="280" y="640" on="1"/>
        <pt x="280" y="628" on="0"/>
        <pt x="277" y="615" on="0"/>
        <pt x="269" y="615" on="1"/>
        <pt x="264" y="615" on="0"/>
        <pt x="259" y="620" on="1"/>
        <pt x="242" y="640" on="0"/>
        <pt x="216" y="640" on="1"/>
        <pt x="205" y="640" on="0"/>
        <pt x="192" y="629" on="0"/>
        <pt x="185" y="611" on="0"/>
        <pt x="183" y="589" on="0"/>
        <pt x="183" y="578" on="1"/>
        <pt x="183" y="472" on="1"/>
        <pt x="236" y="472" on="1"/>
        <pt x="241" y="472" on="0"/>
        <pt x="256" y="471" on="0"/>
        <pt x="270" y="465" on="0"/>
        <pt x="280" y="452" on="0"/>
        <pt x="280" y="440" on="1"/>
        <pt x="280" y="428" on="0"/>
        <pt x="270" y="415" on="0"/>
        <pt x="256" y="409" on="0"/>
        <pt x="241" y="408" on="0"/>
        <pt x="236" y="408" on="1"/>
        <pt x="186" y="408" on="1"/>
      </contour>
      <contour>
        <pt x="449" y="44" on="1"/>
        <pt x="449" y="18" on="0"/>
        <pt x="431" y="0" on="0"/>
        <pt x="405" y="0" on="1"/>
        <pt x="385" y="0" on="1"/>
        <pt x="356" y="0" on="0"/>
        <pt x="341" y="21" on="0"/>
        <pt x="341" y="44" on="1"/>
        <pt x="341" y="650" on="1"/>
        <pt x="341" y="676" on="0"/>
        <pt x="359" y="694" on="0"/>
        <pt x="385" y="694" on="1"/>
        <pt x="405" y="694" on="1"/>
        <pt x="434" y="694" on="0"/>
        <pt x="449" y="673" on="0"/>
        <pt x="449" y="650" on="1"/>
      </contour>
    </TTGlyph>
    <TTGlyph name="four" xMin="26" yMin="0" xMax="448" yMax="694">
      <contour>
        <pt x="230" y="670" on="1"/>
        <pt x="238" y="687" on="0"/>
        <pt x="254" y="694" on="0"/>
        <pt x="272" y="694" on="1"/>
        <pt x="324" y="694" on="1"/>
        <pt x="350" y="694" on="0"/>
        <pt x="368" y="676" on="0"/>
        <pt x="368" y="650" on="1"/>
        <pt x="368" y="247" on="1"/>
        <pt x="404" y="247" on="1"/>
        <pt x="412" y="247" on="0"/>
        <pt x="428" y="246" on="0"/>
        <pt x="440" y="238" on="0"/>
        <pt x="448" y="221" on="0"/>
        <pt x="448" y="206" on="1"/>
        <pt x="448" y="191" on="0"/>
        <pt x="440" y="175" on="0"/>
        <pt x="427" y="167" on="0"/>
        <pt x="412" y="166" on="0"/>
        <pt x="404" y="166" on="1"/>
        <pt x="368" y="166" on="1"/>
        <pt x="368" y="44" on="1"/>
        <pt x="368" y="18" on="0"/>
        <pt x="350" y="0" on="0"/>
        <pt x="324" y="0" on="1"/>
        <pt x="307" y="0" on="1"/>
        <pt x="278" y="0" on="0"/>
        <pt x="263" y="21" on="0"/>
        <pt x="263" y="44" on="1"/>
        <pt x="263" y="166" on="1"/>
        <pt x="70" y="166" on="1"/>
        <pt x="41" y="166" on="0"/>
        <pt x="26" y="187" on="0"/>
        <pt x="26" y="210" on="1"/>
        <pt x="26" y="228" on="1"/>
        <pt x="26" y="241" on="0"/>
        <pt x="28" y="250" on="0"/>
        <pt x="33" y="261" on="1"/>
      </contour>
      <contour>
        <pt x="269" y="247" on="1"/>
        <pt x="269" y="604" on="1"/>
        <pt x="269" y="600" on="0"/>
        <pt x="263" y="580" on="0"/>
        <pt x="254" y="555" on="0"/>
        <pt x="243" y="529" on="0"/>
        <pt x="238" y="517" on="1"/>
        <pt x="221" y="475" on="0"/>
        <pt x="182" y="390" on="0"/>
        <pt x="147" y="316" on="0"/>
        <pt x="120" y="260" on="0"/>
        <pt x="114" y="247" on="1"/>
      </contour>
    </TTGlyph>
    <TTGlyph name="g" xMin="32" yMin="-187" xMax="426" yMax="482">
      <contour>
        <pt x="426" y="27" on="1"/>
        <pt x="426" y="-14" on="0"/>
        <pt x="406" y="-91" on="0"/>
        <pt x="361" y="-151" on="0"/>
        <pt x="287" y="-187" on="0"/>
        <pt x="233" y="-187" on="1"/>
        <pt x="208" y="-187" on="0"/>
        <pt x="128" y="-176" on="0"/>
        <pt x="82" y="-154" on="1"/>
        <pt x="71" y="-148" on="0"/>
        <pt x="66" y="-140" on="0"/>
        <pt x="66" y="-124" on="1"/>
        <pt x="66" y="-101" on="1"/>
        <pt x="66" y="-90" on="0"/>
        <pt x="69" y="-75" on="0"/>
        <pt x="77" y="-75" on="1"/>
        <pt x="79" y="-75" on="0"/>
        <pt x="84" y="-77" on="0"/>
        <pt x="90" y="-82" on="1"/>
        <pt x="112" y="-96" on="0"/>
        <pt x="181" y="-123" on="0"/>
        <pt x="231" y="-123" on="1"/>
        <pt x="278" y="-123" on="0"/>
        <pt x="315" y="-54" on="0"/>
        <pt x="315" y="0" on="1"/>
        <pt x="315" y="93" on="1"/>
        <pt x="314" y="93" on="1"/>
        <pt x="304" y="66" on="0"/>
        <pt x="275" y="37" on="0"/>
        <pt x="247" y="24" on="0"/>
        <pt x="222" y="21" on="0"/>
        <pt x="214" y="21" on="1"/>
        <pt x="165" y="21" on="0"/>
        <pt x="96" y="56" on="0"/>
        <pt x="52" y="115" on="0"/>
        <pt x="32" y="194" on="0"/>
        <pt x="32" y="238" on="1"/>
        <pt x="32" y="283" on="0"/>
        <pt x="52" y="371" on="0"/>
        <pt x="96" y="440" on="0"/>
        <pt x="169" y="482" on="0"/>
        <pt x="221" y="482" on="1"/>
        <pt x="247" y="482" on="0"/>
        <pt x="297" y="458" on="0"/>
        <pt x="318" y="424" on="1"/>
        <pt x="318" y="439" on="0"/>
        <pt x="319" y="461" on="0"/>
        <pt x="328" y="475" on="0"/>
        <pt x="346" y="482" on="0"/>
        <pt x="362" y="482" on="1"/>
        <pt x="382" y="482" on="1"/>
        <pt x="411" y="482" on="0"/>
        <pt x="426" y="461" on="0"/>
        <pt x="426" y="438" on="1"/>
      </contour>
      <contour>
        <pt x="318" y="335" on="1"/>
        <pt x="318" y="351" on="0"/>
        <pt x="308" y="381" on="0"/>
        <pt x="289" y="404" on="0"/>
        <pt x="263" y="418" on="0"/>
        <pt x="247" y="418" on="1"/>
        <pt x="215" y="418" on="0"/>
        <pt x="174" y="383" on="0"/>
        <pt x="151" y="329" on="0"/>
        <pt x="143" y="266" on="0"/>
        <pt x="143" y="238" on="1"/>
        <pt x="143" y="228" on="0"/>
        <pt x="146" y="178" on="0"/>
        <pt x="163" y="126" on="0"/>
        <pt x="201" y="85" on="0"/>
        <pt x="236" y="85" on="1"/>
        <pt x="274" y="85" on="0"/>
        <pt x="314" y="162" on="0"/>
        <pt x="315" y="248" on="1"/>
        <pt x="315" y="257" on="0"/>
        <pt x="316" y="264" on="0"/>
        <pt x="318" y="272" on="1"/>
      </contour>
    </TTGlyph>
    <TTGlyph name="germandbls" xMin="56" yMin="-10" xMax="441" yMax="704">
      <contour>
        <pt x="346" y="437" on="1"/>
        <pt x="375" y="417" on="0"/>
        <pt x="411" y="362" on="0"/>
        <pt x="433" y="298" on="0"/>
        <pt x="441" y="227" on="0"/>
        <pt x="441" y="192" on="1"/>
        <pt x="441" y="184" on="0"/>
        <pt x="439" y="148" on="0"/>
        <pt x="430" y="103" on="0"/>
        <pt x="409" y="55" on="0"/>
        <pt x="371" y="16" on="0"/>
        <pt x="313" y="-10" on="0"/>
        <pt x="270" y="-10" on="1"/>
        <pt x="258" y="-10" on="0"/>
        <pt x="231" y="-5" on="0"/>
        <pt x="207" y="2" on="0"/>
        <pt x="192" y="12" on="0"/>
        <pt x="192" y="18" on="1"/>
        <pt x="192" y="20" on="0"/>
        <pt x="194" y="28" on="0"/>
        <pt x="200" y="47" on="1"/>
        <pt x="205" y="60" on="0"/>
        <pt x="210" y="69" on="0"/>
        <pt x="217" y="69" on="1"/>
        <pt x="219" y="69" on="0"/>
        <pt x="223" y="66" on="1"/>
        <pt x="228" y="64" on="0"/>
        <pt x="252" y="54" on="0"/>
        <pt x="267" y="54" on="1"/>
        <pt x="291" y="54" on="0"/>
        <pt x="317" y="84" on="0"/>
        <pt x="329" y="128" on="0"/>
        <pt x="331" y="175" on="0"/>
        <pt x="331" y="192" on="1"/>
        <pt x="331" y="211" on="0"/>
        <pt x="328" y="280" on="0"/>
        <pt x="310" y="350" on="0"/>
        <pt x="272" y="404" on="0"/>
        <pt x="236" y="408" on="1"/>
        <pt x="223" y="410" on="0"/>
        <pt x="217" y="417" on="0"/>
        <pt x="217" y="434" on="1"/>
        <pt x="217" y="446" on="1"/>
        <pt x="217" y="463" on="0"/>
        <pt x="221" y="470" on="0"/>
        <pt x="234" y="472" on="1"/>
        <pt x="247" y="474" on="0"/>
        <pt x="272" y="482" on="0"/>
        <pt x="292" y="503" on="0"/>
        <pt x="304" y="539" on="0"/>
        <pt x="304" y="569" on="1"/>
        <pt x="304" y="583" on="0"/>
        <pt x="300" y="609" on="0"/>
        <pt x="285" y="629" on="0"/>
        <pt x="257" y="640" on="0"/>
        <pt x="234" y="640" on="1"/>
        <pt x="209" y="640" on="0"/>
        <pt x="181" y="626" on="0"/>
        <pt x="167" y="605" on="0"/>
        <pt x="164" y="578" on="0"/>
        <pt x="164" y="565" on="1"/>
        <pt x="164" y="44" on="1"/>
        <pt x="164" y="18" on="0"/>
        <pt x="146" y="0" on="0"/>
        <pt x="120" y="0" on="1"/>
        <pt x="101" y="0" on="1"/>
        <pt x="74" y="0" on="0"/>
        <pt x="56" y="19" on="0"/>
        <pt x="56" y="45" on="1"/>
        <pt x="56" y="567" on="1"/>
        <pt x="56" y="611" on="0"/>
        <pt x="91" y="664" on="0"/>
        <pt x="144" y="694" on="0"/>
        <pt x="207" y="704" on="0"/>
        <pt x="235" y="704" on="1"/>
        <pt x="264" y="704" on="0"/>
        <pt x="327" y="693" on="0"/>
        <pt x="380" y="663" on="0"/>
        <pt x="414" y="611" on="0"/>
        <pt x="414" y="570" on="1"/>
        <pt x="414" y="531" on="0"/>
        <pt x="381" y="458" on="0"/>
      </contour>
    </TTGlyph>
    <TTGlyph name="grave" xMin="80" yMin="546" xMax="281" yMax="694">
      <contour>
        <pt x="90" y="668" on="1"/>
        <pt x="85" y="673" on="0"/>
        <pt x="80" y="678" on="0"/>
        <pt x="80" y="683" on="1"/>
        <pt x="80" y="691" on="0"/>
        <pt x="94" y="694" on="0"/>
        <pt x="105" y="694" on="1"/>
        <pt x="165" y="694" on="1"/>
        <pt x="179" y="694" on="0"/>
        <pt x="187" y="691" on="0"/>
        <pt x="193" y="683" on="1"/>
        <pt x="275" y="571" on="1"/>
        <pt x="280" y="564" on="0"/>
        <pt x="281" y="558" on="0"/>
        <pt x="281" y="557" on="1"/>
        <pt x="281" y="549" on="0"/>
        <pt x="269" y="546" on="0"/>
        <pt x="257" y="546" on="1"/>
        <pt x="225" y="546" on="1"/>
      </contour>
    </TTGlyph>
    <TTGlyph name="h" xMin="54" yMin="0" xMax="428" yMax="694">
      <contour>
        <pt x="428" y="44" on="1"/>
        <pt x="428" y="18" on="0"/>
        <pt x="410" y="0" on="0"/>
        <pt x="384" y="0" on="1"/>
        <pt x="361" y="0" on="1"/>
        <pt x="332" y="0" on="0"/>
        <pt x="317" y="21" on="0"/>
        <pt x="317" y="44" on="1"/>
        <pt x="317" y="338" on="1"/>
        <pt x="317" y="380" on="0"/>
        <pt x="295" y="418" on="0"/>
        <pt x="263" y="418" on="1"/>
        <pt x="245" y="418" on="0"/>
        <pt x="210" y="401" on="0"/>
        <pt x="182" y="368" on="0"/>
        <pt x="165" y="317" on="0"/>
        <pt x="165" y="283" on="1"/>
        <pt x="165" y="44" on="1"/>
        <pt x="165" y="18" on="0"/>
        <pt x="147" y="0" on="0"/>
        <pt x="121" y="0" on="1"/>
        <pt x="99" y="0" on="1"/>
        <pt x="72" y="0" on="0"/>
        <pt x="54" y="19" on="0"/>
        <pt x="54" y="45" on="1"/>
        <pt x="54" y="649" on="1"/>
        <pt x="54" y="676" on="0"/>
        <pt x="73" y="694" on="0"/>
        <pt x="99" y="694" on="1"/>
        <pt x="118" y="694" on="1"/>
        <pt x="147" y="694" on="0"/>
        <pt x="162" y="673" on="0"/>
        <pt x="162" y="650" on="1"/>
        <pt x="162" y="387" on="1"/>
        <pt x="163" y="387" on="1"/>
        <pt x="169" y="401" on="0"/>
        <pt x="191" y="434" on="0"/>
        <pt x="224" y="463" on="0"/>
        <pt x="270" y="482" on="0"/>
        <pt x="300" y="482" on="1"/>
        <pt x="339" y="482" on="0"/>
        <pt x="388" y="461" on="0"/>
        <pt x="417" y="423" on="0"/>
        <pt x="428" y="372" on="0"/>
        <pt x="428" y="342" on="1"/>
      </contour>
    </TTGlyph>
    <TTGlyph name="hungarumlaut" xMin="100" yMin="546" xMax="394" yMax="694">
      <contour>
        <pt x="168" y="560" on="1"/>
        <pt x="162" y="549" on="0"/>
        <pt x="154" y="546" on="0"/>
        <pt x="139" y="546" on="1"/>
        <pt x="126" y="546" on="1"/>
        <pt x="114" y="546" on="0"/>
        <pt x="100" y="549" on="0"/>
        <pt x="100" y="558" on="1"/>
        <pt x="124" y="673" on="1"/>
        <pt x="127" y="688" on="0"/>
        <pt x="134" y="694" on="0"/>
        <pt x="151" y="694" on="1"/>
        <pt x="212" y="694" on="1"/>
        <pt x="224" y="694" on="0"/>
        <pt x="236" y="691" on="0"/>
        <pt x="236" y="683" on="1"/>
        <pt x="236" y="681" on="0"/>
        <pt x="235" y="677" on="0"/>
        <pt x="230" y="669" on="1"/>
      </contour>
      <contour>
        <pt x="326" y="560" on="1"/>
        <pt x="320" y="549" on="0"/>
        <pt x="312" y="546" on="0"/>
        <pt x="297" y="546" on="1"/>
        <pt x="284" y="546" on="1"/>
        <pt x="272" y="546" on="0"/>
        <pt x="258" y="549" on="0"/>
        <pt x="258" y="558" on="1"/>
        <pt x="282" y="673" on="1"/>
        <pt x="285" y="688" on="0"/>
        <pt x="292" y="694" on="0"/>
        <pt x="309" y="694" on="1"/>
        <pt x="370" y="694" on="1"/>
        <pt x="382" y="694" on="0"/>
        <pt x="394" y="691" on="0"/>
        <pt x="394" y="683" on="1"/>
        <pt x="394" y="681" on="0"/>
        <pt x="393" y="677" on="0"/>
        <pt x="388" y="669" on="1"/>
      </contour>
    </TTGlyph>
    <TTGlyph name="hyphen" xMin="11" yMin="204" xMax="263" yMax="268">
      <contour>
        <pt x="55" y="204" on="1"/>
        <pt x="50" y="204" on="0"/>
        <pt x="35" y="205" on="0"/>
        <pt x="21" y="211" on="0"/>
        <pt x="11" y="224" on="0"/>
        <pt x="11" y="236" on="1"/>
        <pt x="11" y="248" on="0"/>
        <pt x="21" y="261" on="0"/>
        <pt x="35" y="267" on="0"/>
        <pt x="50" y="268" on="0"/>
        <pt x="55" y="268" on="1"/>
        <pt x="219" y="268" on="1"/>
        <pt x="224" y="268" on="0"/>
        <pt x="239" y="267" on="0"/>
        <pt x="253" y="261" on="0"/>
        <pt x="263" y="248" on="0"/>
        <pt x="263" y="236" on="1"/>
        <pt x="263" y="224" on="0"/>
        <pt x="253" y="211" on="0"/>
        <pt x="239" y="205" on="0"/>
        <pt x="224" y="204" on="0"/>
        <pt x="219" y="204" on="1"/>
      </contour>
    </TTGlyph>
    <TTGlyph name="i" xMin="48" yMin="0" xMax="170" yMax="695">
      <contour>
        <pt x="170" y="620" on="1"/>
        <pt x="170" y="591" on="0"/>
        <pt x="151" y="573" on="0"/>
        <pt x="125" y="573" on="1"/>
        <pt x="92" y="573" on="1"/>
        <pt x="63" y="573" on="0"/>
        <pt x="48" y="594" on="0"/>
        <pt x="48" y="615" on="1"/>
        <pt x="48" y="653" on="1"/>
        <pt x="48" y="679" on="0"/>
        <pt x="67" y="695" on="0"/>
        <pt x="92" y="695" on="1"/>
        <pt x="125" y="695" on="1"/>
        <pt x="151" y="695" on="0"/>
        <pt x="170" y="677" on="0"/>
        <pt x="170" y="648" on="1"/>
      </contour>
      <contour>
        <pt x="55" y="427" on="1"/>
        <pt x="55" y="454" on="0"/>
        <pt x="74" y="472" on="0"/>
        <pt x="100" y="472" on="1"/>
        <pt x="119" y="472" on="1"/>
        <pt x="148" y="472" on="0"/>
        <pt x="163" y="451" on="0"/>
        <pt x="163" y="428" on="1"/>
        <pt x="163" y="44" on="1"/>
        <pt x="163" y="18" on="0"/>
        <pt x="145" y="0" on="0"/>
        <pt x="119" y="0" on="1"/>
        <pt x="100" y="0" on="1"/>
        <pt x="73" y="0" on="0"/>
        <pt x="55" y="19" on="0"/>
        <pt x="55" y="45" on="1"/>
      </contour>
    </TTGlyph>
    <TTGlyph name="j" xMin="-62" yMin="-177" xMax="190" yMax="695">
      <contour>
        <pt x="190" y="617" on="1"/>
        <pt x="190" y="591" on="0"/>
        <pt x="172" y="573" on="0"/>
        <pt x="146" y="573" on="1"/>
        <pt x="112" y="573" on="1"/>
        <pt x="83" y="573" on="0"/>
        <pt x="68" y="594" on="0"/>
        <pt x="68" y="617" on="1"/>
        <pt x="68" y="651" on="1"/>
        <pt x="68" y="677" on="0"/>
        <pt x="86" y="695" on="0"/>
        <pt x="112" y="695" on="1"/>
        <pt x="146" y="695" on="1"/>
        <pt x="175" y="695" on="0"/>
        <pt x="190" y="674" on="0"/>
        <pt x="190" y="651" on="1"/>
      </contour>
      <contour>
        <pt x="82" y="428" on="1"/>
        <pt x="82" y="454" on="0"/>
        <pt x="100" y="472" on="0"/>
        <pt x="126" y="472" on="1"/>
        <pt x="146" y="472" on="1"/>
        <pt x="175" y="472" on="0"/>
        <pt x="190" y="451" on="0"/>
        <pt x="190" y="428" on="1"/>
        <pt x="190" y="-25" on="1"/>
        <pt x="190" y="-102" on="0"/>
        <pt x="120" y="-177" on="0"/>
        <pt x="62" y="-177" on="1"/>
        <pt x="43" y="-177" on="0"/>
        <pt x="0" y="-169" on="0"/>
        <pt x="-37" y="-157" on="0"/>
        <pt x="-62" y="-143" on="0"/>
        <pt x="-62" y="-136" on="1"/>
        <pt x="-62" y="-133" on="0"/>
        <pt x="-57" y="-112" on="0"/>
        <pt x="-55" y="-106" on="1"/>
        <pt x="-53" y="-95" on="0"/>
        <pt x="-48" y="-84" on="0"/>
        <pt x="-41" y="-84" on="1"/>
        <pt x="-39" y="-84" on="0"/>
        <pt x="-35" y="-85" on="0"/>
        <pt x="-27" y="-90" on="1"/>
        <pt x="-20" y="-95" on="0"/>
        <pt x="7" y="-104" on="0"/>
        <pt x="25" y="-104" on="1"/>
        <pt x="46" y="-104" on="0"/>
        <pt x="70" y="-91" on="0"/>
        <pt x="80" y="-72" on="0"/>
        <pt x="82" y="-50" on="0"/>
        <pt x="82" y="-41" on="1"/>
      </contour>
    </TTGlyph>
    <TTGlyph name="k" xMin="61" yMin="0" xMax="424" yMax="694">
      <contour>
        <pt x="417" y="37" on="1"/>
        <pt x="422" y="29" on="0"/>
        <pt x="424" y="24" on="0"/>
        <pt x="424" y="21" on="1"/>
        <pt x="424" y="5" on="0"/>
        <pt x="401" y="0" on="0"/>
        <pt x="390" y="0" on="1"/>
        <pt x="362" y="0" on="1"/>
        <pt x="350" y="0" on="0"/>
        <pt x="329" y="4" on="0"/>
        <pt x="321" y="15" on="1"/>
        <pt x="198" y="213" on="1"/>
        <pt x="156" y="169" on="1"/>
        <pt x="156" y="44" on="1"/>
        <pt x="156" y="18" on="0"/>
        <pt x="138" y="0" on="0"/>
        <pt x="112" y="0" on="1"/>
        <pt x="106" y="0" on="1"/>
        <pt x="79" y="0" on="0"/>
        <pt x="61" y="19" on="0"/>
        <pt x="61" y="45" on="1"/>
        <pt x="61" y="649" on="1"/>
        <pt x="61" y="676" on="0"/>
        <pt x="80" y="694" on="0"/>
        <pt x="106" y="694" on="1"/>
        <pt x="115" y="694" on="1"/>
        <pt x="144" y="694" on="0"/>
        <pt x="159" y="673" on="0"/>
        <pt x="159" y="650" on="1"/>
        <pt x="159" y="305" on="1"/>
        <pt x="293" y="452" on="1"/>
        <pt x="307" y="467" on="0"/>
        <pt x="328" y="472" on="0"/>
        <pt x="344" y="472" on="1"/>
        <pt x="377" y="472" on="1"/>
        <pt x="388" y="472" on="0"/>
        <pt x="410" y="467" on="0"/>
        <pt x="410" y="453" on="1"/>
        <pt x="410" y="448" on="0"/>
        <pt x="405" y="441" on="0"/>
        <pt x="398" y="433" on="1"/>
        <pt x="262" y="285" on="1"/>
      </contour>
    </TTGlyph>
    <TTGlyph name="l" xMin="55" yMin="0" xMax="163" yMax="694">
      <contour>
        <pt x="163" y="44" on="1"/>
        <pt x="163" y="18" on="0"/>
        <pt x="145" y="0" on="0"/>
        <pt x="119" y="0" on="1"/>
        <pt x="100" y="0" on="1"/>
        <pt x="73" y="0" on="0"/>
        <pt x="55" y="19" on="0"/>
        <pt x="55" y="45" on="1"/>
        <pt x="55" y="649" on="1"/>
        <pt x="55" y="676" on="0"/>
        <pt x="74" y="694" on="0"/>
        <pt x="100" y="694" on="1"/>
        <pt x="119" y="694" on="1"/>
        <pt x="148" y="694" on="0"/>
        <pt x="163" y="673" on="0"/>
        <pt x="163" y="650" on="1"/>
      </contour>
    </TTGlyph>
    <TTGlyph name="m" xMin="54" yMin="0" xMax="693" yMax="482">
      <contour>
        <pt x="693" y="44" on="1"/>
        <pt x="693" y="18" on="0"/>
        <pt x="675" y="0" on="0"/>
        <pt x="649" y="0" on="1"/>
        <pt x="627" y="0" on="1"/>
        <pt x="600" y="0" on="0"/>
        <pt x="582" y="19" on="0"/>
        <pt x="582" y="45" on="1"/>
        <pt x="582" y="338" on="1"/>
        <pt x="582" y="380" on="0"/>
        <pt x="560" y="418" on="0"/>
        <pt x="528" y="418" on="1"/>
        <pt x="510" y="418" on="0"/>
        <pt x="474" y="401" on="0"/>
        <pt x="446" y="367" on="0"/>
        <pt x="429" y="317" on="0"/>
        <pt x="429" y="283" on="1"/>
        <pt x="429" y="44" on="1"/>
        <pt x="429" y="18" on="0"/>
        <pt x="411" y="0" on="0"/>
        <pt x="385" y="0" on="1"/>
        <pt x="363" y="0" on="1"/>
        <pt x="336" y="0" on="0"/>
        <pt x="318" y="19" on="0"/>
        <pt x="318" y="45" on="1"/>
        <pt x="318" y="338" on="1"/>
        <pt x="318" y="380" on="0"/>
        <pt x="296" y="418" on="0"/>
        <pt x="264" y="418" on="1"/>
        <pt x="246" y="418" on="0"/>
        <pt x="210" y="401" on="0"/>
        <pt x="182" y="367" on="0"/>
        <pt x="165" y="317" on="0"/>
        <pt x="165" y="283" on="1"/>
        <pt x="165" y="44" on="1"/>
        <pt x="165" y="18" on="0"/>
        <pt x="147" y="0" on="0"/>
        <pt x="121" y="0" on="1"/>
        <pt x="99" y="0" on="1"/>
        <pt x="72" y="0" on="0"/>
        <pt x="54" y="19" on="0"/>
        <pt x="54" y="45" on="1"/>
        <pt x="54" y="433" on="1"/>
        <pt x="54" y="460" on="0"/>
        <pt x="73" y="478" on="0"/>
        <pt x="99" y="478" on="1"/>
        <pt x="115" y="478" on="1"/>
        <pt x="144" y="478" on="0"/>
        <pt x="159" y="457" on="0"/>
        <pt x="159" y="434" on="1"/>
        <pt x="159" y="381" on="1"/>
        <pt x="160" y="380" on="1"/>
        <pt x="165" y="392" on="0"/>
        <pt x="185" y="426" on="0"/>
        <pt x="218" y="459" on="0"/>
        <pt x="267" y="482" on="0"/>
        <pt x="300" y="482" on="1"/>
        <pt x="317" y="482" on="0"/>
        <pt x="357" y="476" on="0"/>
        <pt x="393" y="457" on="0"/>
        <pt x="421" y="418" on="0"/>
        <pt x="426" y="385" on="1"/>
        <pt x="445" y="425" on="0"/>
        <pt x="511" y="482" on="0"/>
        <pt x="564" y="482" on="1"/>
        <pt x="601" y="482" on="0"/>
        <pt x="651" y="463" on="0"/>
        <pt x="681" y="427" on="0"/>
        <pt x="693" y="375" on="0"/>
        <pt x="693" y="342" on="1"/>
      </contour>
    </TTGlyph>
    <TTGlyph name="macron" xMin="66" yMin="580" xMax="408" yMax="653">
      <contour>
        <pt x="92" y="580" on="1"/>
        <pt x="73" y="580" on="0"/>
        <pt x="66" y="587" on="0"/>
        <pt x="66" y="606" on="1"/>
        <pt x="66" y="627" on="1"/>
        <pt x="66" y="647" on="0"/>
        <pt x="73" y="653" on="0"/>
        <pt x="91" y="653" on="1"/>
        <pt x="383" y="653" on="1"/>
        <pt x="401" y="653" on="0"/>
        <pt x="408" y="647" on="0"/>
        <pt x="408" y="627" on="1"/>
        <pt x="408" y="606" on="1"/>
        <pt x="408" y="586" on="0"/>
        <pt x="401" y="580" on="0"/>
        <pt x="383" y="580" on="1"/>
      </contour>
    </TTGlyph>
    <TTGlyph name="n" xMin="54" yMin="0" xMax="428" yMax="482">
      <contour>
        <pt x="428" y="44" on="1"/>
        <pt x="428" y="18" on="0"/>
        <pt x="410" y="0" on="0"/>
        <pt x="384" y="0" on="1"/>
        <pt x="361" y="0" on="1"/>
        <pt x="332" y="0" on="0"/>
        <pt x="317" y="21" on="0"/>
        <pt x="317" y="44" on="1"/>
        <pt x="317" y="338" on="1"/>
        <pt x="317" y="380" on="0"/>
        <pt x="295" y="418" on="0"/>
        <pt x="263" y="418" on="1"/>
        <pt x="245" y="418" on="0"/>
        <pt x="210" y="401" on="0"/>
        <pt x="182" y="368" on="0"/>
        <pt x="165" y="317" on="0"/>
        <pt x="165" y="283" on="1"/>
        <pt x="165" y="44" on="1"/>
        <pt x="165" y="18" on="0"/>
        <pt x="147" y="0" on="0"/>
        <pt x="121" y="0" on="1"/>
        <pt x="99" y="0" on="1"/>
        <pt x="72" y="0" on="0"/>
        <pt x="54" y="19" on="0"/>
        <pt x="54" y="45" on="1"/>
        <pt x="54" y="433" on="1"/>
        <pt x="54" y="460" on="0"/>
        <pt x="73" y="478" on="0"/>
        <pt x="99" y="478" on="1"/>
        <pt x="115" y="478" on="1"/>
        <pt x="144" y="478" on="0"/>
        <pt x="159" y="457" on="0"/>
        <pt x="159" y="434" on="1"/>
        <pt x="159" y="380" on="1"/>
        <pt x="160" y="380" on="1"/>
        <pt x="169" y="401" on="0"/>
        <pt x="195" y="438" on="0"/>
        <pt x="229" y="466" on="0"/>
        <pt x="272" y="482" on="0"/>
        <pt x="300" y="482" on="1"/>
        <pt x="339" y="482" on="0"/>
        <pt x="388" y="461" on="0"/>
        <pt x="417" y="423" on="0"/>
        <pt x="428" y="372" on="0"/>
        <pt x="428" y="342" on="1"/>
      </contour>
    </TTGlyph>
    <TTGlyph name="nine" xMin="40" yMin="-19" xMax="434" yMax="713">
      <contour>
        <pt x="319" y="303" on="1"/>
        <pt x="299" y="257" on="0"/>
        <pt x="244" y="220" on="0"/>
        <pt x="208" y="220" on="1"/>
        <pt x="180" y="220" on="0"/>
        <pt x="137" y="234" on="0"/>
        <pt x="105" y="257" on="0"/>
        <pt x="81" y="288" on="0"/>
        <pt x="72" y="304" on="1"/>
        <pt x="48" y="346" on="0"/>
        <pt x="40" y="427" on="0"/>
        <pt x="40" y="462" on="1"/>
        <pt x="40" y="485" on="0"/>
        <pt x="42" y="530" on="0"/>
        <pt x="51" y="575" on="0"/>
        <pt x="72" y="621" on="0"/>
        <pt x="90" y="645" on="1"/>
        <pt x="119" y="681" on="0"/>
        <pt x="191" y="713" on="0"/>
        <pt x="239" y="713" on="1"/>
        <pt x="288" y="713" on="0"/>
        <pt x="355" y="673" on="0"/>
        <pt x="398" y="608" on="0"/>
        <pt x="421" y="528" on="0"/>
        <pt x="432" y="449" on="0"/>
        <pt x="434" y="379" on="0"/>
        <pt x="434" y="357" on="1"/>
        <pt x="434" y="328" on="0"/>
        <pt x="432" y="260" on="0"/>
        <pt x="420" y="186" on="0"/>
        <pt x="395" y="112" on="0"/>
        <pt x="373" y="77" on="1"/>
        <pt x="346" y="35" on="0"/>
        <pt x="254" y="-19" on="0"/>
        <pt x="197" y="-19" on="1"/>
        <pt x="164" y="-19" on="0"/>
        <pt x="117" y="-2" on="0"/>
        <pt x="85" y="19" on="0"/>
        <pt x="70" y="38" on="0"/>
        <pt x="70" y="41" on="1"/>
        <pt x="70" y="42" on="0"/>
        <pt x="79" y="61" on="0"/>
        <pt x="92" y="84" on="0"/>
        <pt x="105" y="102" on="0"/>
        <pt x="109" y="102" on="1"/>
        <pt x="115" y="102" on="0"/>
        <pt x="121" y="96" on="1"/>
        <pt x="129" y="87" on="0"/>
        <pt x="162" y="61" on="0"/>
        <pt x="196" y="61" on="1"/>
        <pt x="228" y="61" on="0"/>
        <pt x="285" y="103" on="0"/>
        <pt x="299" y="148" on="1"/>
        <pt x="305" y="165" on="0"/>
        <pt x="311" y="196" on="0"/>
        <pt x="315" y="231" on="0"/>
        <pt x="318" y="274" on="0"/>
      </contour>
      <contour>
        <pt x="231" y="284" on="1"/>
        <pt x="264" y="284" on="0"/>
        <pt x="299" y="328" on="0"/>
        <pt x="315" y="384" on="0"/>
        <pt x="318" y="434" on="0"/>
        <pt x="318" y="441" on="1"/>
        <pt x="318" y="479" on="0"/>
        <pt x="311" y="550" on="0"/>
        <pt x="294" y="605" on="0"/>
        <pt x="264" y="638" on="0"/>
        <pt x="240" y="638" on="1"/>
        <pt x="208" y="638" on="0"/>
        <pt x="174" y="605" on="0"/>
        <pt x="158" y="554" on="0"/>
        <pt x="155" y="491" on="0"/>
        <pt x="155" y="461" on="1"/>
        <pt x="155" y="431" on="0"/>
        <pt x="157" y="368" on="0"/>
        <pt x="172" y="317" on="0"/>
        <pt x="203" y="284" on="0"/>
      </contour>
    </TTGlyph>
    <TTGlyph name="numbersign" xMin="53" yMin="-167" xMax="738" yMax="694">
      <contour>
        <pt x="431" y="-138" on="1"/>
        <pt x="428" y="-149" on="0"/>
        <pt x="410" y="-167" on="0"/>
        <pt x="396" y="-167" on="1"/>
        <pt x="381" y="-167" on="0"/>
        <pt x="361" y="-146" on="0"/>
        <pt x="361" y="-132" on="1"/>
        <pt x="361" y="-128" on="0"/>
        <pt x="363" y="-122" on="0"/>
        <pt x="365" y="-112" on="1"/>
        <pt x="423" y="115" on="1"/>
        <pt x="292" y="115" on="1"/>
        <pt x="228" y="-138" on="1"/>
        <pt x="225" y="-149" on="0"/>
        <pt x="207" y="-167" on="0"/>
        <pt x="193" y="-167" on="1"/>
        <pt x="178" y="-167" on="0"/>
        <pt x="158" y="-146" on="0"/>
        <pt x="158" y="-132" on="1"/>
        <pt x="158" y="-128" on="0"/>
        <pt x="160" y="-122" on="0"/>
        <pt x="162" y="-112" on="1"/>
        <pt x="220" y="115" on="1"/>
        <pt x="104" y="115" on="1"/>
        <pt x="99" y="115" on="0"/>
        <pt x="82" y="116" on="0"/>
        <pt x="65" y="123" on="0"/>
        <pt x="53" y="137" on="0"/>
        <pt x="53" y="150" on="1"/>
        <pt x="53" y="163" on="0"/>
        <pt x="64" y="177" on="0"/>
        <pt x="78" y="184" on="0"/>
        <pt x="94" y="185" on="0"/>
        <pt x="98" y="185" on="1"/>
        <pt x="238" y="185" on="1"/>
        <pt x="278" y="343" on="1"/>
        <pt x="98" y="343" on="1"/>
        <pt x="94" y="343" on="0"/>
        <pt x="78" y="344" on="0"/>
        <pt x="64" y="351" on="0"/>
        <pt x="53" y="365" on="0"/>
        <pt x="53" y="378" on="1"/>
        <pt x="53" y="391" on="0"/>
        <pt x="65" y="405" on="0"/>
        <pt x="82" y="412" on="0"/>
        <pt x="99" y="413" on="0"/>
        <pt x="104" y="413" on="1"/>
        <pt x="297" y="413" on="1"/>
        <pt x="359" y="660" on="1"/>
        <pt x="360" y="663" on="0"/>
        <pt x="364" y="675" on="0"/>
        <pt x="372" y="686" on="0"/>
        <pt x="385" y="694" on="0"/>
        <pt x="395" y="694" on="1"/>
        <pt x="410" y="694" on="0"/>
        <pt x="430" y="673" on="0"/>
        <pt x="430" y="659" on="1"/>
        <pt x="430" y="655" on="0"/>
        <pt x="429" y="650" on="0"/>
        <pt x="426" y="639" on="1"/>
        <pt x="369" y="413" on="1"/>
        <pt x="500" y="413" on="1"/>
        <pt x="562" y="660" on="1"/>
        <pt x="563" y="663" on="0"/>
        <pt x="567" y="675" on="0"/>
        <pt x="575" y="686" on="0"/>
        <pt x="588" y="694" on="0"/>
        <pt x="598" y="694" on="1"/>
        <pt x="613" y="694" on="0"/>
        <pt x="633" y="673" on="0"/>
        <pt x="633" y="659" on="1"/>
        <pt x="633" y="655" on="0"/>
        <pt x="632" y="650" on="0"/>
        <pt x="629" y="639" on="1"/>
        <pt x="572" y="413" on="1"/>
        <pt x="687" y="413" on="1"/>
        <pt x="692" y="413" on="0"/>
        <pt x="710" y="412" on="0"/>
        <pt x="726" y="405" on="0"/>
        <pt x="738" y="391" on="0"/>
        <pt x="738" y="378" on="1"/>
        <pt x="738" y="365" on="0"/>
        <pt x="727" y="351" on="0"/>
        <pt x="713" y="344" on="0"/>
        <pt x="698" y="343" on="0"/>
        <pt x="693" y="343" on="1"/>
        <pt x="554" y="343" on="1"/>
        <pt x="514" y="185" on="1"/>
        <pt x="693" y="185" on="1"/>
        <pt x="698" y="185" on="0"/>
        <pt x="713" y="184" on="0"/>
        <pt x="727" y="177" on="0"/>
        <pt x="738" y="163" on="0"/>
        <pt x="738" y="150" on="1"/>
        <pt x="738" y="137" on="0"/>
        <pt x="726" y="123" on="0"/>
        <pt x="710" y="116" on="0"/>
        <pt x="692" y="115" on="0"/>
        <pt x="687" y="115" on="1"/>
        <pt x="495" y="115" on="1"/>
      </contour>
      <contour>
        <pt x="441" y="185" on="1"/>
        <pt x="481" y="343" on="1"/>
        <pt x="351" y="343" on="1"/>
        <pt x="311" y="185" on="1"/>
      </contour>
    </TTGlyph>
    <TTGlyph name="o" xMin="26" yMin="-10" xMax="448" yMax="487">
      <contour>
        <pt x="448" y="232" on="1"/>
        <pt x="448" y="180" on="0"/>
        <pt x="424" y="92" on="0"/>
        <pt x="373" y="27" on="0"/>
        <pt x="293" y="-10" on="0"/>
        <pt x="237" y="-10" on="1"/>
        <pt x="181" y="-10" on="0"/>
        <pt x="101" y="27" on="0"/>
        <pt x="50" y="92" on="0"/>
        <pt x="26" y="180" on="0"/>
        <pt x="26" y="232" on="1"/>
        <pt x="26" y="283" on="0"/>
        <pt x="49" y="376" on="0"/>
        <pt x="99" y="446" on="0"/>
        <pt x="180" y="487" on="0"/>
        <pt x="237" y="487" on="1"/>
        <pt x="295" y="487" on="0"/>
        <pt x="375" y="446" on="0"/>
        <pt x="425" y="376" on="0"/>
        <pt x="448" y="284" on="0"/>
      </contour>
      <contour>
        <pt x="237" y="60" on="1"/>
        <pt x="275" y="60" on="0"/>
        <pt x="315" y="99" on="0"/>
        <pt x="334" y="155" on="0"/>
        <pt x="337" y="219" on="0"/>
        <pt x="337" y="244" on="1"/>
        <pt x="337" y="269" on="0"/>
        <pt x="334" y="331" on="0"/>
        <pt x="315" y="386" on="0"/>
        <pt x="275" y="423" on="0"/>
        <pt x="237" y="423" on="1"/>
        <pt x="200" y="423" on="0"/>
        <pt x="159" y="386" on="0"/>
        <pt x="140" y="331" on="0"/>
        <pt x="137" y="269" on="0"/>
        <pt x="137" y="244" on="1"/>
        <pt x="137" y="219" on="0"/>
        <pt x="140" y="155" on="0"/>
        <pt x="159" y="99" on="0"/>
        <pt x="200" y="60" on="0"/>
      </contour>
    </TTGlyph>
    <TTGlyph name="oe" xMin="26" yMin="-10" xMax="712" yMax="487">
      <contour>
        <pt x="451" y="232" on="1"/>
        <pt x="451" y="216" on="0"/>
        <pt x="456" y="156" on="0"/>
        <pt x="477" y="98" on="0"/>
        <pt x="521" y="54" on="0"/>
        <pt x="560" y="54" on="1"/>
        <pt x="586" y="54" on="0"/>
        <pt x="649" y="79" on="0"/>
        <pt x="678" y="117" on="1"/>
        <pt x="684" y="125" on="0"/>
        <pt x="690" y="125" on="1"/>
        <pt x="698" y="125" on="0"/>
        <pt x="701" y="115" on="0"/>
        <pt x="703" y="101" on="1"/>
        <pt x="704" y="94" on="0"/>
        <pt x="706" y="71" on="0"/>
        <pt x="706" y="65" on="1"/>
        <pt x="706" y="59" on="0"/>
        <pt x="684" y="34" on="0"/>
        <pt x="645" y="9" on="0"/>
        <pt x="589" y="-10" on="0"/>
        <pt x="556" y="-10" on="1"/>
        <pt x="543" y="-10" on="0"/>
        <pt x="504" y="-6" on="0"/>
        <pt x="461" y="8" on="0"/>
        <pt x="416" y="35" on="0"/>
        <pt x="397" y="57" on="1"/>
        <pt x="362" y="18" on="0"/>
        <pt x="277" y="-10" on="0"/>
        <pt x="237" y="-10" on="1"/>
        <pt x="181" y="-10" on="0"/>
        <pt x="101" y="29" on="0"/>
        <pt x="50" y="97" on="0"/>
        <pt x="26" y="188" on="0"/>
        <pt x="26" y="239" on="1"/>
        <pt x="26" y="290" on="0"/>
        <pt x="49" y="381" on="0"/>
        <pt x="100" y="448" on="0"/>
        <pt x="180" y="487" on="0"/>
        <pt x="237" y="487" on="1"/>
        <pt x="282" y="487" on="0"/>
        <pt x="364" y="457" on="0"/>
        <pt x="395" y="423" on="1"/>
        <pt x="430" y="462" on="0"/>
        <pt x="511" y="487" on="0"/>
        <pt x="544" y="487" on="1"/>
        <pt x="592" y="487" on="0"/>
        <pt x="656" y="452" on="0"/>
        <pt x="695" y="394" on="0"/>
        <pt x="712" y="317" on="0"/>
        <pt x="712" y="276" on="1"/>
        <pt x="712" y="251" on="0"/>
        <pt x="695" y="232" on="0"/>
        <pt x="668" y="232" on="1"/>
      </contour>
      <contour>
        <pt x="623" y="279" on="1"/>
        <pt x="622" y="297" on="0"/>
        <pt x="618" y="347" on="0"/>
        <pt x="603" y="392" on="0"/>
        <pt x="572" y="423" on="0"/>
        <pt x="545" y="423" on="1"/>
        <pt x="523" y="423" on="0"/>
        <pt x="489" y="399" on="0"/>
        <pt x="466" y="359" on="0"/>
        <pt x="454" y="307" on="0"/>
        <pt x="452" y="279" on="1"/>
      </contour>
      <contour>
        <pt x="237" y="54" on="1"/>
        <pt x="276" y="54" on="0"/>
        <pt x="317" y="97" on="0"/>
        <pt x="337" y="157" on="0"/>
        <pt x="340" y="221" on="0"/>
        <pt x="340" y="243" on="1"/>
        <pt x="340" y="266" on="0"/>
        <pt x="337" y="327" on="0"/>
        <pt x="317" y="384" on="0"/>
        <pt x="276" y="423" on="0"/>
        <pt x="237" y="423" on="1"/>
        <pt x="197" y="423" on="0"/>
        <pt x="154" y="383" on="0"/>
        <pt x="134" y="326" on="0"/>
        <pt x="131" y="265" on="0"/>
        <pt x="131" y="243" on="1"/>
        <pt x="131" y="222" on="0"/>
        <pt x="134" y="158" on="0"/>
        <pt x="154" y="97" on="0"/>
        <pt x="197" y="54" on="0"/>
      </contour>
    </TTGlyph>
    <TTGlyph name="one" xMin="67" yMin="0" xMax="408" yMax="713">
      <contour>
        <pt x="303" y="64" on="1"/>
        <pt x="364" y="64" on="1"/>
        <pt x="369" y="64" on="0"/>
        <pt x="384" y="63" on="0"/>
        <pt x="398" y="57" on="0"/>
        <pt x="408" y="44" on="0"/>
        <pt x="408" y="32" on="1"/>
        <pt x="408" y="20" on="0"/>
        <pt x="398" y="7" on="0"/>
        <pt x="384" y="1" on="0"/>
        <pt x="369" y="0" on="0"/>
        <pt x="364" y="0" on="1"/>
        <pt x="124" y="0" on="1"/>
        <pt x="119" y="0" on="0"/>
        <pt x="104" y="1" on="0"/>
        <pt x="89" y="7" on="0"/>
        <pt x="79" y="20" on="0"/>
        <pt x="79" y="32" on="1"/>
        <pt x="79" y="44" on="0"/>
        <pt x="89" y="57" on="0"/>
        <pt x="104" y="63" on="0"/>
        <pt x="119" y="64" on="0"/>
        <pt x="124" y="64" on="1"/>
        <pt x="191" y="64" on="1"/>
        <pt x="191" y="595" on="1"/>
        <pt x="171" y="588" on="0"/>
        <pt x="128" y="580" on="0"/>
        <pt x="108" y="580" on="1"/>
        <pt x="104" y="580" on="0"/>
        <pt x="90" y="581" on="0"/>
        <pt x="77" y="587" on="0"/>
        <pt x="67" y="600" on="0"/>
        <pt x="67" y="612" on="1"/>
        <pt x="67" y="620" on="0"/>
        <pt x="81" y="643" on="0"/>
        <pt x="102" y="644" on="1"/>
        <pt x="110" y="644" on="0"/>
        <pt x="140" y="647" on="0"/>
        <pt x="176" y="657" on="0"/>
        <pt x="214" y="677" on="0"/>
        <pt x="230" y="696" on="1"/>
        <pt x="237" y="704" on="0"/>
        <pt x="249" y="713" on="0"/>
        <pt x="265" y="713" on="1"/>
        <pt x="279" y="713" on="0"/>
        <pt x="295" y="704" on="0"/>
        <pt x="302" y="691" on="0"/>
        <pt x="303" y="676" on="0"/>
        <pt x="303" y="669" on="1"/>
      </contour>
    </TTGlyph>
    <TTGlyph name="oslash" xMin="26" yMin="-115" xMax="448" yMax="588">
      <contour>
        <pt x="375" y="440" on="1"/>
        <pt x="401" y="416" on="0"/>
        <pt x="430" y="359" on="0"/>
        <pt x="444" y="301" on="0"/>
        <pt x="448" y="250" on="0"/>
        <pt x="448" y="232" on="1"/>
        <pt x="448" y="180" on="0"/>
        <pt x="424" y="92" on="0"/>
        <pt x="373" y="27" on="0"/>
        <pt x="293" y="-10" on="0"/>
        <pt x="237" y="-10" on="1"/>
        <pt x="209" y="-10" on="0"/>
        <pt x="166" y="-1" on="0"/>
        <pt x="155" y="3" on="1"/>
        <pt x="150" y="-8" on="0"/>
        <pt x="143" y="-21" on="0"/>
        <pt x="137" y="-35" on="0"/>
        <pt x="129" y="-52" on="0"/>
        <pt x="121" y="-66" on="1"/>
        <pt x="106" y="-96" on="0"/>
        <pt x="92" y="-115" on="0"/>
        <pt x="77" y="-115" on="1"/>
        <pt x="60" y="-115" on="0"/>
        <pt x="44" y="-93" on="0"/>
        <pt x="44" y="-83" on="1"/>
        <pt x="44" y="-80" on="0"/>
        <pt x="50" y="-66" on="0"/>
        <pt x="58" y="-48" on="0"/>
        <pt x="67" y="-30" on="0"/>
        <pt x="71" y="-22" on="1"/>
        <pt x="79" y="-8" on="0"/>
        <pt x="92" y="20" on="0"/>
        <pt x="99" y="34" on="1"/>
        <pt x="72" y="58" on="0"/>
        <pt x="42" y="117" on="0"/>
        <pt x="28" y="174" on="0"/>
        <pt x="26" y="221" on="0"/>
        <pt x="26" y="232" on="1"/>
        <pt x="26" y="283" on="0"/>
        <pt x="49" y="376" on="0"/>
        <pt x="99" y="446" on="0"/>
        <pt x="180" y="487" on="0"/>
        <pt x="237" y="487" on="1"/>
        <pt x="245" y="487" on="0"/>
        <pt x="290" y="483" on="0"/>
        <pt x="319" y="472" on="1"/>
        <pt x="366" y="564" on="1"/>
        <pt x="370" y="572" on="0"/>
        <pt x="383" y="588" on="0"/>
        <pt x="397" y="588" on="1"/>
        <pt x="414" y="588" on="0"/>
        <pt x="430" y="566" on="0"/>
        <pt x="430" y="556" on="1"/>
        <pt x="430" y="552" on="0"/>
        <pt x="428" y="546" on="0"/>
        <pt x="422" y="535" on="1"/>
      </contour>
      <contour>
        <pt x="288" y="410" on="1"/>
        <pt x="284" y="412" on="0"/>
        <pt x="257" y="423" on="0"/>
        <pt x="237" y="423" on="1"/>
        <pt x="196" y="423" on="0"/>
        <pt x="151" y="381" on="0"/>
        <pt x="130" y="321" on="0"/>
        <pt x="127" y="256" on="0"/>
        <pt x="127" y="232" on="1"/>
        <pt x="127" y="203" on="0"/>
        <pt x="130" y="144" on="0"/>
        <pt x="141" y="118" on="1"/>
      </contour>
      <contour>
        <pt x="187" y="65" on="1"/>
        <pt x="188" y="65" on="0"/>
        <pt x="216" y="54" on="0"/>
        <pt x="237" y="54" on="1"/>
        <pt x="278" y="54" on="0"/>
        <pt x="323" y="92" on="0"/>
        <pt x="344" y="147" on="0"/>
        <pt x="347" y="208" on="0"/>
        <pt x="347" y="232" on="1"/>
        <pt x="347" y="268" on="0"/>
        <pt x="343" y="325" on="0"/>
        <pt x="332" y="354" on="1"/>
      </contour>
    </TTGlyph>
</ttFont>
